<svg width="487" height="356" viewBox="0 0 487 356" fill="none" xmlns="http://www.w3.org/2000/svg">
<g clip-path="url(#clip0)">
<path d="M184.6 354.9C191.1 349.6 191.1 339.7 184.6 334.3H69.7C68.3 334.3 67.7 336.1 68.8 337C73.6 340.9 73.6 348.4 68.8 352.3C67.7 353.2 68.3 355 69.7 355L184.6 354.9Z" fill="white"/>
<path d="M137.2 334.3H184.6L187.5 337.2L189.5 344.7L188.4 350.1L184.6 355H138.6L140.7 350.7L142.1 341.7L137.2 334.3Z" fill="#992BB7"/>
<path d="M137.2 334.3C143.7 339.6 143.7 349.6 137.2 355" stroke="#1A1C32" stroke-width="2.0542" stroke-miterlimit="10"/>
<path d="M146.9 334.3C153.4 339.6 153.4 349.6 146.9 355" stroke="#1A1C32" stroke-width="2.0542" stroke-miterlimit="10"/>
<path d="M176.2 334.3C182.7 339.6 182.7 349.6 176.2 355" stroke="#1A1C32" stroke-width="2.0542" stroke-miterlimit="10"/>
<path d="M134.5 341.2H71.6001" stroke="#A0A2BB" stroke-width="2" stroke-miterlimit="10"/>
<path d="M134.5 348.2H71.6001" stroke="#A0A2BB" stroke-width="2" stroke-miterlimit="10"/>
<path d="M184.6 354.9C191.1 349.6 191.1 339.7 184.6 334.3H69.7C68.3 334.3 67.7 336.1 68.8 337C73.6 340.9 73.6 348.4 68.8 352.3C67.7 353.2 68.3 355 69.7 355L184.6 354.9Z" stroke="#1A1C32" stroke-width="2.0542" stroke-miterlimit="10"/>
<path d="M73.0999 334.2C66.5999 328.9 66.5999 319 73.0999 313.6H188C189.4 313.6 190 315.4 188.9 316.3C184.1 320.2 184.1 327.7 188.9 331.6C190 332.5 189.4 334.3 188 334.3L73.0999 334.2Z" fill="white"/>
<path d="M120.5 313.6H73.1L70.3 316.5L68.2 324L69.4 329.4L73.1 334.3H119.1L117.1 330L115.6 321L120.5 313.6Z" fill="#992BB7"/>
<path d="M120.5 313.6C114 318.9 114 328.9 120.5 334.3" stroke="#1A1C32" stroke-width="2.0542" stroke-miterlimit="10"/>
<path d="M110.9 313.6C104.4 318.9 104.4 328.9 110.9 334.3" stroke="#1A1C32" stroke-width="2.0542" stroke-miterlimit="10"/>
<path d="M81.5 313.6C75 318.9 75 328.9 81.5 334.3" stroke="#1A1C32" stroke-width="2.0542" stroke-miterlimit="10"/>
<path d="M123.2 320.5H186.2" stroke="#A0A2BB" stroke-width="2" stroke-miterlimit="10"/>
<path d="M123.2 327.5H186.2" stroke="#A0A2BB" stroke-width="2" stroke-miterlimit="10"/>
<path d="M73.0999 334.2C66.5999 328.9 66.5999 319 73.0999 313.6H188C189.4 313.6 190 315.4 188.9 316.3C184.1 320.2 184.1 327.7 188.9 331.6C190 332.5 189.4 334.3 188 334.3L73.0999 334.2Z" stroke="#1A1C32" stroke-width="2.0542" stroke-miterlimit="10"/>
<path d="M428.4 20.8C433.868 20.8 438.3 16.3676 438.3 10.9C438.3 5.43238 433.868 1 428.4 1C422.932 1 418.5 5.43238 418.5 10.9C418.5 16.3676 422.932 20.8 428.4 20.8Z" stroke="#C28AD4" stroke-width="2" stroke-miterlimit="10"/>
<path d="M466.2 48C471.668 48 476.1 43.5676 476.1 38.1C476.1 32.6324 471.668 28.2 466.2 28.2C460.732 28.2 456.3 32.6324 456.3 38.1C456.3 43.5676 460.732 48 466.2 48Z" stroke="#C28AD4" stroke-width="2" stroke-miterlimit="10"/>
<path d="M456.2 98C461.668 98 466.1 93.5676 466.1 88.1C466.1 82.6323 461.668 78.2 456.2 78.2C450.732 78.2 446.3 82.6323 446.3 88.1C446.3 93.5676 450.732 98 456.2 98Z" stroke="#C28AD4" stroke-width="2" stroke-miterlimit="10"/>
<path d="M437 17.1L457.8 32.9" stroke="#C28AD4" stroke-width="2" stroke-miterlimit="10"/>
<path d="M458 78.3L464.1 48.5" stroke="#C28AD4" stroke-width="2" stroke-miterlimit="10"/>
<path d="M42.2999 236.4C47.7675 236.4 52.1999 231.968 52.1999 226.5C52.1999 221.032 47.7675 216.6 42.2999 216.6C36.8323 216.6 32.3999 221.032 32.3999 226.5C32.3999 231.968 36.8323 236.4 42.2999 236.4Z" stroke="#C28AD4" stroke-width="2" stroke-miterlimit="10"/>
<path d="M10.9 201.9C16.3676 201.9 20.8 197.468 20.8 192C20.8 186.532 16.3676 182.1 10.9 182.1C5.43238 182.1 1 186.532 1 192C1 197.468 5.43238 201.9 10.9 201.9Z" stroke="#C28AD4" stroke-width="2" stroke-miterlimit="10"/>
<path d="M24.5001 169.8C29.9677 169.8 34.4001 165.368 34.4001 159.9C34.4001 154.432 29.9677 150 24.5001 150C19.0325 150 14.6001 154.432 14.6001 159.9C14.6001 165.368 19.0325 169.8 24.5001 169.8Z" stroke="#C28AD4" stroke-width="2" stroke-miterlimit="10"/>
<path d="M35.1001 218.6L18.1001 198.8" stroke="#C28AD4" stroke-width="2" stroke-miterlimit="10"/>
<path d="M20.8001 169.1L15.1001 182.3" stroke="#C28AD4" stroke-width="2" stroke-miterlimit="10"/>
<path d="M52.7001 110.4H8.30005V48.9H39.1L52.7001 62.6V110.4Z" stroke="#C28AD4" stroke-width="2" stroke-miterlimit="10"/>
<path d="M52.7001 61.9H39.4001V48.9" stroke="#C28AD4" stroke-width="2" stroke-miterlimit="10"/>
<path d="M31.6001 61.7H15.6001" stroke="#C28AD4" stroke-width="2" stroke-miterlimit="10"/>
<path d="M45.4001 68.6H15.6001" stroke="#C28AD4" stroke-width="2" stroke-miterlimit="10"/>
<path d="M31.6001 75.6H15.6001" stroke="#C28AD4" stroke-width="2" stroke-miterlimit="10"/>
<path d="M45.4001 82.6H15.6001" stroke="#C28AD4" stroke-width="2" stroke-miterlimit="10"/>
<path d="M31.6001 89.5H15.6001" stroke="#C28AD4" stroke-width="2" stroke-miterlimit="10"/>
<path d="M45.4001 96.5H15.6001" stroke="#C28AD4" stroke-width="2" stroke-miterlimit="10"/>
<path d="M486 203.5H441.6V142H472.4L486 155.7V203.5Z" stroke="#C28AD4" stroke-width="2" stroke-miterlimit="10"/>
<path d="M486 155.1H472.7V142" stroke="#C28AD4" stroke-width="2" stroke-miterlimit="10"/>
<path d="M464.9 154.8H448.9" stroke="#C28AD4" stroke-width="2" stroke-miterlimit="10"/>
<path d="M478.7 161.8H448.9" stroke="#C28AD4" stroke-width="2" stroke-miterlimit="10"/>
<path d="M464.9 168.7H448.9" stroke="#C28AD4" stroke-width="2" stroke-miterlimit="10"/>
<path d="M478.7 175.7H448.9" stroke="#C28AD4" stroke-width="2" stroke-miterlimit="10"/>
<path d="M464.9 182.7H448.9" stroke="#C28AD4" stroke-width="2" stroke-miterlimit="10"/>
<path d="M478.7 189.6H448.9" stroke="#C28AD4" stroke-width="2" stroke-miterlimit="10"/>
<path d="M274 288.8L217.2 292.8V283.4H274V288.8Z" fill="#A2A4BD"/>
<path d="M422.5 282.4H77.6001C76.5001 282.4 75.6001 281.5 75.6001 280.4V48.8C75.6001 47.7 76.5001 46.8 77.6001 46.8H422.5C423.6 46.8 424.5 47.7 424.5 48.8V280.4C424.5 281.5 423.6 282.4 422.5 282.4Z" stroke="#A2A4BD" stroke-width="2" stroke-miterlimit="10"/>
<path d="M422.5 282.4H84.6001C83.5001 282.4 82.6001 281.5 82.6001 280.4V48.8C82.6001 47.7 83.5001 46.8 84.6001 46.8H422.5C423.6 46.8 424.5 47.7 424.5 48.8V280.4C424.5 281.5 423.6 282.4 422.5 282.4Z" stroke="#A2A4BD" stroke-width="2" stroke-miterlimit="10"/>
<path d="M224.6 282.4V341C224.6 343.8 226.8 346 229.6 346H300.4C305.371 346 309.4 350.029 309.4 355V355H227.6C222.1 355 217.6 350.5 217.6 345V282.4H273.6V341C273.6 343.8 275.8 346 278.6 346" stroke="#A2A4BD" stroke-width="2" stroke-miterlimit="10"/>
<path d="M464.8 355H44.3" stroke="#1A1C32" stroke-width="2" stroke-miterlimit="10"/>
<path d="M92.6001 270.4V58.8C92.6001 57.7 93.5001 56.8 94.6001 56.8H412.5C413.6 56.8 414.5 57.7 414.5 58.8V270.4C414.5 271.5 413.6 272.4 412.5 272.4H94.6001C93.5001 272.4 92.6001 271.5 92.6001 270.4Z" stroke="#A2A4BD" stroke-width="2" stroke-miterlimit="10"/>
<path d="M296.4 245.3H116C114.9 245.3 114 244.4 114 243.3V83.1C114 82 114.9 81.1 116 81.1H296.4C297.5 81.1 298.4 82 298.4 83.1V243.2C298.4 244.4 297.5 245.3 296.4 245.3Z" fill="white"/>
<path d="M296.9 245.3H232.9V95.2H298.4V243.8C298.4 244.6 297.7 245.3 296.9 245.3Z" fill="white"/>
<path d="M136.8 245.3H232.8V95.2H135V243.5C135 244.4 135.8 245.3 136.8 245.3Z" fill="#1A1C32"/>
<path d="M115.812 245H138V95.0004H115V244.101C115 244.501 115.361 245 115.812 245Z" fill="white"/>
<path d="M296.4 245.3H116C114.9 245.3 114 244.4 114 243.3V83.1C114 82 114.9 81.1 116 81.1H296.4C297.5 81.1 298.4 82 298.4 83.1V243.2C298.4 244.4 297.5 245.3 296.4 245.3Z" stroke="#1A1C32" stroke-width="2" stroke-miterlimit="10"/>
<path d="M114 95.2H298.4" stroke="#1A1C32" stroke-width="2" stroke-miterlimit="10"/>
<path d="M251.9 85.2999H160.4V90.9999H251.9V85.2999Z" fill="#C28AD4"/>
<path d="M121.8 90.7999C123.181 90.7999 124.3 89.6806 124.3 88.2999C124.3 86.9192 123.181 85.7999 121.8 85.7999C120.419 85.7999 119.3 86.9192 119.3 88.2999C119.3 89.6806 120.419 90.7999 121.8 90.7999Z" fill="#1A1C32"/>
<path d="M128.2 90.7999C129.581 90.7999 130.7 89.6806 130.7 88.2999C130.7 86.9192 129.581 85.7999 128.2 85.7999C126.819 85.7999 125.7 86.9192 125.7 88.2999C125.7 89.6806 126.819 90.7999 128.2 90.7999Z" fill="#1A1C32"/>
<path d="M134.6 90.7999C135.981 90.7999 137.1 89.6806 137.1 88.2999C137.1 86.9192 135.981 85.7999 134.6 85.7999C133.219 85.7999 132.1 86.9192 132.1 88.2999C132.1 89.6806 133.219 90.7999 134.6 90.7999Z" fill="#1A1C32"/>
<path d="M232.8 95.2V245.3" stroke="#1A1C32" stroke-width="2" stroke-miterlimit="10"/>
<path d="M147.8 103.8H151.2" stroke="white" stroke-width="2" stroke-miterlimit="10"/>
<path d="M147.8 110.2H151.2" stroke="white" stroke-width="2" stroke-miterlimit="10"/>
<path d="M147.8 116.6H151.2" stroke="white" stroke-width="2" stroke-miterlimit="10"/>
<path d="M147.8 122.9H151.2" stroke="white" stroke-width="2" stroke-miterlimit="10"/>
<path d="M147.8 129.3H151.2" stroke="white" stroke-width="2" stroke-miterlimit="10"/>
<path d="M147.8 135.7H151.2" stroke="white" stroke-width="2" stroke-miterlimit="10"/>
<path d="M147.8 142.1H151.2" stroke="white" stroke-width="2" stroke-miterlimit="10"/>
<path d="M157.3 103.8H204" stroke="#C28AD4" stroke-width="2" stroke-miterlimit="10"/>
<path d="M163 110.7H197.5" stroke="#992BB7" stroke-width="2" stroke-miterlimit="10"/>
<path d="M167.8 117.7H213.5" stroke="#C28AD4" stroke-width="2" stroke-miterlimit="10"/>
<path d="M172.5 124.7H202" stroke="#992BB7" stroke-width="2" stroke-miterlimit="10"/>
<path d="M167.8 131.7H223" stroke="#C28AD4" stroke-width="2" stroke-miterlimit="10"/>
<path d="M163 138.7H190.9" stroke="#992BB7" stroke-width="2" stroke-miterlimit="10"/>
<path d="M157.3 145.7H204" stroke="#C28AD4" stroke-width="2" stroke-miterlimit="10"/>
<path d="M147.8 148.5H151.2" stroke="white" stroke-width="2" stroke-miterlimit="10"/>
<path d="M147.8 154.9H151.2" stroke="white" stroke-width="2" stroke-miterlimit="10"/>
<path d="M147.8 161.3H151.2" stroke="white" stroke-width="2" stroke-miterlimit="10"/>
<path d="M147.8 167.7H151.2" stroke="white" stroke-width="2" stroke-miterlimit="10"/>
<path d="M147.8 174.1H151.2" stroke="white" stroke-width="2" stroke-miterlimit="10"/>
<path d="M147.8 180.5H151.2" stroke="white" stroke-width="2" stroke-miterlimit="10"/>
<path d="M147.8 186.9H151.2" stroke="white" stroke-width="2" stroke-miterlimit="10"/>
<path d="M157.3 152.7H204" stroke="#C28AD4" stroke-width="2" stroke-miterlimit="10"/>
<path d="M163 159.6H197.5" stroke="#992BB7" stroke-width="2" stroke-miterlimit="10"/>
<path d="M167.8 166.6H213.5" stroke="#C28AD4" stroke-width="2" stroke-miterlimit="10"/>
<path d="M167.8 173.6H223" stroke="#C28AD4" stroke-width="2" stroke-miterlimit="10"/>
<path d="M163 180.6H190.9" stroke="#992BB7" stroke-width="2" stroke-miterlimit="10"/>
<path d="M157.3 187.6H204" stroke="#C28AD4" stroke-width="2" stroke-miterlimit="10"/>
<path d="M147.8 193.3H151.2" stroke="white" stroke-width="2" stroke-miterlimit="10"/>
<path d="M147.8 199.7H151.2" stroke="white" stroke-width="2" stroke-miterlimit="10"/>
<path d="M147.8 206.1H151.2" stroke="white" stroke-width="2" stroke-miterlimit="10"/>
<path d="M147.8 212.5H151.2" stroke="white" stroke-width="2" stroke-miterlimit="10"/>
<path d="M172.5 194.6H202" stroke="#992BB7" stroke-width="2" stroke-miterlimit="10"/>
<path d="M167.8 201.5H223" stroke="#C28AD4" stroke-width="2" stroke-miterlimit="10"/>
<path d="M163 208.5H190.9" stroke="#992BB7" stroke-width="2" stroke-miterlimit="10"/>
<path d="M157.3 215.5H204" stroke="#C28AD4" stroke-width="2" stroke-miterlimit="10"/>
<path d="M147.8 218.9H151.2" stroke="white" stroke-width="2" stroke-miterlimit="10"/>
<path d="M147.8 225.3H151.2" stroke="white" stroke-width="2" stroke-miterlimit="10"/>
<path d="M147.8 231.7H151.2" stroke="white" stroke-width="2" stroke-miterlimit="10"/>
<path d="M147.8 238.1H151.2" stroke="white" stroke-width="2" stroke-miterlimit="10"/>
<path d="M157.3 222.5H204" stroke="#C28AD4" stroke-width="2" stroke-miterlimit="10"/>
<path d="M163 229.5H197.5" stroke="#992BB7" stroke-width="2" stroke-miterlimit="10"/>
<path d="M167.8 236.5H213.5" stroke="#C28AD4" stroke-width="2" stroke-miterlimit="10"/>
<path d="M121.9 103.8H131" stroke="#C28AD4" stroke-width="2" stroke-miterlimit="10"/>
<path d="M121.9 111.9H128.9" stroke="#C28AD4" stroke-width="2" stroke-miterlimit="10"/>
<path d="M121.9 120H131" stroke="#C28AD4" stroke-width="2" stroke-miterlimit="10"/>
<path d="M121.9 136.2H131" stroke="#C28AD4" stroke-width="2" stroke-miterlimit="10"/>
<path d="M121.9 144.3H128.9" stroke="#C28AD4" stroke-width="2" stroke-miterlimit="10"/>
<path d="M121.9 152.4H131" stroke="#C28AD4" stroke-width="2" stroke-miterlimit="10"/>
<path d="M121.9 160.5H131" stroke="#C28AD4" stroke-width="2" stroke-miterlimit="10"/>
<path d="M121.9 168.6H128.9" stroke="#C28AD4" stroke-width="2" stroke-miterlimit="10"/>
<path d="M121.9 176.7H131" stroke="#C28AD4" stroke-width="2" stroke-miterlimit="10"/>
<path d="M121.9 184.9H131" stroke="#C28AD4" stroke-width="2" stroke-miterlimit="10"/>
<path d="M121.9 193H128.9" stroke="#C28AD4" stroke-width="2" stroke-miterlimit="10"/>
<path d="M121.9 201.1H131" stroke="#C28AD4" stroke-width="2" stroke-miterlimit="10"/>
<path d="M121.9 128.1H128.9" stroke="#C28AD4" stroke-width="2" stroke-miterlimit="10"/>
<path d="M285.4 217.3H245.1C243.3 217.3 241.8 215.8 241.8 214V125.9C241.8 124.1 243.3 122.6 245.1 122.6H285.4C287.2 122.6 288.7 124.1 288.7 125.9V214C288.7 215.8 287.2 217.3 285.4 217.3Z" fill="white" stroke="#1A1C32" stroke-width="2" stroke-miterlimit="10"/>
<path d="M275.7 122.7V125.2C275.7 126 275 126.7 274.2 126.7H256.2C255.4 126.7 254.7 126 254.7 125.2V122.7H275.7Z" fill="#1A1C32"/>
<path d="M281.9 181.3H248.7V189.9H281.9V181.3Z" fill="#1A1C32"/>
<path d="M281.9 192.4H248.7V201H281.9V192.4Z" fill="#C28AD4"/>
<path d="M258.3 205.8H272.2" stroke="#1A1C32" stroke-width="2" stroke-miterlimit="10"/>
<path d="M265.3 167.8C271.32 167.8 276.2 162.92 276.2 156.9C276.2 150.88 271.32 146 265.3 146C259.28 146 254.4 150.88 254.4 156.9C254.4 162.92 259.28 167.8 265.3 167.8Z" fill="#1A1C32"/>
<path d="M276.9 145.3L253.7 168.5" stroke="white" stroke-width="2" stroke-miterlimit="10"/>
<path d="M366.2 81.8H319.2V95H366.2V81.8Z" stroke="#C28AD4" stroke-width="2" stroke-miterlimit="10"/>
<path d="M342.7 94.7001V107.9" stroke="#C28AD4" stroke-width="2" stroke-miterlimit="10"/>
<path d="M333.3 120.3V133.5" stroke="#C28AD4" stroke-width="2" stroke-miterlimit="10"/>
<path d="M333.3 146V158.2" stroke="#C28AD4" stroke-width="2" stroke-miterlimit="10"/>
<path d="M380.3 146V158.2" stroke="#C28AD4" stroke-width="2" stroke-miterlimit="10"/>
<path d="M366.2 107.5H319.2V120.7H366.2V107.5Z" stroke="#C28AD4" stroke-width="2" stroke-miterlimit="10"/>
<path d="M347.4 133.1H319.2V146.3H347.4V133.1Z" stroke="#C28AD4" stroke-width="2" stroke-miterlimit="10"/>
<path d="M394.4 133.1H366.2V146.3H394.4V133.1Z" stroke="#C28AD4" stroke-width="2" stroke-miterlimit="10"/>
<path d="M366.4 139.7H347.4" stroke="#C28AD4" stroke-width="2" stroke-miterlimit="10"/>
<path d="M347.4 157.8H319.2V171H347.4V157.8Z" stroke="#C28AD4" stroke-width="2" stroke-miterlimit="10"/>
<path d="M394.4 157.8H366.2V171H394.4V157.8Z" stroke="#C28AD4" stroke-width="2" stroke-miterlimit="10"/>
<path d="M366.4 164.4H347.4" stroke="#C28AD4" stroke-width="2" stroke-miterlimit="10"/>
<path d="M349.2 338C348.9 335.5 348.9 333.3 348.9 330.9C348.9 328.6 349.1 326.2 349.6 323.8C350 321.5 350.7 319.1 351.7 316.9C352.8 314.7 354.4 312.6 356.7 311.3C357.3 311 358 311.2 358.4 311.8C358.7 312.3 358.6 313 358.1 313.4C356.6 314.6 355.5 316.3 354.9 318.2C354.3 320.1 354 322.2 353.9 324.3C353.8 326.4 353.9 328.5 354.2 330.7C354.4 332.8 354.8 335 355.3 336.9C355.7 338.5 354.7 340.1 353.1 340.5C351.5 340.9 349.9 339.9 349.5 338.3C349.2 338.3 349.2 338.1 349.2 338Z" fill="#992BB7"/>
<path d="M359.2 355H346.5C339.2 355 333.3 349.1 333.3 341.8V335.1C333.3 334.3 334 333.6 334.8 333.6H370.9C371.7 333.6 372.4 334.3 372.4 335.1V341.8C372.4 349.1 366.5 355 359.2 355Z" fill="white"/>
<path d="M333.4 342.2V334.5C333.4 333.9 334.1 333.4 334.9 333.4H371C371.8 333.4 372.5 337.5 372.5 338.2L333.4 342.2Z" fill="#A2A4BD"/>
<path d="M351.3 317.8C351.3 317.8 359.3 298.7 377.4 315.3C377.4 315.3 360.6 331 351.3 317.8Z" fill="#992BB7"/>
<path d="M354.2 317.3C354.2 317.3 360.6 297.6 336 298.4C336 298.5 338.6 321.2 354.2 317.3Z" fill="#992BB7"/>
<path d="M359.2 355H346.5C339.2 355 333.3 349.1 333.3 341.8V335.1C333.3 334.3 334 333.6 334.8 333.6H370.9C371.7 333.6 372.4 334.3 372.4 335.1V341.8C372.4 349.1 366.5 355 359.2 355Z" stroke="#1A1C32" stroke-width="2" stroke-miterlimit="10"/>
<path d="M256.2 43.2H243C242.2 43.2 241.6 42.6 241.6 41.8V34C241.6 33.2 242.2 32.6 243 32.6H256.2C257 32.6 257.6 33.2 257.6 34V41.8C257.5 42.5 256.9 43.2 256.2 43.2Z" fill="white" stroke="#1A1C32" stroke-width="2" stroke-miterlimit="10"/>
<path d="M256.5 43.2H248.9C248.3 43.2 247.8 42.7 247.8 42.1V33.7C247.8 33.1 248.3 32.6 248.9 32.6H256.5C257.1 32.6 257.6 33.1 257.6 33.7V42.1C257.5 42.7 257.1 43.2 256.5 43.2Z" fill="white" stroke="#1A1C32" stroke-width="2" stroke-miterlimit="10"/>
<path d="M264.4 50.2H234.7C233.6 50.2 232.7 49.3 232.7 48.2V41.6C232.7 40.5 233.6 39.6 234.7 39.6H264.4C265.5 39.6 266.4 40.5 266.4 41.6V48.2C266.4 49.3 265.5 50.2 264.4 50.2Z" fill="white" stroke="#1A1C32" stroke-width="2" stroke-miterlimit="10"/>
<path d="M432.3 313.9H427.4L436.2 283.9C436.4 283.4 436.9 283.1 437.4 283.2L440.4 284C440.9 284.1 441.3 284.7 441.1 285.3L432.3 313.9Z" fill="#992BB7"/>
<path d="M432.3 287.4L441.5 289.9" stroke="white" stroke-width="2" stroke-miterlimit="10"/>
<path d="M419.9 313.8L415.2 315.4L413.8 292.2C413.8 291.7 414.2 291.2 414.7 291.1L417.8 290.9C418.4 290.9 418.8 291.3 418.9 291.9L419.9 313.8Z" fill="#992BB7"/>
<path d="M412.6 297.2L420 296.8" stroke="white" stroke-width="2" stroke-miterlimit="10"/>
<path d="M426.4 314.1L421.5 315L423.5 290.8L428.6 291.2L426.4 314.1Z" fill="#1A1C32"/>
<path d="M440.6 314.9L402.7 318.9V309.9H440.6V314.9Z" fill="#A2A4BD"/>
<path d="M440.7 309.9H402.7V355.1H440.7V309.9Z" stroke="#1A1C32" stroke-width="2" stroke-miterlimit="10"/>
<path d="M231.9 5.09998H263.3C266.1 5.09998 268.3 7.29998 268.3 10.1V28.6C268.3 31.4 266.1 33.6 263.3 33.6H231.9C229.1 33.6 226.9 31.4 226.9 28.6V10.1C226.8 7.29998 229.1 5.09998 231.9 5.09998Z" fill="white" stroke="#1A1C32" stroke-width="2" stroke-miterlimit="10"/>
<path d="M240.1 5.09998H267.4C270.2 5.09998 272.4 7.29998 272.4 10.1V28.6C272.4 31.4 270.2 33.6 267.4 33.6H240.1C237.3 33.6 235.1 31.4 235.1 28.6V10.1C235.1 7.29998 237.3 5.09998 240.1 5.09998Z" fill="white" stroke="#1A1C32" stroke-width="2" stroke-miterlimit="10"/>
<path d="M226.8 21.5C226.8 21.5 214.9 25.9 215 47" stroke="#1A1C32" stroke-width="2" stroke-miterlimit="10"/>
<path d="M240.1 29.5C239.5 29.5 239.1 29 239.1 28.5V10.1C239.1 9.49998 239.6 9.09998 240.1 9.09998H267.4C268 9.09998 268.4 9.59998 268.4 10.1V28.6C268.4 29.2 267.9 29.6 267.4 29.6H240.1V29.5Z" fill="#C28AD4"/>
<path d="M254.2 26C257.845 26 260.8 23.0451 260.8 19.4C260.8 15.7549 257.845 12.8 254.2 12.8C250.555 12.8 247.6 15.7549 247.6 19.4C247.6 23.0451 250.555 26 254.2 26Z" fill="white" stroke="#1A1C32" stroke-width="2" stroke-miterlimit="10"/>
<path d="M251.5 22C250 20.5 255.3 15.2 256.8 16.7C258.3 18.2 258.3 20.5 256.8 22C255.4 23.5 253 23.5 251.5 22Z" fill="#1A1C32"/>
<path d="M365.6 255.5C383.936 255.5 398.8 240.636 398.8 222.3C398.8 203.964 383.936 189.1 365.6 189.1C347.264 189.1 332.4 203.964 332.4 222.3C332.4 240.636 347.264 255.5 365.6 255.5Z" fill="white" stroke="#1A1C32" stroke-width="2" stroke-miterlimit="10"/>
<path d="M344.6 249L346.9 238.6C347.6 235.8 350.1 233.8 353 233.8H378C381 233.8 383.5 235.9 384.2 238.7L386.6 250.5L370.8 257.6L353.6 254.8L344.6 249Z" fill="#C28AD4"/>
<path d="M365.7 255.6C348 255.6 333.6 241.8 332.5 224.4C332.5 225.1 332.4 225.7 332.4 226.4C332.4 244.8 347.3 259.6 365.6 259.6C383.9 259.6 398.8 244.7 398.8 226.4C398.8 225.7 398.8 225.1 398.7 224.4C397.8 241.8 383.4 255.6 365.7 255.6Z" fill="#1A1C32"/>
<path d="M374.4 233.9C374.4 238.8 370.5 242.7 365.6 242.7C360.7 242.7 356.8 238.8 356.8 233.9H374.4Z" fill="#992BB7" stroke="#1A1C32" stroke-width="2" stroke-miterlimit="10"/>
<path d="M344.6 249L346.9 238.6C347.6 235.8 350.1 233.8 353 233.8H378C381 233.8 383.5 235.9 384.2 238.7L386.6 250.5" stroke="#1A1C32" stroke-width="2" stroke-miterlimit="10"/>
<path d="M361.2 236.9V227H370V236.9" fill="#992BB7"/>
<path d="M361.2 236.9V227H370V236.9" stroke="#1A1C32" stroke-width="2" stroke-miterlimit="10"/>
<path d="M379.2 213.2C379.2 221.2 373.7 230.7 365.7 230.7C357.7 230.7 352.2 221.2 352.2 213.2C352.2 205.2 357.7 198.7 365.7 198.7C373.7 198.7 379.2 205.2 379.2 213.2Z" fill="#992BB7" stroke="#1A1C32" stroke-width="2" stroke-miterlimit="10"/>
<path d="M363.9 199.9C363.9 199.9 362.9 214.4 352.5 218.1C352.5 218.1 349 207.5 358 200.9C363 197.3 363.9 199.9 363.9 199.9Z" fill="#1A1C32"/>
<path d="M365.7 220.6C368 220.4 368.2 218.9 367.4 217.6C366 215.4 365.8 214.5 366 213C366.2 211.7 366.5 211 366.5 211" stroke="#1A1C32" stroke-width="2" stroke-miterlimit="10"/>
<path d="M369.9 223.7C367 228.9 361.2 225.6 361 222.9L369.9 223.7Z" fill="#1A1C32"/>
<path d="M358 205.7C358 205.7 362.6 207.7 369.4 209.6C376.8 211.7 377.8 220.9 377.8 220.9L379.4 210.9L377 204L372.2 199.8L365.7 198.7L361 199.4L358 205.7Z" fill="#1A1C32"/>
<path d="M342.3 224.8C340.3 224.7 336.6 224 334.3 220.7C333.1 221 331.8 221.2 330.5 221.2C322.5 221.2 316 215.3 316 208.1C316 200.9 322.5 195 330.5 195C338.5 195 345 200.9 345 208.1C345 211.9 343.6 214.6 340.5 217C340.8 218.8 341.3 221.3 342.9 222.3C343.4 222.6 343.7 223.2 343.5 223.8C343.5 224.4 343 224.8 342.3 224.8Z" fill="#C28AD4"/>
<path d="M330.6 195.9C338.1 195.9 344.1 201.3 344.1 208C344.1 211.8 342.6 214.3 339.5 216.5C339.8 218.6 340.2 221.8 342.5 223.1C342.8 223.3 342.7 223.8 342.3 223.8C340.3 223.7 336.7 223 334.7 219.5C333.4 219.9 331.9 220.1 330.5 220.1C323 220.1 317 214.7 317 208C317 201.3 323.1 195.9 330.6 195.9ZM330.6 193.9C322 193.9 315.1 200.2 315.1 208C315.1 215.8 322.1 222.1 330.6 222.1C331.7 222.1 332.9 222 334 221.8C336.6 225 340.2 225.7 342.4 225.8H342.5C343.6 225.8 344.5 225.1 344.8 224.1C345.1 223.1 344.6 222 343.7 221.4C342.6 220.7 342.1 218.9 341.8 217.4C344.8 214.9 346.2 211.9 346.2 208.1C346.1 200.3 339.1 193.9 330.6 193.9Z" fill="white"/>
<path d="M324.5 205.4H336.6" stroke="white" stroke-width="2" stroke-miterlimit="10"/>
<path d="M324.5 210.4H332.6" stroke="white" stroke-width="2" stroke-miterlimit="10"/>
</g>
<defs>
<clipPath id="clip0">
<rect width="487" height="356" fill="white"/>
</clipPath>
</defs>
</svg>
