<svg width="500" height="500" viewBox="0 0 500 500" fill="none" xmlns="http://www.w3.org/2000/svg">
<path fill-rule="evenodd" clip-rule="evenodd" d="M157.377 208.543H100.898C96.6735 208.543 93.2485 211.969 93.2485 216.193H165.027C165.027 211.969 161.603 208.543 157.377 208.543" fill="white"/>
<mask id="mask0" mask-type="alpha" maskUnits="userSpaceOnUse" x="36" y="12" width="416" height="478">
<path fill-rule="evenodd" clip-rule="evenodd" d="M36 489.032H451.57V12H36V489.032Z" fill="white"/>
</mask>
<g mask="url(#mask0)">
<path fill-rule="evenodd" clip-rule="evenodd" d="M116.687 211.837H141.455V183.576H116.687V211.837Z" fill="white"/>
<path fill-rule="evenodd" clip-rule="evenodd" d="M180.846 107.305H80.4313C78.9403 107.305 77.7323 108.513 77.7323 110.004V184.26C77.7323 185.751 78.9403 186.96 80.4313 186.96H180.846C182.336 186.96 183.545 185.751 183.545 184.26V110.004C183.545 108.513 182.336 107.305 180.846 107.305" fill="white"/>
<path fill-rule="evenodd" clip-rule="evenodd" d="M222.77 236.146C202.028 236.146 193.717 231.459 191.26 218.645C191.147 218.053 191.041 217.411 190.927 216.729C189.827 210.08 188.162 200.031 172.924 198.997C159.596 198.091 155.484 191.435 154.218 187.548C154.047 187.023 154.334 186.458 154.86 186.288C155.384 186.115 155.95 186.405 156.121 186.929C157.229 190.336 160.905 196.175 173.059 197C189.876 198.142 191.77 209.573 192.901 216.403C193.01 217.066 193.114 217.692 193.225 218.268C195.242 228.794 200.815 234.416 224.638 234.133H224.651C225.198 234.133 225.644 234.573 225.651 235.121C225.658 235.672 225.216 236.126 224.664 236.133C224.022 236.141 223.39 236.146 222.77 236.146" fill="#1A1C32"/>
<path fill-rule="evenodd" clip-rule="evenodd" d="M106.843 227.328C107.347 225.117 109.314 223.548 111.581 223.548H170.982C173.25 223.548 175.217 225.117 175.721 227.328L179.975 241.079H188.4L183.561 224.59C182.441 219.678 178.072 216.193 173.033 216.193H87.2423C82.2033 216.193 77.8353 219.678 76.7153 224.59L71.8763 241.079H102.519L106.843 227.328Z" fill="#69C9AC"/>
<path fill-rule="evenodd" clip-rule="evenodd" d="M186.439 241.36L181.6 224.871C180.562 220.326 176.634 217.193 172.033 217.193H86.241C81.64 217.193 77.712 220.326 76.688 224.812L71.835 241.36L69.915 240.798L74.753 224.308C75.971 218.965 80.701 215.193 86.241 215.193H172.033C177.574 215.193 182.303 218.965 183.535 224.367L188.359 240.798L186.439 241.36Z" fill="#1A1C32"/>
<path fill-rule="evenodd" clip-rule="evenodd" d="M102.769 240.558L100.859 239.962L104.887 227.03C105.479 224.421 107.829 222.547 110.581 222.547H169.981C172.733 222.547 175.082 224.421 175.695 227.105L179.703 239.963L177.792 240.557L173.765 227.624C173.341 225.782 171.793 224.547 169.981 224.547H110.581C108.768 224.547 107.22 225.782 106.817 227.55L102.769 240.558Z" fill="#1A1C32"/>
<path fill-rule="evenodd" clip-rule="evenodd" d="M160.232 240.557L156.205 227.624C155.782 225.782 154.234 224.547 152.421 224.547V222.547C155.173 222.547 157.523 224.421 158.134 227.105L162.142 239.963L160.232 240.557Z" fill="#1A1C32"/>
<path fill-rule="evenodd" clip-rule="evenodd" d="M178.748 241.372H161.188L155.892 223.548H170.52C172.211 223.548 173.702 224.656 174.191 226.274L178.748 241.372Z" fill="#1A1C32"/>
<path fill-rule="evenodd" clip-rule="evenodd" d="M38 249.951H370.321V240.077H38V249.951ZM36 251.951H372.321V238.077H36V251.951Z" fill="#A2A4BD"/>
<path fill-rule="evenodd" clip-rule="evenodd" d="M383.918 144.112L374.092 192.157L327.306 224.292C321.369 219.954 316.327 216.745 310.026 216.066C294.759 214.422 283.824 232.028 283.824 232.028L291.636 232.864C294.984 229.178 301.258 224.45 304.751 224.348C307.582 224.266 310.212 224.959 312.607 227.925L303.521 230.969L305.059 235.681L373.916 230.697L388.18 208.53C392.056 208.381 413.221 163.579 413.221 163.579L383.918 144.112Z" fill="#69C9AC"/>
<path fill-rule="evenodd" clip-rule="evenodd" d="M37 250.951H371.321V239.077H37V250.951Z" fill="white"/>
<path fill-rule="evenodd" clip-rule="evenodd" d="M38 249.951H370.321V240.077H38V249.951ZM36 251.951H372.321V238.077H36V251.951Z" fill="#A2A4BD"/>
<path fill-rule="evenodd" clip-rule="evenodd" d="M299.031 272.366H327.889V270.366H299.031V272.366Z" fill="#A2A4BD"/>
<path fill-rule="evenodd" clip-rule="evenodd" d="M306.222 319.562H318.871V317.562H306.222V319.562Z" fill="#A2A4BD"/>
<path fill-rule="evenodd" clip-rule="evenodd" d="M302.458 278.63L301.103 271.415H323.944L302.458 278.63Z" fill="#A2A4BD"/>
<path fill-rule="evenodd" clip-rule="evenodd" d="M356.393 252.492L267.316 258.496L265.964 250.951H357.745L356.393 252.492Z" fill="#A2A4BD"/>
<path fill-rule="evenodd" clip-rule="evenodd" d="M307.278 487.759H305.278V319.453C303.08 318.991 301.424 317.036 301.424 314.702V272.365H287.073C275.264 272.365 265.657 262.759 265.657 250.95V249.95H359.436V250.95C359.436 262.759 349.829 272.365 338.02 272.365H323.67V314.702C323.67 317.036 322.013 318.991 319.815 319.453V475.749H317.815V317.557H318.815C320.389 317.557 321.67 316.277 321.67 314.702V270.365H338.02C348.391 270.365 356.888 262.194 357.411 251.95H267.682C268.205 262.194 276.702 270.365 287.073 270.365H303.424V314.702C303.424 316.277 304.704 317.557 306.278 317.557H307.278V487.759Z" fill="#A2A4BD"/>
<path fill-rule="evenodd" clip-rule="evenodd" d="M100.977 487.759H98.9771V317.557H99.9771C101.55 317.557 102.831 316.277 102.831 314.702V270.365H119.182C129.553 270.365 138.05 262.194 138.573 251.95H48.8441C49.3671 262.194 57.8641 270.365 68.2341 270.365H84.5851V314.702C84.5851 316.277 85.8661 317.557 87.4391 317.557H88.4391V487.759H86.4391V319.453C84.2411 318.991 82.5851 317.036 82.5851 314.702V272.365H68.2341C56.4251 272.365 46.8191 262.759 46.8191 250.95V249.95H140.598V250.95C140.598 262.759 130.991 272.365 119.182 272.365H104.831V314.702C104.831 317.036 103.175 318.991 100.977 319.453V487.759Z" fill="#A2A4BD"/>
<path fill-rule="evenodd" clip-rule="evenodd" d="M80.192 272.366H109.051V270.366H80.192V272.366Z" fill="#A2A4BD"/>
<path fill-rule="evenodd" clip-rule="evenodd" d="M87.384 319.562H100.033V317.562H87.384V319.562Z" fill="#A2A4BD"/>
<path fill-rule="evenodd" clip-rule="evenodd" d="M87.7388 326.412L86.3848 319.197H100.744L87.7388 326.412Z" fill="#A2A4BD"/>
<path fill-rule="evenodd" clip-rule="evenodd" d="M84.1666 278.63L82.8126 271.415H105.654L84.1666 278.63Z" fill="#A2A4BD"/>
<path fill-rule="evenodd" clip-rule="evenodd" d="M306.03 326.412L304.676 319.197H319.034L306.03 326.412Z" fill="#A2A4BD"/>
<path fill-rule="evenodd" clip-rule="evenodd" d="M138.248 253.492L49.1696 258.496L47.8186 250.951H139.599L138.248 253.492Z" fill="#A2A4BD"/>
<path fill-rule="evenodd" clip-rule="evenodd" d="M431.034 255.386C433.026 234.333 431.894 226.032 427.334 212.864L391.156 205.345L390.712 213.447L351.444 210.744L339.04 319.575C338.224 373.748 343.138 433.378 345.044 459.858H364.254C364.254 459.858 364.598 388.95 372.536 329.273L387.627 269.782L385.485 322.573C386.972 391.709 397.871 461.188 397.871 461.188L417.072 460.568C417.072 460.568 416.263 388.258 421.163 329.561C421.163 329.561 429.043 276.438 431.034 255.386" fill="#1A1C32"/>
<path fill-rule="evenodd" clip-rule="evenodd" d="M80.4312 108.305C79.4942 108.305 78.7312 109.068 78.7312 110.004V184.26C78.7312 185.198 79.4942 185.96 80.4312 185.96H180.845C181.783 185.96 182.545 185.198 182.545 184.26V110.004C182.545 109.068 181.783 108.305 180.845 108.305H80.4312ZM180.845 187.96H80.4312C78.3912 187.96 76.7312 186.3 76.7312 184.26V110.004C76.7312 107.964 78.3912 106.305 80.4312 106.305H180.845C182.885 106.305 184.545 107.964 184.545 110.004V184.26C184.545 186.3 182.885 187.96 180.845 187.96V187.96Z" fill="#1A1C32"/>
<path fill-rule="evenodd" clip-rule="evenodd" d="M94.3228 215.193H163.951C163.468 211.999 160.704 209.543 157.377 209.543H100.898C97.5708 209.543 94.8058 211.999 94.3228 215.193V215.193ZM166.026 217.193H92.2478V216.193C92.2478 211.423 96.1288 207.543 100.898 207.543H157.377C162.146 207.543 166.026 211.423 166.026 216.193V217.193Z" fill="#1A1C32"/>
<path fill-rule="evenodd" clip-rule="evenodd" d="M123.314 207.543H140.364V187.961H123.314V207.543ZM121.314 209.543H142.364V185.961H121.314V209.543Z" fill="#1A1C32"/>
<path fill-rule="evenodd" clip-rule="evenodd" d="M115.911 208.543H117.911V186.961H115.911V208.543Z" fill="#1A1C32"/>
<path fill-rule="evenodd" clip-rule="evenodd" d="M136.113 186.961H127.565V195.496C127.565 197.857 129.478 199.771 131.84 199.771C134.2 199.771 136.113 197.857 136.113 195.496V186.961Z" fill="#1A1C32"/>
<path fill-rule="evenodd" clip-rule="evenodd" d="M213.26 173.398H289.767C291.357 173.398 292.73 174.511 293.059 176.067L305.141 232.603H348.669C349.9 232.603 350.897 233.6 350.897 234.831C350.897 236.06 349.9 237.057 348.669 237.057H305.945H302.765H225.287C223.698 237.057 222.324 235.944 221.995 234.388L209.968 177.459C209.527 175.367 211.122 173.398 213.26 173.398" fill="white"/>
<path fill-rule="evenodd" clip-rule="evenodd" d="M348.365 232.603H229.058C227.801 232.603 226.715 231.724 226.452 230.495L214.259 173.327L211.661 173.934L210.133 175.634L222.976 236.979L224.525 237.057H227.705H348.492C349.798 237.057 350.842 235.934 350.708 234.601C350.592 233.442 349.53 232.603 348.365 232.603" fill="#69C9AC"/>
<path fill-rule="evenodd" clip-rule="evenodd" d="M213.26 174.398C212.543 174.398 211.874 174.717 211.423 175.274C210.972 175.83 210.798 176.551 210.947 177.252L222.974 234.181C223.203 235.268 224.177 236.057 225.287 236.057H348.669C349.346 236.057 349.896 235.507 349.896 234.831C349.896 234.154 349.346 233.603 348.669 233.603H304.332L292.081 176.276C291.851 175.187 290.877 174.398 289.766 174.398H213.26ZM348.669 238.057H225.287C223.238 238.057 221.442 236.601 221.017 234.595L208.989 177.666C208.716 176.372 209.036 175.042 209.869 174.014C210.701 172.987 211.938 172.398 213.26 172.398H289.766C291.817 172.398 293.613 173.854 294.037 175.86L305.949 231.603H348.669C350.448 231.603 351.896 233.051 351.896 234.831C351.896 236.61 350.448 238.057 348.669 238.057V238.057Z" fill="#1A1C32"/>
<path fill-rule="evenodd" clip-rule="evenodd" d="M298.79 228.777H230.574C230.037 228.777 229.572 228.403 229.459 227.879L218.923 179.338C218.769 178.626 219.311 177.954 220.038 177.954H288.254C288.791 177.954 289.256 178.329 289.369 178.853L299.905 227.394C300.06 228.105 299.518 228.777 298.79 228.777" fill="#1A1C32"/>
<path fill-rule="evenodd" clip-rule="evenodd" d="M227.161 187.36H276.957V185.36H227.161V187.36Z" fill="#3AA193"/>
<path fill-rule="evenodd" clip-rule="evenodd" d="M229.695 194.962H279.491V192.962H229.695V194.962Z" fill="#3AA193"/>
<path fill-rule="evenodd" clip-rule="evenodd" d="M232.228 202.564H256.684V200.564H232.228V202.564Z" fill="#3AA193"/>
<path fill-rule="evenodd" clip-rule="evenodd" d="M84.777 182.47H179.053V112.077H84.777V182.47Z" fill="#1A1C32"/>
<path fill-rule="evenodd" clip-rule="evenodd" d="M111.624 121.973H115.234V119.973H111.624V121.973Z" fill="white"/>
<path fill-rule="evenodd" clip-rule="evenodd" d="M111.624 128.389H115.234V126.389H111.624V128.389Z" fill="white"/>
<path fill-rule="evenodd" clip-rule="evenodd" d="M111.624 134.805H115.234V132.805H111.624V134.805Z" fill="white"/>
<path fill-rule="evenodd" clip-rule="evenodd" d="M111.624 141.221H115.234V139.221H111.624V141.221Z" fill="white"/>
<path fill-rule="evenodd" clip-rule="evenodd" d="M111.624 147.638H115.234V145.638H111.624V147.638Z" fill="white"/>
<path fill-rule="evenodd" clip-rule="evenodd" d="M111.624 154.054H115.234V152.054H111.624V154.054Z" fill="white"/>
<path fill-rule="evenodd" clip-rule="evenodd" d="M111.624 160.47H115.234V158.47H111.624V160.47Z" fill="white"/>
<path fill-rule="evenodd" clip-rule="evenodd" d="M118.514 121.973H167.723V119.973H118.514V121.973Z" fill="#69C9AC"/>
<path fill-rule="evenodd" clip-rule="evenodd" d="M124.52 128.389H160.833V126.389H124.52V128.389Z" fill="#3AA193"/>
<path fill-rule="evenodd" clip-rule="evenodd" d="M129.523 134.805H167.723V132.805H129.523V134.805Z" fill="#69C9AC"/>
<path fill-rule="evenodd" clip-rule="evenodd" d="M134.527 141.221H165.657V139.221H134.527V141.221Z" fill="#3AA193"/>
<path fill-rule="evenodd" clip-rule="evenodd" d="M129.523 147.638H167.723V145.638H129.523V147.638Z" fill="#69C9AC"/>
<path fill-rule="evenodd" clip-rule="evenodd" d="M124.519 154.054H153.942V152.054H124.519V154.054Z" fill="#3AA193"/>
<path fill-rule="evenodd" clip-rule="evenodd" d="M118.514 160.47H167.723V158.47H118.514V160.47Z" fill="#69C9AC"/>
<path fill-rule="evenodd" clip-rule="evenodd" d="M93.709 121.973H102.831V119.973H93.709V121.973Z" fill="white"/>
<path fill-rule="evenodd" clip-rule="evenodd" d="M93.708 129.598H100.764V127.598H93.708V129.598Z" fill="white"/>
<path fill-rule="evenodd" clip-rule="evenodd" d="M93.709 137.223H102.831V135.223H93.709V137.223Z" fill="white"/>
<path fill-rule="evenodd" clip-rule="evenodd" d="M93.708 144.848H100.764V142.848H93.708V144.848Z" fill="white"/>
<path fill-rule="evenodd" clip-rule="evenodd" d="M37 489.004H451.57V487.004H37V489.004Z" fill="#1A1C32"/>
<path fill-rule="evenodd" clip-rule="evenodd" d="M416.042 467.642L415.277 488.026H360.276C360.276 480.864 364.601 479.255 371.073 476.855L400.744 469.494L416.042 467.642Z" fill="#3AA193"/>
<path fill-rule="evenodd" clip-rule="evenodd" d="M415.414 482.739H360.986L360.3 487.213H415.414V482.739Z" fill="white"/>
<path fill-rule="evenodd" clip-rule="evenodd" d="M361.31 487.026H414.315L414.957 469.881C414.969 469.564 414.853 469.264 414.629 469.039C414.405 468.812 414.083 468.671 413.789 468.701L402.127 470.136L371.369 477.812C365.414 480.02 361.693 481.416 361.31 487.026V487.026ZM416.241 489.026H359.277V488.026C359.277 480.163 364.329 478.29 370.725 475.918L370.831 475.884L401.823 468.159L413.642 466.709C414.62 466.664 415.446 467.019 416.052 467.632C416.659 468.247 416.988 469.093 416.956 469.956L416.241 489.026Z" fill="#1A1C32"/>
<path fill-rule="evenodd" clip-rule="evenodd" d="M388.875 476.485L385.689 469.317L387.518 468.505L390.703 475.673L388.875 476.485Z" fill="#1A1C32"/>
<path fill-rule="evenodd" clip-rule="evenodd" d="M384.095 478.079L380.909 470.91L382.738 470.098L385.923 477.267L384.095 478.079Z" fill="#1A1C32"/>
<path fill-rule="evenodd" clip-rule="evenodd" d="M415.937 470.148C410.492 472.772 404.694 472.662 399.249 470.037L398.457 454.167L416.042 458.626L415.937 470.148Z" fill="#69C9AC"/>
<path fill-rule="evenodd" clip-rule="evenodd" d="M400.216 469.385C405.11 471.581 410.176 471.623 414.942 469.507L415.034 459.403L399.523 455.469L400.216 469.385ZM407.768 473.071C404.775 473.071 401.761 472.36 398.813 470.938L398.279 470.68L397.39 452.865L417.048 457.85L416.93 470.78L416.37 471.049C413.574 472.397 410.68 473.071 407.768 473.071V473.071Z" fill="#1A1C32"/>
<path fill-rule="evenodd" clip-rule="evenodd" d="M363.307 467.642L362.543 488.026H307.542C307.542 480.864 311.866 479.255 318.338 476.855L348.01 469.494L363.307 467.642Z" fill="#3AA193"/>
<path fill-rule="evenodd" clip-rule="evenodd" d="M362.679 482.739H308.251L307.564 487.213H362.679V482.739Z" fill="white"/>
<path fill-rule="evenodd" clip-rule="evenodd" d="M308.575 487.026H361.58L362.222 469.88C362.234 469.564 362.118 469.264 361.895 469.039C361.671 468.812 361.341 468.671 361.055 468.701L349.393 470.136L318.635 477.812C312.679 480.021 308.958 481.417 308.575 487.026V487.026ZM363.506 489.026H306.542V488.026C306.542 480.164 311.595 478.29 317.991 475.918L318.096 475.884L349.089 468.159L360.908 466.709C361.884 466.664 362.712 467.019 363.318 467.633C363.925 468.248 364.254 469.094 364.221 469.956L363.506 489.026Z" fill="#1A1C32"/>
<path fill-rule="evenodd" clip-rule="evenodd" d="M336.139 476.485L332.953 469.317L334.782 468.505L337.967 475.673L336.139 476.485Z" fill="#1A1C32"/>
<path fill-rule="evenodd" clip-rule="evenodd" d="M331.361 478.079L328.174 470.91L330.003 470.098L333.189 477.267L331.361 478.079Z" fill="#1A1C32"/>
<path fill-rule="evenodd" clip-rule="evenodd" d="M363.202 470.148C357.757 472.772 351.959 472.662 346.514 470.037L345.722 454.167L363.307 458.626L363.202 470.148Z" fill="#69C9AC"/>
<path fill-rule="evenodd" clip-rule="evenodd" d="M347.482 469.385C352.374 471.581 357.442 471.623 362.208 469.507L362.3 459.403L346.788 455.469L347.482 469.385ZM355.034 473.071C352.041 473.071 349.027 472.36 346.079 470.938L345.545 470.68L344.655 452.865L364.314 457.85L364.196 470.78L363.636 471.049C360.84 472.397 357.946 473.071 355.034 473.071V473.071Z" fill="#1A1C32"/>
<path fill-rule="evenodd" clip-rule="evenodd" d="M381.171 304.221L379.232 303.729L394.323 244.24L396.263 244.732L381.171 304.221Z" fill="white"/>
<path fill-rule="evenodd" clip-rule="evenodd" d="M380.001 43.3611C380.001 43.3611 374.176 48.5401 374.176 58.2501C374.176 58.2501 368.35 56.3071 369.645 46.5981C370.939 36.8881 380.001 43.3611 380.001 43.3611" fill="#3AA193"/>
<path fill-rule="evenodd" clip-rule="evenodd" d="M348.57 66.1599C348.57 61.1199 352.811 39.0389 353.31 35.0469C354.605 24.6889 403.953 34.9469 403.953 34.9469L405.894 93.2039L379.354 97.7349L378.708 80.2579C378.708 80.2579 367.055 85.4359 360.583 81.5529C357.977 79.9899 355.898 74.4399 354.425 67.6939L348.57 66.1599Z" fill="#69C9AC"/>
<path fill-rule="evenodd" clip-rule="evenodd" d="M379.651 78.7449L380.311 96.5569L404.866 92.3649L402.978 35.7679C391.258 33.3929 362.03 28.7559 355.445 33.4639C354.758 33.9549 354.384 34.5129 354.302 35.1709C354.14 36.4699 353.606 39.5439 352.931 43.4349C351.68 50.6439 349.833 61.2969 349.594 65.3949L355.272 66.8819L355.402 67.4809C356.965 74.6449 359.041 79.4619 361.097 80.6949C367.046 84.2639 378.19 79.3929 378.3 79.3439L379.651 78.7449ZM378.397 98.9129L377.76 81.7189C374.402 82.9859 365.626 85.7459 360.068 82.4099C357.496 80.8679 355.315 76.1909 353.582 68.5069L347.569 66.9319V66.1599C347.569 62.6429 349.529 51.3439 350.961 43.0939C351.605 39.3809 352.161 36.1749 352.318 34.9229C352.471 33.6969 353.131 32.6589 354.282 31.8369C363.106 25.5269 402.483 33.6219 404.155 33.9679L404.925 34.1279L404.951 34.9139L406.922 94.0429L378.397 98.9129Z" fill="#1A1C32"/>
<path fill-rule="evenodd" clip-rule="evenodd" d="M378.696 73.3766C380.661 72.7216 379.911 78.0356 379.597 79.8736C379.56 79.8906 370.369 83.9536 363.898 82.7566C363.623 81.1286 376.6 74.0746 378.696 73.3766" fill="#1A1C32"/>
<path fill-rule="evenodd" clip-rule="evenodd" d="M356.523 55.1482C356.91 56.3992 357.729 57.2572 358.355 57.0642C358.98 56.8712 359.174 55.7012 358.789 54.4502C358.402 53.1992 357.583 52.3412 356.957 52.5342C356.332 52.7272 356.137 53.8982 356.523 55.1482" fill="#1A1C32"/>
<path fill-rule="evenodd" clip-rule="evenodd" d="M351.52 50.0819L350.358 48.4549C356.266 44.2339 364.4 47.4129 364.743 47.5499L364.001 49.4069C363.928 49.3799 356.532 46.5049 351.52 50.0819" fill="#1A1C32"/>
<path fill-rule="evenodd" clip-rule="evenodd" d="M356.311 76.3797L355.27 74.6707C359.231 72.2587 361.248 67.4787 361.268 67.4307L363.117 68.1927C363.026 68.4137 360.841 73.6197 356.311 76.3797" fill="#1A1C32"/>
<path fill-rule="evenodd" clip-rule="evenodd" d="M395.976 30.3054L410.199 48.4784C405.063 58.5254 405.457 70.6014 405.457 70.6014L385.541 72.9714L383.155 65.4124C378.372 66.8804 376.167 62.2584 376.167 62.2584C380.123 61.4674 384.872 58.9104 386.211 54.2234C387.097 51.1224 386.881 48.8674 384.203 46.1894C379.873 41.6374 374.159 51.5454 374.159 51.5454C374.159 51.5454 372.872 38.0744 366.534 36.2534L369.903 29.5154L395.976 30.3054Z" fill="#1A1C32"/>
<path fill-rule="evenodd" clip-rule="evenodd" d="M366.742 36.6266H351.73C351.73 36.6266 355.68 27.9356 362.002 23.1946C367.439 19.1166 371.483 15.2936 384.915 16.8736C398.346 18.4536 408.618 25.5646 411.779 30.3056C414.939 35.0466 414.149 39.7866 410.199 48.4786" fill="#1A1C32"/>
<path fill-rule="evenodd" clip-rule="evenodd" d="M369.903 32.6755C369.903 32.6755 369.113 41.3665 356.47 41.3665C356.47 41.3665 361.212 37.4165 362.002 32.6755C362.792 27.9355 369.903 32.6755 369.903 32.6755" fill="#1A1C32"/>
<path fill-rule="evenodd" clip-rule="evenodd" d="M365.636 30.1326C365.636 30.1326 362.685 39.5966 348.341 36.5436C348.341 36.5436 352.974 32.9206 356.47 28.7256C360.421 23.9856 365.636 30.1326 365.636 30.1326" fill="#1A1C32"/>
<path fill-rule="evenodd" clip-rule="evenodd" d="M400.498 30.246C400.498 30.246 391.849 25.402 397.8 12C397.8 12 399.669 18.847 404.218 21.869C408.767 24.892 400.498 30.246 400.498 30.246" fill="#1A1C32"/>
<path fill-rule="evenodd" clip-rule="evenodd" d="M403.119 31.24C403.119 31.24 409.796 29.296 407.845 19.196C407.845 19.196 405.486 23.58 401.9 24.928C398.313 26.275 403.119 31.24 403.119 31.24" fill="#1A1C32"/>
<path fill-rule="evenodd" clip-rule="evenodd" d="M363.732 58.948C363.732 61.13 365.501 62.898 367.682 62.898C369.864 62.898 371.632 61.13 371.632 58.948C371.632 56.766 369.864 54.998 367.682 54.998C365.501 54.998 363.732 56.766 363.732 58.948" fill="#3AA193"/>
<path fill-rule="evenodd" clip-rule="evenodd" d="M381.797 53.4645C381.793 53.4535 381.407 52.4585 380.648 51.6985C380.1 51.1515 379.529 50.8855 378.903 50.8855V48.8855C380.054 48.8855 381.147 49.3685 382.062 50.2845C383.136 51.3595 383.648 52.7015 383.669 52.7585L381.797 53.4645Z" fill="#1A1C32"/>
<path fill-rule="evenodd" clip-rule="evenodd" d="M377.56 56.6833C377.558 56.5033 377.557 52.2573 380.812 50.1523L381.898 51.8313C379.557 53.3463 379.56 56.6323 379.56 56.6653L377.56 56.6833Z" fill="#1A1C32"/>
<path fill-rule="evenodd" clip-rule="evenodd" d="M379.203 87.1735L376.458 92.4275L408.561 89.7365L405.351 84.0495L379.203 87.1735ZM373.001 94.7245L377.918 85.3125L406.437 81.9045L411.835 91.4695L373.001 94.7245Z" fill="#1A1C32"/>
<path fill-rule="evenodd" clip-rule="evenodd" d="M374.729 93.5758L378.56 85.2418L405.894 81.9758L410.199 90.6028L374.729 93.5758Z" fill="white"/>
<path fill-rule="evenodd" clip-rule="evenodd" d="M379.235 86.1687L376.353 92.4367L408.645 89.7307L405.314 83.0527L379.235 86.1687ZM373.105 94.7157L377.885 84.3147L406.474 80.8997L411.751 91.4767L373.105 94.7157Z" fill="#1A1C32"/>
<path fill-rule="evenodd" clip-rule="evenodd" d="M352.23 207.833C352.23 207.833 373.332 214.505 393.221 214.521C406.582 214.532 427.334 212.864 427.334 212.864C430.439 199.25 429.638 138.056 428.946 129.007C427.234 106.641 419.966 88.2767 404.672 89.6307C396.208 90.3797 382.023 91.4137 371.213 92.7687C360.067 94.1647 353.058 102.639 352.715 113.023L361.808 134.658L352.23 207.833Z" fill="#3AA193"/>
<path fill-rule="evenodd" clip-rule="evenodd" d="M387.331 127.985L373.285 164.258L342.113 149.226L353.858 106.578L387.331 127.985Z" fill="#3AA193"/>
<path fill-rule="evenodd" clip-rule="evenodd" d="M333.672 182.627L293.826 223.26C287.723 219.568 283.61 215.32 277.463 215.196C262.569 214.896 256.085 232.619 256.085 232.619L264.711 232.586L281.94 232.454H305.101C305.101 232.454 346.053 201.241 349.204 198.181C352.356 195.12 360.644 178.527 369.008 162.207L343.254 148.667L333.672 182.627Z" fill="#69C9AC"/>
<path fill-rule="evenodd" clip-rule="evenodd" d="M305.708 233.249L304.495 231.659C304.904 231.347 345.435 200.447 348.509 197.463C351.199 194.85 358.422 180.718 365.407 167.051L367.667 162.632L342.789 149.552L343.721 147.782L370.349 161.782L367.187 167.961C359.483 183.035 352.83 196.054 349.901 198.898C346.743 201.965 307.382 231.974 305.708 233.249" fill="#1A1C32"/>
<path fill-rule="evenodd" clip-rule="evenodd" d="M376.133 329.561L356.687 324.742Z" fill="#1A1C32"/>
<path fill-rule="evenodd" clip-rule="evenodd" d="M375.892 330.532L356.446 325.713L356.926 323.771L376.372 328.591L375.892 330.532Z" fill="white"/>
<path fill-rule="evenodd" clip-rule="evenodd" d="M376.133 333.7L356.687 335.073Z" fill="#1A1C32"/>
<path fill-rule="evenodd" clip-rule="evenodd" d="M356.756 336.07L356.615 334.076L376.062 332.703L376.202 334.697L356.756 336.07Z" fill="white"/>
<path fill-rule="evenodd" clip-rule="evenodd" d="M422.137 332.308L408.869 330.921Z" fill="#1A1C32"/>
<path fill-rule="evenodd" clip-rule="evenodd" d="M422.033 333.302L408.766 331.915L408.973 329.927L422.24 331.314L422.033 333.302Z" fill="white"/>
<path fill-rule="evenodd" clip-rule="evenodd" d="M422.137 336.446L402.69 337.82Z" fill="#1A1C32"/>
<path fill-rule="evenodd" clip-rule="evenodd" d="M402.76 338.817L402.619 336.823L422.066 335.449L422.206 337.443L402.76 338.817Z" fill="white"/>
<path fill-rule="evenodd" clip-rule="evenodd" d="M373.8 165.648L355.333 156.147L356.247 154.368L372.769 162.869L387.917 125.45L389.771 126.2L373.8 165.648Z" fill="#1A1C32"/>
<path fill-rule="evenodd" clip-rule="evenodd" d="M349.819 241.546L347.833 241.31L354.081 188.874L356.067 189.11L349.819 241.546Z" fill="#1A1C32"/>
<path fill-rule="evenodd" clip-rule="evenodd" d="M351.496 219.031C351.027 220.227 401.653 230.494 429.754 220.689L427.722 207.602L352.964 206.438L351.496 219.031Z" fill="white"/>
<path fill-rule="evenodd" clip-rule="evenodd" d="M352.562 218.51C357.812 220.373 402.299 228.73 428.636 220.013L426.863 208.589L353.851 207.452L352.562 218.51ZM398.578 225.894C392.22 225.894 386.088 225.538 380.761 225.067C366.366 223.794 352.018 221.065 350.804 219.805L350.36 219.343L350.509 218.846L352.074 205.425L428.58 206.616L430.87 221.36L430.083 221.634C420.814 224.867 409.37 225.894 398.578 225.894V225.894Z" fill="#1A1C32"/>
<path fill-rule="evenodd" clip-rule="evenodd" d="M361.906 221.826L366.915 212.208L370.915 224.529L361.906 221.826Z" fill="#1A1C32"/>
<path fill-rule="evenodd" clip-rule="evenodd" d="M210.61 152.694H321.766V58.8469H210.61V152.694ZM208.61 154.694H323.766V56.8469H208.61V154.694Z" fill="#69C9AC"/>
<path fill-rule="evenodd" clip-rule="evenodd" d="M209.61 68.509H322.766V66.509H209.61V68.509Z" fill="#69C9AC"/>
<path fill-rule="evenodd" clip-rule="evenodd" d="M215.736 62.6014C215.736 63.3744 215.109 64.0014 214.336 64.0014C213.562 64.0014 212.935 63.3744 212.935 62.6014C212.935 61.8294 213.562 61.2024 214.336 61.2024C215.109 61.2024 215.736 61.8294 215.736 62.6014" fill="#69C9AC"/>
<path fill-rule="evenodd" clip-rule="evenodd" d="M219.724 62.6014C219.724 63.3744 219.097 64.0014 218.324 64.0014C217.55 64.0014 216.924 63.3744 216.924 62.6014C216.924 61.8294 217.55 61.2024 218.324 61.2024C219.097 61.2024 219.724 61.8294 219.724 62.6014" fill="#69C9AC"/>
<path fill-rule="evenodd" clip-rule="evenodd" d="M199.315 81.6355H139.555V15.8145H234.695V48.6025H232.695V17.8145H141.555V79.6355H199.315V81.6355Z" fill="#69C9AC"/>
<path fill-rule="evenodd" clip-rule="evenodd" d="M140.555 27.4761H233.695V25.4761H140.555V27.4761Z" fill="#69C9AC"/>
<path fill-rule="evenodd" clip-rule="evenodd" d="M146.68 21.5692C146.68 22.3422 146.053 22.9692 145.28 22.9692C144.507 22.9692 143.88 22.3422 143.88 21.5692C143.88 20.7962 144.507 20.1692 145.28 20.1692C146.053 20.1692 146.68 20.7962 146.68 21.5692" fill="#69C9AC"/>
<path fill-rule="evenodd" clip-rule="evenodd" d="M150.669 21.5692C150.669 22.3422 150.042 22.9692 149.269 22.9692C148.495 22.9692 147.868 22.3422 147.868 21.5692C147.868 20.7962 148.495 20.1692 149.269 20.1692C150.042 20.1692 150.669 20.7962 150.669 21.5692" fill="#69C9AC"/>
<path fill-rule="evenodd" clip-rule="evenodd" d="M241.641 94.0691H307.765V92.0691H241.641V94.0691Z" fill="#69C9AC"/>
<path fill-rule="evenodd" clip-rule="evenodd" d="M218.861 130.138H222.905V128.138H218.861V130.138Z" fill="#69C9AC"/>
<path fill-rule="evenodd" clip-rule="evenodd" d="M218.861 137.325H222.905V135.325H218.861V137.325Z" fill="#69C9AC"/>
<path fill-rule="evenodd" clip-rule="evenodd" d="M218.861 144.511H222.905V142.511H218.861V144.511Z" fill="#69C9AC"/>
<path fill-rule="evenodd" clip-rule="evenodd" d="M226.579 130.138H281.695V128.138H226.579V130.138Z" fill="#69C9AC"/>
<path fill-rule="evenodd" clip-rule="evenodd" d="M226.579 137.325H273.977V135.325H226.579V137.325Z" fill="#69C9AC"/>
<path fill-rule="evenodd" clip-rule="evenodd" d="M226.579 144.511H281.695V142.511H226.579V144.511Z" fill="#69C9AC"/>
<path fill-rule="evenodd" clip-rule="evenodd" d="M218.861 79.697H222.905V77.697H218.861V79.697Z" fill="#69C9AC"/>
<path fill-rule="evenodd" clip-rule="evenodd" d="M218.861 86.8831H222.905V84.8831H218.861V86.8831Z" fill="#69C9AC"/>
<path fill-rule="evenodd" clip-rule="evenodd" d="M218.861 94.0691H222.905V92.0691H218.861V94.0691Z" fill="#69C9AC"/>
<path fill-rule="evenodd" clip-rule="evenodd" d="M218.861 101.256H222.905V99.2561H218.861V101.256Z" fill="#69C9AC"/>
<path fill-rule="evenodd" clip-rule="evenodd" d="M218.861 108.442H222.905V106.442H218.861V108.442Z" fill="#69C9AC"/>
<path fill-rule="evenodd" clip-rule="evenodd" d="M226.579 79.697H297.708V77.697H226.579V79.697Z" fill="#69C9AC"/>
<path fill-rule="evenodd" clip-rule="evenodd" d="M233.585 86.8831H289.99V84.8831H233.585V86.8831Z" fill="#69C9AC"/>
<path fill-rule="evenodd" clip-rule="evenodd" d="M233.584 101.256H295.392V99.2561H233.584V101.256Z" fill="#69C9AC"/>
<path fill-rule="evenodd" clip-rule="evenodd" d="M226.579 108.442H297.708V106.442H226.579V108.442Z" fill="#69C9AC"/>
<path fill-rule="evenodd" clip-rule="evenodd" d="M151.807 38.6641H155.851V36.6641H151.807V38.6641Z" fill="#69C9AC"/>
<path fill-rule="evenodd" clip-rule="evenodd" d="M151.807 45.8501H155.851V43.8501H151.807V45.8501Z" fill="#69C9AC"/>
<path fill-rule="evenodd" clip-rule="evenodd" d="M151.807 53.0371H155.851V51.0371H151.807V53.0371Z" fill="#69C9AC"/>
<path fill-rule="evenodd" clip-rule="evenodd" d="M151.807 60.2219H155.851V58.2219H151.807V60.2219Z" fill="#69C9AC"/>
<path fill-rule="evenodd" clip-rule="evenodd" d="M151.807 67.4089H155.851V65.4089H151.807V67.4089Z" fill="#69C9AC"/>
<path fill-rule="evenodd" clip-rule="evenodd" d="M159.525 38.6641H221.647V36.6641H159.525V38.6641Z" fill="#69C9AC"/>
<path fill-rule="evenodd" clip-rule="evenodd" d="M166.531 45.8501H221.647V43.8501H166.531V45.8501Z" fill="#69C9AC"/>
<path fill-rule="evenodd" clip-rule="evenodd" d="M171.535 53.0371H199.315V51.0371H171.535V53.0371Z" fill="#69C9AC"/>
<path fill-rule="evenodd" clip-rule="evenodd" d="M166.531 60.2219H199.315V58.2219H166.531V60.2219Z" fill="#69C9AC"/>
<path fill-rule="evenodd" clip-rule="evenodd" d="M159.525 67.4089H199.315V65.4089H159.525V67.4089Z" fill="#69C9AC"/>
<path fill-rule="evenodd" clip-rule="evenodd" d="M209.873 119.913H322.766V117.913H209.873V119.913Z" fill="#69C9AC"/>
<path fill-rule="evenodd" clip-rule="evenodd" d="M202.543 429.667C203.145 429.998 203.736 430.334 204.326 430.671L202.965 433.919L197.931 445.921C196.814 445.35 195.696 444.763 194.577 444.147C189.791 441.514 185.366 438.678 181.345 435.833C165.797 424.832 156.384 413.703 156.384 413.703C156.384 413.703 179.25 416.853 202.543 429.667" fill="#1A1C32"/>
<path fill-rule="evenodd" clip-rule="evenodd" d="M218.319 381.493C217.09 387.951 215.375 394.946 212.975 402.097C206.244 422.169 195.973 438.028 190.64 445.471C190.632 445.518 190.628 445.544 190.628 445.544C190.628 445.544 210.723 429.431 225.693 403.818C240.662 378.204 244.836 352.787 244.836 352.787C244.836 352.787 231.401 363.562 218.319 381.493" fill="#69C9AC"/>
<path fill-rule="evenodd" clip-rule="evenodd" d="M208.807 426.998L213.811 414.553L224.831 418.394L219.78 429.682L208.807 426.998Z" fill="#1A1C32"/>
<path fill-rule="evenodd" clip-rule="evenodd" d="M218.319 381.493C215.401 385.491 212.501 389.842 209.771 394.513C195.265 419.334 190.897 443.97 190.64 445.471C195.973 438.028 206.244 422.169 212.975 402.097C215.375 394.946 217.09 387.951 218.319 381.493" fill="#1A1C32"/>
<path fill-rule="evenodd" clip-rule="evenodd" d="M195.036 416.924V428.493C185.598 421.172 179.519 400.75 177.156 391.424C167.099 379.619 158.602 372.804 158.602 372.804C158.602 372.804 162.776 398.221 177.745 423.834C192.715 449.448 212.81 465.56 212.81 465.56C212.81 465.56 208.892 441.703 195.036 416.924" fill="#69C9AC"/>
<path fill-rule="evenodd" clip-rule="evenodd" d="M195.036 428.493V416.924C194.591 416.126 194.135 415.327 193.668 414.529C188.431 405.568 182.568 397.775 177.156 391.424C179.519 400.75 185.598 421.172 195.036 428.493" fill="#1A1C32"/>
<path fill-rule="evenodd" clip-rule="evenodd" d="M208.383 384.794C207.889 421.228 196.163 450.609 196.163 450.609C196.163 450.609 185.24 420.92 185.735 384.486C186.23 348.052 197.954 318.67 197.954 318.67C197.954 318.67 208.877 348.359 208.383 384.794" fill="#69C9AC"/>
<path fill-rule="evenodd" clip-rule="evenodd" d="M231.358 425.48H165.932C162.255 425.48 159.275 428.46 159.275 432.137C159.275 435.813 162.255 438.794 165.932 438.794H166.813L176.066 488.032H221.224L230.477 438.794H231.358C235.035 438.794 238.015 435.813 238.015 432.137C238.015 428.46 235.035 425.48 231.358 425.48" fill="white"/>
<path fill-rule="evenodd" clip-rule="evenodd" d="M168.741 444.88L167.027 437.758L231.534 438.759L168.741 444.88Z" fill="#1A1C32"/>
<path fill-rule="evenodd" clip-rule="evenodd" d="M165.494 439.798H230.768V437.798H165.494V439.798Z" fill="#1A1C32"/>
<path fill-rule="evenodd" clip-rule="evenodd" d="M176.895 487.032H220.395L229.648 437.795H231.358C234.477 437.795 237.015 435.257 237.015 432.137C237.015 429.018 234.477 426.48 231.358 426.48H165.932C162.813 426.48 160.275 429.018 160.275 432.137C160.275 435.257 162.813 437.795 165.932 437.795H167.642L176.895 487.032ZM222.053 489.032H175.237L165.984 439.795H165.932C161.709 439.795 158.275 436.36 158.275 432.137C158.275 427.915 161.709 424.48 165.932 424.48H231.358C235.581 424.48 239.015 427.915 239.015 432.137C239.015 436.36 235.581 439.795 231.358 439.795H231.306L222.053 489.032Z" fill="#1A1C32"/>
<path fill-rule="evenodd" clip-rule="evenodd" d="M230.576 414.383C230.415 413.715 230.246 413.056 230.077 412.399L226.585 412.857L213.68 414.553C213.938 415.779 214.21 417.012 214.509 418.254C215.789 423.565 217.359 428.58 219.045 433.208C225.562 451.106 233.819 463.117 233.819 463.117C233.819 463.117 236.804 440.229 230.576 414.383" fill="#69C9AC"/>
<path fill-rule="evenodd" clip-rule="evenodd" d="M97.0826 83.6591L89.9636 75.4521L97.0826 67.2451L98.5946 68.5551L92.6116 75.4521L98.5946 82.3481L97.0826 83.6591Z" fill="#69C9AC"/>
<path fill-rule="evenodd" clip-rule="evenodd" d="M117.471 83.6591L115.959 82.3481L121.942 75.4521L115.959 68.5551L117.471 67.2451L124.59 75.4521L117.471 83.6591Z" fill="#69C9AC"/>
<path fill-rule="evenodd" clip-rule="evenodd" d="M101.802 89.114L100.001 88.245L112.751 61.791L114.552 62.66L101.802 89.114Z" fill="#69C9AC"/>
<path fill-rule="evenodd" clip-rule="evenodd" d="M227.079 233.603H338.662V231.603H227.079V233.603Z" fill="#1A1C32"/>
<path fill-rule="evenodd" clip-rule="evenodd" d="M263.064 232.61L267.705 227.838C268.79 226.721 270.496 226.489 271.839 227.274L280.676 232.437L263.064 232.61Z" fill="#1A1C32"/>
<path fill-rule="evenodd" clip-rule="evenodd" d="M78.277 186.706H81.109V107.873H78.277V186.706Z" fill="#1A1C32"/>
</g>
</svg>
