<?xml version="1.0" encoding="UTF-8"?>
<svg width="443px" height="469px" viewBox="0 0 443 469" version="1.1" xmlns="http://www.w3.org/2000/svg" xmlns:xlink="http://www.w3.org/1999/xlink">
    <!-- Generator: Sketch 52.4 (67378) - http://www.bohemiancoding.com/sketch -->
    <title>Illustration/Services/Strategy</title>
    <desc>Created with Sketch.</desc>
    <defs>
        <polygon id="path-1" points="0 468.286 442.556 468.286 442.556 0 0 0"></polygon>
    </defs>
    <g id="Illustration/Services/Strategy" stroke="none" stroke-width="1" fill="none" fill-rule="evenodd">
        <g>
            <path d="M271.9718,161.9396 L268.3198,167.3996 L263.0968,165.8476 L258.1178,173.9406 C258.1178,173.9406 245.2988,174.0436 238.5738,174.2036 C227.8348,174.4576 225.2418,193.2726 225.2418,193.2726 L233.9948,198.6506 L235.8868,194.5826 L238.2008,189.9776 L271.2758,189.5326 L281.6118,166.1266 L271.9718,161.9396 Z" id="Fill-1" fill="#C28AD4"></path>
            <path d="M289.214,404.3341 C289.214,404.3341 280.432,383.5141 296.075,362.7051 C307.426,347.6071 322.451,346.3791 321.71,326.8311 C321.71,326.8311 335.335,336.7581 329.288,354.1101 C324.465,367.9511 308.672,370.5001 301.683,377.3971 C291.473,387.4761 296.869,403.6971 296.869,403.6971 L289.214,404.3341 Z" id="Fill-3" fill="#992BB7"></path>
            <path d="M293.9444,422.795 C293.9444,422.795 294.6714,401.883 280.7584,385.268 C268.6334,370.785 254.7734,380.363 251.1734,357.06 C251.1734,357.06 240.5494,368.088 251.5324,381.235 C258.0524,389.04 269.2774,385.845 276.8714,392.07 C287.2564,400.584 282.2474,424.446 282.2474,424.446 L293.9444,422.795 Z" id="Fill-5" fill="#992BB7"></path>
            <path d="M291.505,399.2687 C291.505,399.2687 302.952,378.7807 318.346,375.3327 C328.948,372.9577 331.609,378.3467 341.663,375.3477 C341.663,375.3477 338.184,391.5767 320.894,389.3157 C298.616,386.4027 296.869,403.6977 296.869,403.6977 L291.505,399.2687 Z" id="Fill-7" fill="#992BB7"></path>
            <path d="M286.7579,383.4044 C286.7579,383.4044 281.1729,351.9844 289.7879,337.0804 C295.7229,326.8124 302.1959,328.8484 307.1989,318.5374 C307.1989,318.5374 318.1179,333.8134 303.3329,345.8294 C284.2849,361.3084 293.8519,378.4804 293.8519,378.4804 L286.7579,383.4044 Z" id="Fill-9" fill="#992BB7"></path>
            <path d="M289.6729,396.13 C289.6729,396.13 290.0479,369.855 279.3249,358.285 C271.9399,350.316 266.6929,353.244 260.1119,345.071 C260.1119,345.071 253.7739,360.411 269.2969,368.356 C289.2959,378.591 282.7429,396.734 282.7429,396.734 L289.6729,396.13 Z" id="Fill-11" fill="#992BB7"></path>
            <path d="M323.7179,402.3117 L256.7459,402.3117 C252.9829,402.3117 249.9319,405.3627 249.9319,409.1257 C249.9319,412.8897 252.9829,415.9407 256.7459,415.9407 L257.6479,415.9407 L267.1189,466.3407 L313.3449,466.3407 L322.8159,415.9407 L323.7179,415.9407 C327.4819,415.9407 330.5319,412.8897 330.5319,409.1257 C330.5319,405.3627 327.4819,402.3117 323.7179,402.3117" id="Fill-13" fill="#FFFFFF"></path>
            <polygon id="Fill-15" fill="#A2A4BD" points="259.6202 422.17 257.8662 414.879 323.8962 415.903"></polygon>
            <mask id="mask-2" fill="white">
                <use xlink:href="#path-1"></use>
            </mask>
            <g id="Clip-18"></g>
            <polygon id="Fill-17" fill="#A2A4BD" mask="url(#mask-2)" points="256.297 416.943 323.113 416.943 323.113 414.943 256.297 414.943"></polygon>
            <path d="M267.9483,465.3409 L312.5143,465.3409 L321.9853,414.9409 L323.7183,414.9409 C326.9243,414.9409 329.5323,412.3319 329.5323,409.1259 C329.5323,405.9199 326.9243,403.3119 323.7183,403.3119 L256.7463,403.3119 C253.5403,403.3119 250.9313,405.9199 250.9313,409.1259 C250.9313,412.3319 253.5403,414.9409 256.7463,414.9409 L258.4763,414.9409 L267.9483,465.3409 Z M314.1753,467.3409 L266.2903,467.3409 L256.8183,416.9409 L256.7463,416.9409 C252.4373,416.9409 248.9313,413.4349 248.9313,409.1259 C248.9313,404.8179 252.4373,401.3119 256.7463,401.3119 L323.7183,401.3119 C328.0263,401.3119 331.5323,404.8179 331.5323,409.1259 C331.5323,413.4349 328.0263,416.9409 323.7183,416.9409 L323.6453,416.9409 L314.1753,467.3409 Z" id="Fill-19" fill="#A2A4BD" mask="url(#mask-2)"></path>
            <path d="M273.9063,260.8693 C273.9063,260.8693 264.4333,237.4043 250.6013,238.1763 C244.8933,238.4943 232.4823,246.7443 226.9303,250.6293 L213.9753,247.2923 L215.0343,260.8693 L273.9063,260.8693 Z" id="Fill-20" fill="#C28AD4" mask="url(#mask-2)"></path>
            <path d="M267.0948,260.5929 C267.0368,260.5019 261.3028,251.4459 256.6618,247.0859 L258.0318,245.6289 C262.8598,250.1629 268.5468,259.1459 268.7858,259.5269 L267.0948,260.5929 Z" id="Fill-21" fill="#FFFFFF" mask="url(#mask-2)"></path>
            <path d="M259.3009,260.8488 C259.2529,260.7848 254.4889,254.4248 251.3669,250.7638 L252.8889,249.4668 C256.0519,253.1748 260.8549,259.5858 260.9029,259.6498 L259.3009,260.8488 Z" id="Fill-22" fill="#FFFFFF" mask="url(#mask-2)"></path>
            <path d="M250.6876,261.0558 C250.6646,261.0248 248.3186,257.8938 245.8586,254.7798 L247.4266,253.5388 C249.9046,256.6738 252.2656,259.8258 252.2896,259.8568 L250.6876,261.0558 Z" id="Fill-23" fill="#FFFFFF" mask="url(#mask-2)"></path>
            <path d="M95.1495,224.713 L109.9335,333.292 C110.1695,335.023 111.6475,336.314 113.3945,336.314 L148.3645,336.314 C153.5925,336.314 157.9675,340.598 157.6895,345.818 C157.4275,350.725 153.4015,354.428 148.6415,354.428 L26.0455,354.428 C21.6775,354.428 17.9815,351.201 17.3925,346.873 L1.0805,227.069 C0.3665,221.826 4.4415,217.158 9.7325,217.158 L86.4965,217.158 C90.8645,217.158 94.5595,220.385 95.1495,224.713" id="Fill-24" fill="#FFFFFF" mask="url(#mask-2)"></path>
            <polygon id="Fill-25" fill="#FFFFFF" mask="url(#mask-2)" points="123.7208 468.2863 133.4308 468.2863 142.1708 354.4283 123.7208 354.4283"></polygon>
            <path d="M9.7325,218.1574 C7.4995,218.1574 5.3775,219.1224 3.9085,220.8034 C2.4395,222.4864 1.7695,224.7204 2.0715,226.9334 L18.3835,346.7384 C18.9025,350.5524 22.1965,353.4284 26.0445,353.4284 L148.6415,353.4284 C152.9255,353.4284 156.4615,350.0614 156.6905,345.7644 C156.8055,343.6154 156.0345,341.5524 154.5185,339.9534 C152.9275,338.2754 150.6845,337.3134 148.3645,337.3134 L113.3945,337.3134 C111.1585,337.3134 109.2445,335.6424 108.9425,333.4264 L94.1585,224.8464 C93.6385,221.0334 90.3445,218.1574 86.4965,218.1574 L9.7325,218.1574 Z M148.6415,355.4284 L26.0445,355.4284 C21.2005,355.4284 17.0545,351.8074 16.4015,347.0084 L0.0885,227.2034 C-0.2895,224.4184 0.5525,221.6064 2.4015,219.4884 C4.2505,217.3714 6.9215,216.1574 9.7325,216.1574 L86.4965,216.1574 C91.3395,216.1574 95.4865,219.7774 96.1405,224.5774 L110.9245,333.1564 C111.0915,334.3864 112.1535,335.3134 113.3945,335.3134 L148.3645,335.3134 C151.2315,335.3134 154.0035,336.5034 155.9695,338.5774 C157.8675,340.5784 158.8325,343.1684 158.6885,345.8724 C158.4025,351.2304 153.9895,355.4284 148.6415,355.4284 Z" id="Fill-26" fill="#A2A4BD" mask="url(#mask-2)"></path>
            <path d="M114.9142,337.3136 L36.6302,337.3136 C34.3932,337.3136 32.4792,335.6426 32.1782,333.4256 L16.3042,217.2926 L18.2862,217.0216 L34.1602,333.1556 C34.3272,334.3856 35.3892,335.3136 36.6302,335.3136 L114.9142,335.3136 L114.9142,337.3136 Z" id="Fill-27" fill="#A2A4BD" mask="url(#mask-2)"></path>
            <path d="M124.7208,465.3536 L132.5058,465.3536 L141.0898,355.4276 L124.7208,355.4276 L124.7208,465.3536 Z M134.3558,467.3536 L122.7208,467.3536 L122.7208,353.4276 L143.2518,353.4276 L134.3558,467.3536 Z" id="Fill-28" fill="#A2A4BD" mask="url(#mask-2)"></path>
            <polygon id="Fill-29" fill="#FFFFFF" mask="url(#mask-2)" points="48.297 466.3536 38.587 466.3536 29.847 354.4276 48.297 354.4276"></polygon>
            <path d="M39.5118,465.3536 L47.2968,465.3536 L47.2968,355.4276 L30.9278,355.4276 L39.5118,465.3536 Z M49.2968,467.3536 L37.6618,467.3536 L28.7658,353.4276 L49.2968,353.4276 L49.2968,467.3536 Z" id="Fill-30" fill="#A2A4BD" mask="url(#mask-2)"></path>
            <polygon id="Fill-31" fill="#A2A4BD" mask="url(#mask-2)" points="49.1866 358.3624 31.0556 363.4854 29.8466 354.4274 49.1866 354.4274"></polygon>
            <polygon id="Fill-32" fill="#A2A4BD" mask="url(#mask-2)" points="123.7208 363.4855 141.8518 359.3875 143.0598 354.4275 123.7208 354.4275"></polygon>
            <path d="M158.6524,284.1154 C158.6524,284.1154 135.9674,292.0554 115.6074,292.0734 C101.8544,292.0844 97.2814,290.1874 78.5174,285.1174 C78.5174,285.1174 77.6064,223.2704 79.0404,204.5374 C80.7924,181.6434 88.2314,159.7724 103.8864,161.1584 C112.5514,161.9254 127.0714,162.9844 138.1354,164.3704 C149.5464,165.8004 156.7194,174.4734 157.0714,185.1034 L162.7164,212.8624 L158.6524,284.1154 Z" id="Fill-33" fill="#992BB7" mask="url(#mask-2)"></path>
            <polygon id="Fill-34" fill="#992BB7" mask="url(#mask-2)" points="128.9513 161.0958 131.8593 155.7188 150.2563 159.5568 146.9133 173.1978"></polygon>
            <path d="M23.905,273.971 L398.468,273.971 L398.468,261.869 L23.905,261.869 L23.905,273.971 Z M21.906,275.971 L400.469,275.971 L400.469,259.869 L21.906,259.869 L21.906,275.971 Z" id="Fill-35" fill="#A2A4BD" mask="url(#mask-2)"></path>
            <path d="M47.7911,465.3536 L57.1501,465.3536 L57.1501,276.1886 L39.8541,276.1886 L47.7911,465.3536 Z M59.1501,467.3536 L45.8731,467.3536 L37.7691,274.1886 L59.1501,274.1886 L59.1501,467.3536 Z" id="Fill-36" fill="#A2A4BD" mask="url(#mask-2)"></path>
            <path d="M365.2237,465.3536 L374.5827,465.3536 L382.5207,276.1886 L365.2237,276.1886 L365.2237,465.3536 Z M376.5007,467.3536 L363.2237,467.3536 L363.2237,274.1886 L384.6067,274.1886 L376.5007,467.3536 Z" id="Fill-37" fill="#A2A4BD" mask="url(#mask-2)"></path>
            <polygon id="Fill-38" fill="#FFFFFF" mask="url(#mask-2)" points="58.1505 466.3536 46.8325 466.3536 38.8115 275.1886 58.1505 275.1886"></polygon>
            <path d="M47.7911,465.3536 L57.1501,465.3536 L57.1501,276.1886 L39.8541,276.1886 L47.7911,465.3536 Z M59.1501,467.3536 L45.8731,467.3536 L37.7691,274.1886 L59.1501,274.1886 L59.1501,467.3536 Z" id="Fill-39" fill="#A2A4BD" mask="url(#mask-2)"></path>
            <polygon id="Fill-40" fill="#FFFFFF" mask="url(#mask-2)" points="364.2237 466.3536 375.5417 466.3536 383.5637 275.1886 364.2237 275.1886"></polygon>
            <path d="M365.2237,465.3536 L374.5827,465.3536 L382.5207,276.1886 L365.2237,276.1886 L365.2237,465.3536 Z M376.5007,467.3536 L363.2237,467.3536 L363.2237,274.1886 L384.6067,274.1886 L376.5007,467.3536 Z" id="Fill-41" fill="#A2A4BD" mask="url(#mask-2)"></path>
            <polygon id="Fill-42" fill="#A2A4BD" mask="url(#mask-2)" points="58.1505 279.424 39.2255 284.546 38.8115 275.489 58.1505 275.489"></polygon>
            <polygon id="Fill-43" fill="#A2A4BD" mask="url(#mask-2)" points="383.5636 280.4484 364.6386 284.5464 364.2236 275.4894 383.5636 275.4894"></polygon>
            <path d="M215.9356,445.6163 L216.7176,466.4813 L273.0186,466.4813 C273.0186,459.1503 268.5926,457.5043 261.9666,455.0473 L231.5946,447.5123 L215.9356,445.6163 Z" id="Fill-44" fill="#992BB7" mask="url(#mask-2)"></path>
            <polygon id="Fill-45" fill="#FFFFFF" mask="url(#mask-2)" points="216.7911 461.2365 271.2191 461.2365 271.9051 465.7105 216.7911 465.7105"></polygon>
            <path d="M217.6808,465.4816 L271.9868,465.4816 C271.6038,459.7016 267.7868,458.2706 261.6708,456.0036 L230.1828,448.1456 L218.1448,446.6686 L218.1408,446.6686 C217.9068,446.6686 217.5968,446.7946 217.3648,447.0286 C217.1318,447.2646 217.0098,447.5776 217.0228,447.9086 L217.0228,447.9096 L217.6808,465.4816 Z M274.0188,467.4816 L215.7548,467.4816 L215.0248,447.9836 L215.0248,447.9846 C214.9918,447.1076 215.3258,446.2476 215.9418,445.6236 C216.5578,444.9986 217.4028,444.6576 218.2918,444.6756 L230.6078,446.1896 L262.3148,454.1096 C268.8538,456.5336 274.0188,458.4476 274.0188,466.4816 L274.0188,467.4816 Z" id="Fill-46" fill="#1A1C32" mask="url(#mask-2)"></path>
            <polygon id="Fill-47" fill="#1A1C32" mask="url(#mask-2)" points="243.7237 454.6583 241.8957 453.8463 245.1567 446.5083 246.9847 447.3203"></polygon>
            <polygon id="Fill-48" fill="#1A1C32" mask="url(#mask-2)" points="248.6153 456.2892 246.7873 455.4772 250.0483 448.1392 251.8763 448.9512"></polygon>
            <path d="M216.044,448.1818 C221.617,450.8678 227.553,450.7538 233.126,448.0688 L233.937,431.8228 L215.936,436.3868 L216.044,448.1818 Z" id="Fill-49" fill="#FFFFFF" mask="url(#mask-2)"></path>
            <path d="M217.0382,447.5392 C221.9312,449.7192 227.1342,449.6742 232.1572,447.4152 L232.8702,433.1242 L216.9422,437.1622 L217.0382,447.5392 Z M224.4052,451.1482 C221.4272,451.1482 218.4682,450.4592 215.6092,449.0812 L215.0502,448.8112 L214.9292,435.6092 L235.0032,430.5202 L234.0952,448.7102 L233.5602,448.9682 C230.5462,450.4212 227.4652,451.1482 224.4052,451.1482 Z" id="Fill-50" fill="#1A1C32" mask="url(#mask-2)"></path>
            <path d="M132.9308,445.6163 L133.7128,466.4813 L190.0138,466.4813 C190.0138,459.1503 185.5878,457.5043 178.9618,455.0473 L148.5898,447.5123 L132.9308,445.6163 Z" id="Fill-51" fill="#992BB7" mask="url(#mask-2)"></path>
            <polygon id="Fill-52" fill="#FFFFFF" mask="url(#mask-2)" points="133.5743 461.0695 189.2883 461.0695 189.9913 465.6495 133.5743 465.6495"></polygon>
            <path d="M134.6759,465.4816 L188.9819,465.4816 C188.5989,459.7016 184.7819,458.2706 178.6659,456.0036 L147.1789,448.1456 L135.1409,446.6686 L135.1369,446.6686 C134.9019,446.6686 134.5919,446.7946 134.3599,447.0286 C134.1269,447.2646 134.0049,447.5776 134.0179,447.9086 L134.0179,447.9096 L134.6759,465.4816 Z M191.0139,467.4816 L132.7499,467.4816 L132.0199,447.9836 L132.0199,447.9846 C131.9869,447.1076 132.3209,446.2476 132.9369,445.6236 C133.5539,445.0006 134.4159,444.6696 135.2879,444.6756 L147.6039,446.1896 L179.3099,454.1096 C185.8489,456.5336 191.0139,458.4476 191.0139,466.4816 L191.0139,467.4816 Z" id="Fill-53" fill="#1A1C32" mask="url(#mask-2)"></path>
            <polygon id="Fill-54" fill="#1A1C32" mask="url(#mask-2)" points="160.7188 454.6583 158.8908 453.8463 162.1518 446.5083 163.9798 447.3203"></polygon>
            <polygon id="Fill-55" fill="#1A1C32" mask="url(#mask-2)" points="165.6104 456.2892 163.7824 455.4772 167.0434 448.1392 168.8714 448.9512"></polygon>
            <path d="M133.0392,448.1818 C138.6132,450.8678 144.5482,450.7538 150.1222,448.0688 L150.9322,431.8228 L132.9312,436.3868 L133.0392,448.1818 Z" id="Fill-56" fill="#FFFFFF" mask="url(#mask-2)"></path>
            <path d="M134.0333,447.5392 C138.9253,449.7142 144.1283,449.6732 149.1533,447.4152 L149.8653,433.1242 L133.9373,437.1622 L134.0333,447.5392 Z M141.4013,451.1472 C138.4223,451.1472 135.4643,450.4592 132.6043,449.0812 L132.0453,448.8112 L131.9243,435.6092 L151.9983,430.5202 L151.0913,448.7102 L150.5563,448.9682 C147.5423,450.4212 144.4613,451.1472 141.4013,451.1472 Z" id="Fill-57" fill="#1A1C32" mask="url(#mask-2)"></path>
            <polygon id="Fill-58" fill="#992BB7" mask="url(#mask-2)" points="153.2462 173.1974 187.0422 233.5784 224.4042 190.4534 237.1992 193.5934 208.0262 260.8694 162.7172 258.4634 139.4752 213.6234"></polygon>
            <path d="M219.337,301.4269 L158.652,284.1149 L121.759,284.1149 L117.464,284.1149 L78.564,284.1149 C78.564,284.1149 75.612,336.3139 95.816,336.3139 L143.829,336.3139 L127.273,440.9819 L154.33,440.9819 L184.053,335.0509 C184.247,334.2479 184.391,333.4419 184.512,332.6349 L184.836,332.7139 L214.105,441.9829 L237.474,441.9829 L225.833,309.2949 C225.507,305.5789 222.923,302.4489 219.337,301.4269" id="Fill-59" fill="#1A1C32" mask="url(#mask-2)"></path>
            <polyline id="Fill-60" fill="#992BB7" mask="url(#mask-2)" points="108.7374 194.7306 146.9134 237.8516 218.2704 247.8046 218.2704 259.8446 117.9484 259.8446 90.3094 239.1426"></polyline>
            <polygon id="Fill-61" fill="#FFFFFF" mask="url(#mask-2)" points="11.927 274.971 410.448 274.971 410.448 260.869 11.927 260.869"></polygon>
            <path d="M12.927,273.971 L409.448,273.971 L409.448,261.869 L12.927,261.869 L12.927,273.971 Z M10.927,275.971 L411.448,275.971 L411.448,259.869 L10.927,259.869 L10.927,275.971 Z" id="Fill-62" fill="#A2A4BD" mask="url(#mask-2)"></path>
            <path d="M147.8985,92.587 C147.8985,92.587 158.8925,95.674 164.9445,79.901 C164.9445,79.901 151.9625,81.568 145.7945,80.333 C139.6255,79.097 147.8985,92.587 147.8985,92.587" id="Fill-63" fill="#1A1C32" mask="url(#mask-2)"></path>
            <path d="M165.964,127.046 L161.212,113.078 L161.394,96.086 L114.783,88.807 L112.55,109.386 C108.307,111.018 105.276,115.268 105.276,120.27 C105.276,124.339 107.282,127.914 110.315,129.986 L106.747,164.967 C111.541,169.622 121.604,171.022 128.359,171.422 C132.038,171.64 135.149,168.732 135.211,165.046 L135.558,147.733 C135.558,147.733 143.865,155.563 148.231,151.19 C149.747,149.669 152.164,145.825 154.192,142.354 C147.541,141.782 145.274,135.158 146.035,131.942 L157.397,136.145 C158.131,134.233 158.739,132.075 159.241,129.775 L165.964,127.046 Z" id="Fill-64" fill="#C28AD4" mask="url(#mask-2)"></path>
            <path d="M107.7921,164.5734 C112.6491,168.8804 122.7441,170.0874 128.4171,170.4234 C129.9221,170.5044 131.3461,169.9974 132.4481,168.9754 C133.5601,167.9464 134.1861,166.5454 134.2111,165.0294 L134.6031,145.4614 L136.2431,147.0034 C136.3191,147.0754 143.9521,154.0614 147.5221,150.4824 C148.5931,149.4104 150.3721,146.8154 152.5831,143.1114 C149.7281,142.4514 147.9561,140.7544 146.9331,139.3394 C145.0191,136.6944 144.6141,133.6014 145.0631,131.7114 L145.3221,130.6114 L156.8021,134.8584 C157.3461,133.2984 157.8361,131.5214 158.2651,129.5624 L158.3771,129.0474 L164.7131,126.4744 L160.2101,113.2384 L160.3851,96.9404 L115.6641,89.9564 L113.4791,110.0994 L112.9091,110.3184 C108.9411,111.8444 106.2751,115.8434 106.2751,120.2694 C106.2751,123.8664 107.9961,127.1894 110.8791,129.1604 L111.3691,129.4954 L107.7921,164.5734 Z M128.7521,172.4324 C128.6021,172.4324 128.4511,172.4274 128.2991,172.4194 C120.8601,171.9794 110.9621,170.4544 106.0511,165.6844 L105.7031,165.3464 L109.2611,130.4594 C106.1281,128.0854 104.2751,124.3204 104.2751,120.2694 C104.2751,115.2354 107.2021,110.6604 111.6191,108.6884 L113.9021,87.6574 L162.4021,95.2314 L162.2141,112.9184 L167.2151,127.6174 L160.1041,130.5054 C159.5921,132.7544 158.9961,134.7694 158.3301,136.5034 L157.9761,137.4254 L146.8961,133.3264 C146.9161,134.7564 147.4251,136.6084 148.5531,138.1674 C149.5021,139.4794 151.2671,141.0984 154.2771,141.3574 L155.8531,141.4924 L155.0551,142.8574 C153.1881,146.0554 150.6101,150.2194 148.9381,151.8954 C145.1881,155.6534 139.3501,152.0274 136.5161,149.8414 L136.2111,165.0664 C136.1761,167.1294 135.3221,169.0394 133.8081,170.4424 C132.4131,171.7354 130.6331,172.4324 128.7521,172.4324 Z" id="Fill-65" fill="#1A1C32" mask="url(#mask-2)"></path>
            <path d="M139.0499,111.3175 L138.1599,109.5265 C138.5239,109.3455 147.1459,105.1435 153.9789,109.2295 L152.9509,110.9465 C147.0659,107.4245 139.1289,111.2795 139.0499,111.3175" id="Fill-66" fill="#1A1C32" mask="url(#mask-2)"></path>
            <path d="M149.88,117.8859 C149.477,119.7079 148.41,121.0219 147.499,120.8199 C146.588,120.6179 146.176,118.9769 146.58,117.1549 C146.984,115.3309 148.05,114.0179 148.962,114.2199 C149.873,114.4219 150.284,116.0629 149.88,117.8859" id="Fill-67" fill="#1A1C32" mask="url(#mask-2)"></path>
            <path d="M152.4454,124.2657 C153.4934,124.3117 153.9854,124.1937 154.3734,122.8667 L155.7234,118.0747 L143.5784,116.6607 L142.9804,121.7927 C142.9524,122.4067 143.1214,122.9697 143.4734,123.3567 C143.7884,123.7027 144.2444,123.8977 144.7934,123.9217 L152.4454,124.2657 Z M152.6934,126.2717 C152.5804,126.2717 152.4674,126.2687 152.3574,126.2637 L152.3564,126.2637 L144.7034,125.9197 C143.6274,125.8717 142.6654,125.4397 141.9944,124.7027 C141.2764,123.9127 140.9274,122.8507 140.9884,121.6287 L141.8224,114.4417 L158.2844,116.3597 L156.2964,123.4177 C155.5824,125.8567 154.0484,126.2717 152.6934,126.2717 Z" id="Fill-68" fill="#1A1C32" mask="url(#mask-2)"></path>
            <path d="M110.5694,121.0167 L108.6964,120.3157 C108.7284,120.2307 109.4954,118.2147 111.1114,116.5997 C112.4704,115.2407 114.0164,114.5507 115.7074,114.5507 L115.7074,116.5507 C114.5664,116.5507 113.4964,117.0427 112.5254,118.0137 C111.2124,119.3267 110.5754,120.9997 110.5694,121.0167" id="Fill-69" fill="#1A1C32" mask="url(#mask-2)"></path>
            <path d="M117.253,126.3282 L115.253,126.3122 C115.253,126.2572 115.235,120.7082 111.275,118.1462 L112.361,116.4672 C117.256,119.6342 117.255,126.0572 117.253,126.3282" id="Fill-70" fill="#1A1C32" mask="url(#mask-2)"></path>
            <path d="M120.6446,115.5509 L118.6446,115.5509 C118.6446,114.0519 117.9796,111.0479 115.4606,110.4089 C113.5916,109.9299 112.1366,110.6549 112.1236,110.6619 L111.1966,108.8899 C111.2826,108.8439 113.3086,107.7989 115.9536,108.4699 C119.1946,109.2929 120.6446,112.6189 120.6446,115.5509" id="Fill-71" fill="#1A1C32" mask="url(#mask-2)"></path>
            <path d="M115.2999,132.3878 C112.1419,132.3878 109.8899,130.9048 109.7559,130.8148 L110.8699,129.1548 C111.0259,129.2558 114.7039,131.6388 118.9959,129.4928 L119.8909,131.2828 C118.2539,132.1008 116.6899,132.3878 115.2999,132.3878" id="Fill-72" fill="#1A1C32" mask="url(#mask-2)"></path>
            <path d="M131.2852,140.0343 C131.2852,140.0343 127.9022,148.4813 134.8872,154.9013 L135.1642,145.7553 C133.7102,144.2293 132.3132,142.3443 131.2852,140.0343" id="Fill-73" fill="#1A1C32" mask="url(#mask-2)"></path>
            <polygon id="Fill-74" fill="#1A1C32" mask="url(#mask-2)" points="142.5929 116.545 119.1159 114.019 119.3309 112.03 142.8079 114.557"></polygon>
            <path d="M118.0411,110.0997 C118.0411,110.0997 125.9621,108.6027 134.3601,97.0837 C134.3601,97.0837 162.9401,106.4537 172.5401,96.6617 C168.9791,93.1897 162.3411,88.6537 158.1881,86.1827 C141.2891,76.1287 123.0261,76.0707 104.4441,84.0947 L102.2701,85.0347 L106.4281,113.0577 L112.5501,110.0447 L118.0411,110.0997 Z" id="Fill-75" fill="#1A1C32" mask="url(#mask-2)"></path>
            <path d="M134.3604,97.0841 C134.3604,97.0841 131.1654,115.3501 119.6444,120.4091 L115.6544,103.2771 L134.3604,97.0841 Z" id="Fill-76" fill="#1A1C32" mask="url(#mask-2)"></path>
            <polygon id="Fill-77" fill="#1A1C32" mask="url(#mask-2)" points="157.2794 118.6505 156.4314 116.8385 161.1244 114.6445 161.9714 116.4575"></polygon>
            <path d="M109.5479,140.0343 C109.5479,140.0343 115.4569,137.3833 116.2529,131.7443 L110.7659,130.8003 L109.5479,140.0343 Z" id="Fill-78" fill="#1A1C32" mask="url(#mask-2)"></path>
            <path d="M128.8624,126.3312 C128.8624,128.6422 130.7354,130.5142 133.0454,130.5142 C135.3544,130.5142 137.2274,128.6422 137.2274,126.3312 C137.2274,124.0212 135.3544,122.1482 133.0454,122.1482 C130.7354,122.1482 128.8624,124.0212 128.8624,126.3312" id="Fill-79" fill="#992BB7" mask="url(#mask-2)"></path>
            <polygon id="Fill-80" fill="#1A1C32" mask="url(#mask-2)" points="350.4005 261.8693 136.1255 261.8693 87.7485 232.8363 88.7775 231.1213 136.6795 259.8693 350.4005 259.8693"></polygon>
            <path d="M131.6241,177.504 C131.6241,177.504 126.4961,157.62 112.3751,154.374 C98.2541,151.128 71.2381,160.123 71.2381,160.123 L80.4861,192.813 L94.8871,173.186 L131.6241,177.504 Z" id="Fill-81" fill="#992BB7" mask="url(#mask-2)"></path>
            <path d="M219.1651,259.8536 L217.1651,259.8356 L217.2631,248.6736 L146.2861,238.7726 L146.0431,238.3436 C145.7811,237.8816 119.8261,192.1116 115.9431,185.9686 L115.3741,185.0676 C110.2741,176.9636 104.9981,168.5886 93.0701,173.3666 C83.6411,177.1446 82.6461,193.6386 82.6381,193.8056 L80.6401,193.6996 C80.6791,192.9686 81.7101,175.7636 92.3261,171.5086 C105.8041,166.1136 112.0491,176.0306 117.0671,184.0016 L117.6331,184.9006 C121.3861,190.8336 144.7231,231.9616 147.5401,236.9286 L219.2781,246.9356 L219.1651,259.8536 Z" id="Fill-82" fill="#1A1C32" mask="url(#mask-2)"></path>
            <path d="M130.8966,180.298 C127.4116,167.81 121.5906,161.323 117.3226,158.081 C112.7136,154.581 108.8706,154.002 108.8326,153.996 L109.1046,152.015 C109.7836,152.108 125.7926,154.569 132.8226,179.761 L130.8966,180.298 Z" id="Fill-83" fill="#1A1C32" mask="url(#mask-2)"></path>
            <path d="M140.0997,180.8107 L138.8517,179.2487 L139.4757,180.0297 L138.8497,179.2497 C138.9177,179.1947 145.7447,173.5527 149.2857,159.3157 L151.2267,159.7977 C147.5067,174.7527 140.4007,180.5707 140.0997,180.8107" id="Fill-84" fill="#1A1C32" mask="url(#mask-2)"></path>
            <polygon id="Fill-85" fill="#1A1C32" mask="url(#mask-2)" points="154.5118 239.2101 145.9258 186.6761 147.9008 186.3541 156.4868 238.8881"></polygon>
            <path d="M184.1808,338.5656 L189.3918,317.1526 C190.5198,312.5176 187.8348,307.8066 183.2728,306.4166 L137.3988,292.4276" id="Fill-86" fill="#1A1C32" mask="url(#mask-2)"></path>
            <path d="M185.1524,338.8009 L183.2094,338.3279 L188.4204,316.9159 C189.4224,312.7999 187.0324,308.6079 182.9804,307.3709 L137.1064,293.3839 L137.6904,291.4719 L183.5644,305.4589 C188.6294,307.0029 191.6154,312.2429 190.3634,317.3889 L185.1524,338.8009 Z" id="Fill-87" fill="#FFFFFF" mask="url(#mask-2)"></path>
            <path d="M331.8458,39.0421 L357.0818,39.0421 L362.7288,33.3961 L362.7288,8.1591 L331.8458,8.1591 L331.8458,39.0421 Z M357.9098,41.0421 L329.8458,41.0421 L329.8458,6.1591 L364.7288,6.1591 L364.7288,34.2241 L357.9098,41.0421 Z" id="Fill-88" fill="#C28AD4" mask="url(#mask-2)"></path>
            <polygon id="Fill-89" fill="#C28AD4" mask="url(#mask-2)" points="358.4962 40.0421 356.4962 40.0421 356.4962 32.8101 363.7282 32.8101 363.7282 34.8101 358.4962 34.8101"></polygon>
            <polygon id="Fill-90" fill="#C28AD4" mask="url(#mask-2)" points="336.5 16.472 358.074 16.472 358.074 14.472 336.5 14.472"></polygon>
            <polygon id="Fill-91" fill="#C28AD4" mask="url(#mask-2)" points="336.5 21.936 353.591 21.936 353.591 19.936 336.5 19.936"></polygon>
            <polygon id="Fill-92" fill="#C28AD4" mask="url(#mask-2)" points="336.5 27.401 358.074 27.401 358.074 25.401 336.5 25.401"></polygon>
            <path d="M384.0138,50.3448 L409.2498,50.3448 L414.8958,44.6988 L414.8958,19.4618 L384.0138,19.4618 L384.0138,50.3448 Z M410.0778,52.3448 L382.0138,52.3448 L382.0138,17.4618 L416.8958,17.4618 L416.8958,45.5278 L410.0778,52.3448 Z" id="Fill-93" fill="#C28AD4" mask="url(#mask-2)"></path>
            <polygon id="Fill-94" fill="#C28AD4" mask="url(#mask-2)" points="410.6642 51.3448 408.6642 51.3448 408.6642 44.1138 415.8952 44.1138 415.8952 46.1138 410.6642 46.1138"></polygon>
            <polygon id="Fill-95" fill="#C28AD4" mask="url(#mask-2)" points="388.667 27.775 410.241 27.775 410.241 25.775 388.667 25.775"></polygon>
            <polygon id="Fill-96" fill="#C28AD4" mask="url(#mask-2)" points="388.667 33.239 405.758 33.239 405.758 31.239 388.667 31.239"></polygon>
            <polygon id="Fill-97" fill="#C28AD4" mask="url(#mask-2)" points="388.667 38.703 410.241 38.703 410.241 36.703 388.667 36.703"></polygon>
            <path d="M201.263,40.052 L223.56,40.052 L223.56,35.166 L201.263,35.166 L201.263,40.052 Z M199.263,42.052 L225.56,42.052 L225.56,33.166 L199.263,33.166 L199.263,42.052 Z" id="Fill-98" fill="#C28AD4" mask="url(#mask-2)"></path>
            <path d="M195.2794,24.7667 C194.2994,24.7667 193.5024,25.5637 193.5024,26.5437 L193.5024,90.4357 C193.5024,91.4157 194.2994,92.2127 195.2794,92.2127 L229.5434,92.2127 C230.5234,92.2127 231.3214,91.4157 231.3214,90.4357 L231.3214,26.5437 C231.3214,25.5637 230.5234,24.7667 229.5434,24.7667 L195.2794,24.7667 Z M229.5434,94.2127 L195.2794,94.2127 C193.1964,94.2127 191.5024,92.5187 191.5024,90.4357 L191.5024,26.5437 C191.5024,24.4607 193.1964,22.7667 195.2794,22.7667 L229.5434,22.7667 C231.6264,22.7667 233.3214,24.4607 233.3214,26.5437 L233.3214,90.4357 C233.3214,92.5187 231.6264,94.2127 229.5434,94.2127 Z" id="Fill-99" fill="#C28AD4" mask="url(#mask-2)"></path>
            <polygon id="Fill-100" fill="#C28AD4" mask="url(#mask-2)" points="205.642 48.814 219.181 48.814 219.181 46.814 205.642 46.814"></polygon>
            <polygon id="Fill-101" fill="#C28AD4" mask="url(#mask-2)" points="201.772 54.292 223.052 54.292 223.052 52.292 201.772 52.292"></polygon>
            <path d="M203.1427,68.9845 C202.0497,68.9845 201.1607,69.8735 201.1607,70.9655 C201.1607,72.0585 202.0497,72.9475 203.1427,72.9475 L221.6807,72.9475 C222.7737,72.9475 223.6627,72.0585 223.6627,70.9655 C223.6627,69.8735 222.7737,68.9845 221.6807,68.9845 L203.1427,68.9845 Z M221.6807,74.9475 L203.1427,74.9475 C200.9467,74.9475 199.1607,73.1615 199.1607,70.9655 C199.1607,68.7705 200.9467,66.9845 203.1427,66.9845 L221.6807,66.9845 C223.8757,66.9845 225.6627,68.7705 225.6627,70.9655 C225.6627,73.1615 223.8757,74.9475 221.6807,74.9475 Z" id="Fill-102" fill="#C28AD4" mask="url(#mask-2)"></path>
            <path d="M203.1427,80.1056 C202.0497,80.1056 201.1607,80.9956 201.1607,82.0876 C201.1607,83.1806 202.0497,84.0696 203.1427,84.0696 L221.6807,84.0696 C222.7737,84.0696 223.6627,83.1806 223.6627,82.0876 C223.6627,80.9956 222.7737,80.1056 221.6807,80.1056 L203.1427,80.1056 Z M221.6807,86.0696 L203.1427,86.0696 C200.9467,86.0696 199.1607,84.2836 199.1607,82.0876 C199.1607,79.8916 200.9467,78.1056 203.1427,78.1056 L221.6807,78.1056 C223.8757,78.1056 225.6627,79.8916 225.6627,82.0876 C225.6627,84.2836 223.8757,86.0696 221.6807,86.0696 Z" id="Fill-103" fill="#C28AD4" mask="url(#mask-2)"></path>
            <path d="M271.764,40.052 L294.061,40.052 L294.061,35.166 L271.764,35.166 L271.764,40.052 Z M269.764,42.052 L296.061,42.052 L296.061,33.166 L269.764,33.166 L269.764,42.052 Z" id="Fill-104" fill="#C28AD4" mask="url(#mask-2)"></path>
            <path d="M265.7804,24.7667 C264.8004,24.7667 264.0024,25.5637 264.0024,26.5437 L264.0024,90.4357 C264.0024,91.4157 264.8004,92.2127 265.7804,92.2127 L300.0444,92.2127 C301.0244,92.2127 301.8214,91.4157 301.8214,90.4357 L301.8214,26.5437 C301.8214,25.5637 301.0244,24.7667 300.0444,24.7667 L265.7804,24.7667 Z M300.0444,94.2127 L265.7804,94.2127 C263.6974,94.2127 262.0024,92.5187 262.0024,90.4357 L262.0024,26.5437 C262.0024,24.4607 263.6974,22.7667 265.7804,22.7667 L300.0444,22.7667 C302.1274,22.7667 303.8214,24.4607 303.8214,26.5437 L303.8214,90.4357 C303.8214,92.5187 302.1274,94.2127 300.0444,94.2127 Z" id="Fill-105" fill="#C28AD4" mask="url(#mask-2)"></path>
            <polygon id="Fill-106" fill="#C28AD4" mask="url(#mask-2)" points="276.143 48.814 289.682 48.814 289.682 46.814 276.143 46.814"></polygon>
            <path d="M273.6427,58.7394 C272.5497,58.7394 271.6617,59.6294 271.6617,60.7214 C271.6617,61.8144 272.5497,62.7034 273.6427,62.7034 L292.1807,62.7034 C293.2737,62.7034 294.1637,61.8144 294.1637,60.7214 C294.1637,59.6294 293.2737,58.7394 292.1807,58.7394 L273.6427,58.7394 Z M292.1807,64.7034 L273.6427,64.7034 C271.4477,64.7034 269.6617,62.9174 269.6617,60.7214 C269.6617,58.5254 271.4477,56.7394 273.6427,56.7394 L292.1807,56.7394 C294.3767,56.7394 296.1637,58.5254 296.1637,60.7214 C296.1637,62.9174 294.3767,64.7034 292.1807,64.7034 Z" id="Fill-107" fill="#C28AD4" mask="url(#mask-2)"></path>
            <path d="M273.6427,69.423 C272.5497,69.423 271.6617,70.312 271.6617,71.404 C271.6617,72.497 272.5497,73.387 273.6427,73.387 L292.1807,73.387 C293.2737,73.387 294.1637,72.497 294.1637,71.404 C294.1637,70.312 293.2737,69.423 292.1807,69.423 L273.6427,69.423 Z M292.1807,75.387 L273.6427,75.387 C271.4477,75.387 269.6617,73.601 269.6617,71.404 C269.6617,69.209 271.4477,67.423 273.6427,67.423 L292.1807,67.423 C294.3767,67.423 296.1637,69.209 296.1637,71.404 C296.1637,73.601 294.3767,75.387 292.1807,75.387 Z" id="Fill-108" fill="#C28AD4" mask="url(#mask-2)"></path>
            <path d="M273.6427,80.1056 C272.5497,80.1056 271.6617,80.9956 271.6617,82.0876 C271.6617,83.1806 272.5497,84.0696 273.6427,84.0696 L292.1807,84.0696 C293.2737,84.0696 294.1637,83.1806 294.1637,82.0876 C294.1637,80.9956 293.2737,80.1056 292.1807,80.1056 L273.6427,80.1056 Z M292.1807,86.0696 L273.6427,86.0696 C271.4477,86.0696 269.6617,84.2836 269.6617,82.0876 C269.6617,79.8916 271.4477,78.1056 273.6427,78.1056 L292.1807,78.1056 C294.3767,78.1056 296.1637,79.8916 296.1637,82.0876 C296.1637,84.2836 294.3767,86.0696 292.1807,86.0696 Z" id="Fill-109" fill="#C28AD4" mask="url(#mask-2)"></path>
            <path d="M246.562,3.999 L248.562,3.999 L248.562,-0.001 L246.562,-0.001 L246.562,3.999 Z M246.562,11.999 L248.562,11.999 L248.562,7.999 L246.562,7.999 L246.562,11.999 Z M246.562,19.999 L248.562,19.999 L248.562,15.999 L246.562,15.999 L246.562,19.999 Z M246.562,27.999 L248.562,27.999 L248.562,23.999 L246.562,23.999 L246.562,27.999 Z M246.562,35.999 L248.562,35.999 L248.562,31.999 L246.562,31.999 L246.562,35.999 Z M246.562,43.999 L248.562,43.999 L248.562,39.999 L246.562,39.999 L246.562,43.999 Z M246.562,51.999 L248.562,51.999 L248.562,47.999 L246.562,47.999 L246.562,51.999 Z M246.562,59.999 L248.562,59.999 L248.562,55.999 L246.562,55.999 L246.562,59.999 Z M246.562,67.999 L248.562,67.999 L248.562,63.999 L246.562,63.999 L246.562,67.999 Z M246.562,75.999 L248.562,75.999 L248.562,71.999 L246.562,71.999 L246.562,75.999 Z M246.562,83.999 L248.562,83.999 L248.562,79.999 L246.562,79.999 L246.562,83.999 Z M246.562,91.999 L248.562,91.999 L248.562,87.999 L246.562,87.999 L246.562,91.999 Z M246.562,99.999 L248.562,99.999 L248.562,95.999 L246.562,95.999 L246.562,99.999 Z M246.562,107.999 L248.562,107.999 L248.562,103.999 L246.562,103.999 L246.562,107.999 Z" id="Fill-110" fill="#C28AD4" mask="url(#mask-2)"></path>
            <path d="M211.1837,9.0441 L213.5907,9.0441 L212.3867,5.7531 L211.1837,9.0441 Z M214.1567,10.5931 L210.6197,10.5931 L209.8937,12.5821 L208.1007,12.5821 L211.4417,3.8731 L213.4067,3.8731 L216.7227,12.5821 L214.8807,12.5821 L214.1567,10.5931 Z" id="Fill-111" fill="#C28AD4" mask="url(#mask-2)"></path>
            <path d="M283.2071,11.1691 C284.0291,11.1691 284.5211,10.7391 284.5211,10.0401 C284.5211,9.3521 284.0781,8.8721 283.2311,8.8721 L281.8311,8.8721 L281.8311,11.1691 L283.2071,11.1691 Z M283.0351,7.4721 C283.8091,7.4721 284.2751,7.0421 284.2751,6.3791 C284.2751,5.7161 283.8461,5.2981 283.0221,5.2981 L281.8311,5.2981 L281.8311,7.4721 L283.0351,7.4721 Z M283.2931,3.8731 C284.9881,3.8731 285.9451,4.8681 285.9451,6.2201 C285.9451,7.1161 285.4051,7.8411 284.6811,8.0871 C285.5281,8.2951 286.2171,9.0691 286.2171,10.1491 C286.2171,11.5631 285.1601,12.5821 283.5251,12.5821 L280.1601,12.5821 L280.1601,3.8731 L283.2931,3.8731 Z" id="Fill-112" fill="#C28AD4" mask="url(#mask-2)"></path>
            <polygon id="Fill-113" fill="#FFFFFF" mask="url(#mask-2)" points="248.7501 182.6036 248.3831 180.6366 262.1401 178.0706 270.3381 160.7396 272.1461 161.5946 263.5111 179.8496"></polygon>
            <polygon id="Fill-114" fill="#FFFFFF" mask="url(#mask-2)" points="261.7921 185.215 261.4251 183.248 268.3831 181.95 276.2811 163.036 278.1271 163.808 269.8131 183.718"></polygon>
            <path d="M326.7267,164.798 L366.8467,164.798 L366.8467,172.726 L376.4617,164.798 L440.5557,164.798 L440.5557,78.931 L326.7267,78.931 L326.7267,164.798 Z M364.8467,176.966 L364.8467,166.798 L324.7267,166.798 L324.7267,76.931 L442.5557,76.931 L442.5557,166.798 L377.1807,166.798 L364.8467,176.966 Z" id="Fill-115" fill="#C28AD4" mask="url(#mask-2)"></path>
            <polygon id="Fill-116" fill="#C28AD4" mask="url(#mask-2)" points="325.727 88.82 441.556 88.82 441.556 86.82 325.727 86.82"></polygon>
            <path d="M333.2618,82.9132 C333.2618,83.7052 332.6198,84.3472 331.8278,84.3472 C331.0358,84.3472 330.3948,83.7052 330.3948,82.9132 C330.3948,82.1222 331.0358,81.4802 331.8278,81.4802 C332.6198,81.4802 333.2618,82.1222 333.2618,82.9132" id="Fill-117" fill="#C28AD4" mask="url(#mask-2)"></path>
            <path d="M337.3448,82.9132 C337.3448,83.7052 336.7018,84.3472 335.9108,84.3472 C335.1188,84.3472 334.4778,83.7052 334.4778,82.9132 C334.4778,82.1222 335.1188,81.4802 335.9108,81.4802 C336.7018,81.4802 337.3448,82.1222 337.3448,82.9132" id="Fill-118" fill="#C28AD4" mask="url(#mask-2)"></path>
            <path d="M340.13,97.6427 C338.01,97.6427 336.285,99.3687 336.285,101.4887 L336.285,135.5807 C336.285,137.7007 338.01,139.4257 340.13,139.4257 L427.151,139.4257 C429.272,139.4257 430.996,137.7007 430.996,135.5807 L430.996,101.4887 C430.996,99.3687 429.272,97.6427 427.151,97.6427 L340.13,97.6427 Z M427.151,141.4257 L340.13,141.4257 C336.907,141.4257 334.285,138.8037 334.285,135.5807 L334.285,101.4887 C334.285,98.2647 336.907,95.6427 340.13,95.6427 L427.151,95.6427 C430.374,95.6427 432.996,98.2647 432.996,101.4887 L432.996,135.5807 C432.996,138.8037 430.374,141.4257 427.151,141.4257 Z" id="Fill-119" fill="#C28AD4" mask="url(#mask-2)"></path>
            <path d="M392.6046,148.8204 L379.5086,148.8614 L379.5496,157.9104 L392.6046,157.8694 L392.6046,148.8204 Z M392.6456,159.8694 L379.5086,159.8694 C378.4286,159.8694 377.5496,158.9904 377.5496,157.9104 L377.5496,148.8204 C377.5496,147.7404 378.4286,146.8614 379.5086,146.8614 L392.6456,146.8614 C393.7256,146.8614 394.6046,147.7404 394.6046,148.8204 L394.6046,157.9104 C394.6046,158.9904 393.7256,159.8694 392.6456,159.8694 Z" id="Fill-120" fill="#C28AD4" mask="url(#mask-2)"></path>
            <path d="M411.8009,148.8204 L398.7049,148.8614 L398.7459,157.9104 L411.8009,157.8694 L411.8009,148.8204 Z M411.8419,159.8694 L398.7049,159.8694 C397.6249,159.8694 396.7459,158.9904 396.7459,157.9104 L396.7459,148.8204 C396.7459,147.7404 397.6249,146.8614 398.7049,146.8614 L411.8419,146.8614 C412.9219,146.8614 413.8009,147.7404 413.8009,148.8204 L413.8009,157.9104 C413.8009,158.9904 412.9219,159.8694 411.8419,159.8694 Z" id="Fill-121" fill="#C28AD4" mask="url(#mask-2)"></path>
            <path d="M430.9962,148.8204 L417.9012,148.8614 L417.9422,157.9104 L430.9962,157.8694 L430.9962,148.8204 Z M431.0382,159.8694 L417.9012,159.8694 C416.8212,159.8694 415.9422,158.9904 415.9422,157.9104 L415.9422,148.8204 C415.9422,147.7404 416.8212,146.8614 417.9012,146.8614 L431.0382,146.8614 C432.1182,146.8614 432.9962,147.7404 432.9962,148.8204 L432.9962,157.9104 C432.9962,158.9904 432.1182,159.8694 431.0382,159.8694 Z" id="Fill-122" fill="#C28AD4" mask="url(#mask-2)"></path>
            <path d="M416.9835,111.5265 L410.4685,111.5265 C409.6085,111.5265 408.9105,110.8285 408.9105,109.9665 L408.9105,105.9495 C408.9105,105.0885 409.6085,104.3895 410.4685,104.3895 L416.9835,104.3895 C417.8445,104.3895 418.5435,105.0885 418.5435,105.9495 L418.5435,109.9665 C418.5435,110.8285 417.8445,111.5265 416.9835,111.5265" id="Fill-123" fill="#C28AD4" mask="url(#mask-2)"></path>
            <path d="M424.2462,112.4513 L420.1512,110.0713 L420.1512,105.8723 L424.2462,103.4923 C424.3752,103.4353 424.5202,103.5303 424.5202,103.6723 L424.5202,112.2713 C424.5202,112.4133 424.3752,112.5083 424.2462,112.4513" id="Fill-124" fill="#C28AD4" mask="url(#mask-2)"></path>
            <polygon id="Fill-125" fill="#1A1C32" mask="url(#mask-2)" points="134.921 244.1984 134.118 242.3664 146.512 236.9344 147.315 238.7664"></polygon>
            <polygon id="Fill-126" fill="#1A1C32" mask="url(#mask-2)" points="27.317 467.501 425.754 467.501 425.754 465.501 27.317 465.501"></polygon>
            <path d="M382.4835,197.2101 L305.9765,197.2101 C304.3865,197.2101 303.0125,198.3231 302.6845,199.8791 L290.6015,256.4151 L247.0745,256.4151 C245.8435,256.4151 244.8465,257.4121 244.8465,258.6431 C244.8465,259.8721 245.8435,260.8691 247.0745,260.8691 L289.7985,260.8691 L292.9785,260.8691 L370.4565,260.8691 C372.0455,260.8691 373.4195,259.7561 373.7475,258.2001 L385.7755,201.2711 C386.2165,199.1791 384.6215,197.2101 382.4835,197.2101" id="Fill-127" fill="#FFFFFF" mask="url(#mask-2)"></path>
            <path d="M247.252,256.4152 L290.779,256.4152 L302.862,199.8792 C303.19,198.3232 304.564,197.2102 306.154,197.2102 L307.451,197.2102 L293.847,260.8692 L293.156,260.8692 L289.977,260.8692 L247.252,260.8692 C246.022,260.8692 245.024,259.8722 245.024,258.6432 C245.024,257.4122 246.022,256.4152 247.252,256.4152" id="Fill-128" fill="#C28AD4" mask="url(#mask-2)"></path>
            <path d="M247.0743,257.4152 C246.3973,257.4152 245.8463,257.9652 245.8463,258.6422 C245.8463,259.3182 246.3973,259.8692 247.0743,259.8692 L370.4563,259.8692 C371.5663,259.8692 372.5393,259.0802 372.7683,257.9942 L384.7973,201.0622 C384.9443,200.3622 384.7703,199.6422 384.3193,199.0852 C383.8693,198.5292 383.1993,198.2102 382.4833,198.2102 L305.9763,198.2102 C304.8653,198.2102 303.8923,198.9992 303.6633,200.0852 L291.4103,257.4152 L247.0743,257.4152 Z M370.4563,261.8692 L247.0743,261.8692 C245.2953,261.8692 243.8463,260.4212 243.8463,258.6422 C243.8463,256.8622 245.2953,255.4152 247.0743,255.4152 L289.7933,255.4152 L301.7073,199.6702 C302.1293,197.6662 303.9253,196.2102 305.9763,196.2102 L382.4833,196.2102 C383.8043,196.2102 385.0413,196.7992 385.8733,197.8252 C386.7063,198.8522 387.0263,200.1832 386.7543,201.4762 L374.7253,258.4072 C374.3033,260.4132 372.5073,261.8692 370.4563,261.8692 Z" id="Fill-129" fill="#1A1C32" mask="url(#mask-2)"></path>
            <path d="M350.3009,229.6896 C349.4079,234.7536 344.5789,238.8596 339.5149,238.8596 C334.4499,238.8596 331.0689,234.7536 331.9619,229.6896 C332.8549,224.6256 337.6839,220.5196 342.7479,220.5196 C347.8129,220.5196 351.1949,224.6256 350.3009,229.6896 M354.9379,228.2616 C354.5759,228.2046 354.1709,228.1456 353.7589,228.0866 C353.2639,228.0156 352.9269,227.6336 352.9029,227.1336 C352.8879,226.8326 352.8609,226.5346 352.8219,226.2416 C352.7559,225.7516 353.0079,225.2196 353.4679,224.9046 C353.8509,224.6416 354.2269,224.3836 354.5609,224.1476 C355.1009,223.7656 354.9969,223.2926 354.8649,222.9656 L354.5519,222.1826 C354.4209,221.8566 354.1759,221.4586 353.5699,221.6756 C353.1949,221.8116 352.7769,221.9696 352.3509,222.1296 C351.8419,222.3226 351.3239,222.1946 351.0429,221.8176 C350.8739,221.5916 350.6959,221.3746 350.5059,221.1656 C350.1919,220.8176 350.1579,220.2776 350.4339,219.8026 C350.6639,219.4056 350.8909,219.0156 351.0889,218.6646 C351.4069,218.0966 351.0639,217.7806 350.7709,217.5916 L350.0679,217.1406 C349.7749,216.9526 349.3339,216.7636 348.8679,217.2376 C348.5809,217.5296 348.2649,217.8606 347.9429,218.1966 C347.5569,218.6006 346.9959,218.7586 346.5329,218.6076 C346.2569,218.5156 345.9729,218.4366 345.6829,218.3686 C345.2029,218.2556 344.8919,217.8526 344.9099,217.3446 C344.9259,216.9216 344.9419,216.5056 344.9479,216.1346 C344.9599,215.5346 344.4699,215.4606 344.0929,215.4606 L343.1889,215.4606 C342.8119,215.4606 342.2949,215.5346 342.0939,216.1346 C341.9709,216.5056 341.8389,216.9216 341.7049,217.3446 C341.5449,217.8526 341.0919,218.2556 340.5719,218.3686 C340.2579,218.4366 339.9469,218.5156 339.6379,218.6076 C339.1209,218.7586 338.6169,218.6006 338.3729,218.1966 C338.1699,217.8606 337.9699,217.5296 337.7859,217.2376 C337.4869,216.7636 336.9809,216.9526 336.6209,217.1406 L335.7579,217.5916 C335.3989,217.7806 334.9449,218.0966 335.0619,218.6646 C335.1359,219.0156 335.2249,219.4056 335.3159,219.8026 C335.4239,220.2776 335.1999,220.8176 334.7629,221.1656 C334.4999,221.3746 334.2439,221.5916 333.9949,221.8176 C333.5809,222.1946 333.0189,222.3226 332.5769,222.1296 C332.2089,221.9696 331.8469,221.8116 331.5199,221.6756 C330.9899,221.4586 330.6039,221.8566 330.3589,222.1826 L329.7679,222.9656 C329.5219,223.2926 329.2509,223.7656 329.6559,224.1476 C329.9069,224.3836 330.1929,224.6416 330.4829,224.9046 C330.8309,225.2196 330.8959,225.7516 330.6569,226.2416 C330.5149,226.5346 330.3829,226.8326 330.2619,227.1336 C330.0609,227.6336 329.5899,228.0156 329.0699,228.0866 C328.6359,228.1456 328.2099,228.2046 327.8279,228.2616 C327.2109,228.3566 327.0479,228.8606 326.9819,229.2376 L326.8219,230.1416 C326.7559,230.5186 326.7409,231.0216 327.3249,231.1166 C327.6869,231.1746 328.0919,231.2326 328.5039,231.2926 C328.9989,231.3626 329.3359,231.7446 329.3609,232.2456 C329.3749,232.5466 329.4019,232.8446 329.4419,233.1366 C329.5069,233.6276 329.2549,234.1596 328.7949,234.4746 C328.4119,234.7366 328.0359,234.9956 327.7019,235.2306 C327.1619,235.6136 327.2659,236.0856 327.3969,236.4126 L327.7109,237.1956 C327.8419,237.5216 328.0869,237.9206 328.6939,237.7026 C329.0689,237.5666 329.4869,237.4096 329.9119,237.2486 C330.4199,237.0556 330.9389,237.1846 331.2199,237.5606 C331.3889,237.7876 331.5679,238.0046 331.7569,238.2126 C332.0719,238.5606 332.1049,239.1016 331.8289,239.5766 C331.5989,239.9726 331.3719,240.3626 331.1739,240.7136 C330.8559,241.2826 331.1989,241.5976 331.4919,241.7866 L332.1959,242.2386 C332.4889,242.4266 332.9289,242.6146 333.3949,242.1416 C333.6819,241.8486 333.9979,241.5186 334.3209,241.1816 C334.7059,240.7786 335.2669,240.6196 335.7299,240.7716 C336.0059,240.8626 336.2899,240.9426 336.5799,241.0096 C337.0599,241.1226 337.3699,241.5266 337.3529,242.0346 C337.3369,242.4576 337.3219,242.8726 337.3149,243.2446 C337.3029,243.8446 337.7929,243.9186 338.1699,243.9186 L339.0739,243.9186 C339.4509,243.9186 339.9679,243.8446 340.1689,243.2446 C340.2919,242.8726 340.4239,242.4576 340.5579,242.0346 C340.7179,241.5266 341.1709,241.1226 341.6909,241.0096 C342.0049,240.9426 342.3169,240.8626 342.6249,240.7716 C343.1419,240.6196 343.6459,240.7786 343.8899,241.1816 C344.0929,241.5186 344.2929,241.8486 344.4769,242.1416 C344.7769,242.6146 345.2819,242.4266 345.6419,242.2386 L346.5039,241.7866 C346.8639,241.5976 347.3189,241.2826 347.1999,240.7136 C347.1269,240.3626 347.0379,239.9726 346.9469,239.5766 C346.8389,239.1016 347.0629,238.5606 347.4999,238.2126 C347.7629,238.0046 348.0189,237.7876 348.2679,237.5606 C348.6819,237.1846 349.2439,237.0556 349.6859,237.2486 C350.0539,237.4096 350.4159,237.5666 350.7429,237.7026 C351.2729,237.9206 351.6579,237.5216 351.9049,237.1956 L352.4949,236.4126 C352.7409,236.0856 353.0119,235.6136 352.6069,235.2306 C352.3559,234.9956 352.0709,234.7366 351.7799,234.4746 C351.4319,234.1596 351.3669,233.6276 351.6059,233.1366 C351.7479,232.8446 351.8799,232.5466 352.0009,232.2456 C352.2019,231.7446 352.6729,231.3626 353.1939,231.2926 C353.6269,231.2326 354.0529,231.1746 354.4349,231.1166 C355.0519,231.0216 355.2149,230.5186 355.2809,230.1416 L355.4409,229.2376 C355.5069,228.8606 355.5219,228.3566 354.9379,228.2616" id="Fill-130" fill="#992BB7" mask="url(#mask-2)"></path>
            <path d="M346.3448,227.6544 C346.3238,227.5734 346.2528,227.5214 346.1648,227.5214 C346.1438,227.5214 346.1218,227.5244 346.0998,227.5304 L341.6908,228.7324 C341.6348,228.7484 341.5788,228.7364 341.5418,228.7014 L337.5548,224.8394 C337.5218,224.8064 337.4748,224.7884 337.4228,224.7884 C337.3638,224.7884 337.3038,224.8114 337.2548,224.8534 L336.4888,225.5054 C336.3948,225.5844 336.3658,225.7124 336.4198,225.8004 L339.8478,231.3034 C340.1358,231.6504 340.6128,231.7914 341.1388,231.6634 C341.2088,231.6454 341.2788,231.6194 341.3478,231.5924 L341.3538,231.5894 L341.3568,231.5884 L341.3598,231.5864 L341.3648,231.5844 C341.4688,231.5414 341.5698,231.4864 341.6638,231.4224 L341.6698,231.4184 L341.6748,231.4154 L346.4278,228.7904 C346.5328,228.7324 346.5928,228.6134 346.5668,228.5104 L346.3448,227.6544 Z" id="Fill-131" fill="#992BB7" mask="url(#mask-2)"></path>
        </g>
    </g>
</svg>