<svg width="937" height="544" viewBox="0 0 937 544" fill="none" xmlns="http://www.w3.org/2000/svg">
<path d="M363.23 247C363.23 247 369.98 235.69 367.51 224.65C365.57 215.99 360.64 210.2 363.98 199.02C369.3 181.16 386.16 179.17 396.92 179.17C404.84 179.17 415.71 180.96 423.18 190.41C430.65 199.86 427.66 211.85 427.66 211.85C427.66 211.85 424.27 224.65 430.87 231.46C432.1 232.73 432 234.79 430.68 235.96C429.37 237.12 427.43 238.07 424.77 237.54C424.77 237.54 423.33 250.92 413.7 254.33C410.13 255.59 406.17 255.09 402.85 253.28C397.26 250.24 391.86 244.55 391.86 244.55L388.21 256.06L363.23 247Z" fill="#006658"/>
<path d="M423.17 243.83C423.17 243.83 417.1 243.4 412.54 235.08" stroke="#1A1C30" stroke-width="2" stroke-miterlimit="10"/>
<path d="M415.77 213.78C419.4 212.74 425.02 211.94 429.76 214.77" stroke="#1A1C30" stroke-width="2.1322" stroke-miterlimit="10"/>
<path d="M421.18 217.8L420.2 224.49" stroke="#1A1C30" stroke-width="2" stroke-miterlimit="10" stroke-linecap="round"/>
<path d="M399.64 215.66C399.64 215.66 409.7 210.02 410.76 197.99C410.76 197.99 421.55 201.69 426.09 195.22C424.05 190.96 421.06 187.4 416.99 184.64L403.27 179.59L383.8 180.58L372.49 185.94L365.56 194.85L362.13 205.52L365.72 218.68L367.87 226.68L367.14 233.97C378.88 236.3 390.79 230.92 396.89 220.63C397.86 218.98 398.77 217.32 399.64 215.66Z" fill="#1A1C30"/>
<path d="M403.27 217.93C403.27 217.93 401.81 209.68 396.18 211.05C389.7 212.63 387.05 227.22 398.14 230.64" fill="#006658"/>
<path d="M403.27 217.93C403.27 217.93 401.81 209.68 396.18 211.05C389.7 212.63 387.05 227.22 398.14 230.64" stroke="#1A1C30" stroke-width="2" stroke-miterlimit="10"/>
<path d="M363.23 247C363.23 247 369.98 235.69 367.51 224.65C365.57 215.99 360.64 210.2 363.98 199.02C369.3 181.16 386.16 179.17 396.92 179.17C404.84 179.17 415.71 180.96 423.18 190.41C430.65 199.86 427.66 211.85 427.66 211.85C427.66 211.85 424.27 224.65 430.87 231.46C432.1 232.73 432 234.79 430.68 235.96C429.37 237.12 427.43 238.07 424.77 237.54C424.77 237.54 423.33 250.92 413.7 254.33C410.13 255.59 406.17 255.09 402.85 253.28C397.26 250.24 391.86 244.55 391.86 244.55L388.21 256.06L363.23 247Z" stroke="#1A1C30" stroke-width="2" stroke-miterlimit="10"/>
<path d="M402.74 216.85L427.72 222.16" stroke="#1A1C30" stroke-width="2.1322" stroke-miterlimit="10"/>
<path d="M427.04 230.98C426.08 230.8 425.45 229.89 425.62 228.93L427.82 216.95C428 215.99 428.91 215.36 429.87 215.53C430.83 215.71 431.46 216.62 431.29 217.58L429.09 229.56C428.91 230.52 427.99 231.16 427.04 230.98Z" fill="white" stroke="#1A1C30" stroke-width="2.1322" stroke-miterlimit="10"/>
<path d="M132.65 375.82H92.39C90.59 375.82 89.13 374.36 89.13 372.56V297.48C89.13 295.68 90.59 294.22 92.39 294.22H132.65C134.45 294.22 135.91 295.68 135.91 297.48V372.56C135.92 374.36 134.46 375.82 132.65 375.82Z" fill="#1A1C30" stroke="#1A1C30" stroke-width="2" stroke-miterlimit="10"/>
<path d="M215.5 375.82H175.24C173.44 375.82 171.98 374.36 171.98 372.56V297.48C171.98 295.68 173.44 294.22 175.24 294.22H215.5C217.3 294.22 218.76 295.68 218.76 297.48V372.56C218.77 374.36 217.3 375.82 215.5 375.82Z" fill="#1A1C30" stroke="#1A1C30" stroke-width="2" stroke-miterlimit="10"/>
<path d="M132.65 372.12H92.39C90.59 372.12 89.13 370.66 89.13 368.86V293.78C89.13 291.98 90.59 290.52 92.39 290.52H132.65C134.45 290.52 135.91 291.98 135.91 293.78V368.86C135.92 370.65 134.46 372.12 132.65 372.12Z" fill="white" stroke="#1A1C30" stroke-width="2" stroke-miterlimit="10"/>
<path d="M126.8 302.73H98.25V310.82H126.8V302.73Z" fill="#3BA193"/>
<path d="M104.57 318.76H120.48" stroke="#69C9AC" stroke-width="2" stroke-miterlimit="10"/>
<path d="M215.5 372.12H175.24C173.44 372.12 171.98 370.66 171.98 368.86V293.78C171.98 291.98 173.44 290.52 175.24 290.52H215.5C217.3 290.52 218.76 291.98 218.76 293.78V368.86C218.77 370.65 217.3 372.12 215.5 372.12Z" fill="white" stroke="#1A1C30" stroke-width="2" stroke-miterlimit="10"/>
<path d="M123.41 349.48H101.63C99.69 349.48 98.13 347.91 98.13 345.98C98.13 344.04 99.7 342.48 101.63 342.48H123.41C125.35 342.48 126.91 344.05 126.91 345.98C126.92 347.91 125.35 349.48 123.41 349.48Z" fill="#3BA193"/>
<path d="M123.41 362.55H101.63C99.69 362.55 98.13 360.98 98.13 359.05C98.13 357.11 99.7 355.55 101.63 355.55H123.41C125.35 355.55 126.91 357.12 126.91 359.05C126.92 360.98 125.35 362.55 123.41 362.55Z" stroke="#69C9AC" stroke-width="2" stroke-miterlimit="10"/>
<path d="M206.26 337.44H184.48C182.54 337.44 180.98 335.87 180.98 333.94C180.98 332 182.55 330.44 184.48 330.44H206.26C208.2 330.44 209.76 332.01 209.76 333.94C209.77 335.87 208.2 337.44 206.26 337.44Z" fill="#3BA193"/>
<path d="M206.26 349.99H184.48C182.54 349.99 180.98 348.42 180.98 346.49C180.98 344.55 182.55 342.99 184.48 342.99H206.26C208.2 342.99 209.76 344.56 209.76 346.49C209.77 348.42 208.2 349.99 206.26 349.99Z" stroke="#69C9AC" stroke-width="2" stroke-miterlimit="10"/>
<path d="M206.26 362.55H184.48C182.54 362.55 180.98 360.98 180.98 359.05C180.98 357.11 182.55 355.55 184.48 355.55H206.26C208.2 355.55 209.76 357.12 209.76 359.05C209.77 360.98 208.2 362.55 206.26 362.55Z" fill="#3BA193"/>
<path d="M100.02 325.2H125.03" stroke="#69C9AC" stroke-width="2" stroke-miterlimit="10"/>
<path d="M209.64 302.73H181.09V310.82H209.64V302.73Z" fill="#3BA193"/>
<path d="M187.41 318.76H203.32" stroke="#69C9AC" stroke-width="2" stroke-miterlimit="10"/>
<path d="M153.83 389.49V272.54" stroke="white" stroke-width="2" stroke-miterlimit="10" stroke-dasharray="4 4"/>
<path d="M504.56 137.76H374.07C372.17 137.76 370.64 136.22 370.64 134.33V77.1101C370.64 75.2101 372.18 73.6801 374.07 73.6801H504.56C506.46 73.6801 507.99 75.2201 507.99 77.1101V134.33C507.99 136.23 506.45 137.76 504.56 137.76Z" fill="#1A1C30" stroke="#1A1C30" stroke-width="2" stroke-miterlimit="10"/>
<path d="M504.56 135.86H374.07C372.17 135.86 370.64 134.32 370.64 132.43V75.21C370.64 73.31 372.18 71.78 374.07 71.78H504.56C506.46 71.78 507.99 73.32 507.99 75.21V132.43C507.99 134.32 506.45 135.86 504.56 135.86Z" fill="white" stroke="#1A1C30" stroke-width="2" stroke-miterlimit="10"/>
<path d="M434.16 86.67H491.21" stroke="#69C9AC" stroke-width="2" stroke-miterlimit="10"/>
<path d="M420.42 95.25H487.56" stroke="#69C9AC" stroke-width="2" stroke-miterlimit="10"/>
<path d="M420.42 103.84H491.21" stroke="#69C9AC" stroke-width="2" stroke-miterlimit="10"/>
<path d="M426.25 113.4L428.05 117.05L432.08 117.64L429.16 120.48L429.85 124.49L426.25 122.6L422.65 124.49L423.33 120.48L420.42 117.64L424.45 117.05L426.25 113.4Z" fill="#69C9AC"/>
<path d="M440.43 113.4L442.23 117.05L446.26 117.64L443.35 120.48L444.03 124.49L440.43 122.6L436.83 124.49L437.52 120.48L434.6 117.64L438.63 117.05L440.43 113.4Z" fill="#69C9AC"/>
<path d="M468.8 113.4L470.6 117.05L474.63 117.64L471.71 120.48L472.4 124.49L468.8 122.6L465.2 124.49L465.89 120.48L462.97 117.64L467 117.05L468.8 113.4Z" fill="#69C9AC"/>
<path d="M482.98 113.4L484.78 117.05L488.81 117.64L485.9 120.48L486.58 124.49L482.98 122.6L479.38 124.49L480.07 120.48L477.16 117.64L481.18 117.05L482.98 113.4Z" fill="#69C9AC"/>
<path d="M454.62 113.4L456.42 117.05L460.44 117.64L457.53 120.48L458.22 124.49L454.62 122.6L451.01 124.49L451.7 120.48L448.79 117.64L452.81 117.05L454.62 113.4Z" fill="#69C9AC"/>
<path d="M422.46 89.12C421.22 89.12 420.43 88.11 420.43 86.87C420.43 83.74 422.58 82.68 424.06 82.54V83.97C423.17 84.11 422.19 84.83 422.14 85.91C422.26 85.84 422.42 85.79 422.63 85.79C423.68 85.79 424.29 86.42 424.29 87.4C424.28 88.32 423.56 89.12 422.46 89.12ZM427.06 89.12C425.82 89.12 425.03 88.11 425.03 86.87C425.03 83.74 427.18 82.68 428.65 82.54V83.97C427.76 84.11 426.78 84.83 426.73 85.91C426.85 85.84 427.01 85.79 427.22 85.79C428.27 85.79 428.88 86.42 428.88 87.4C428.89 88.32 428.16 89.12 427.06 89.12Z" fill="#69C9AC"/>
<path d="M395.41 107.09C401.507 107.09 406.45 102.147 406.45 96.05C406.45 89.9528 401.507 85.01 395.41 85.01C389.313 85.01 384.37 89.9528 384.37 96.05C384.37 102.147 389.313 107.09 395.41 107.09Z" stroke="#69C9AC" stroke-width="2" stroke-miterlimit="10"/>
<path d="M395.41 98.1299C397.636 98.1299 399.44 96.3257 399.44 94.0999C399.44 91.8742 397.636 90.0699 395.41 90.0699C393.184 90.0699 391.38 91.8742 391.38 94.0999C391.38 96.3257 393.184 98.1299 395.41 98.1299Z" stroke="#69C9AC" stroke-width="2" stroke-miterlimit="10"/>
<path d="M389.6 105.36L393.42 97.53" stroke="#69C9AC" stroke-width="2" stroke-miterlimit="10"/>
<path d="M401.23 105.36L397.41 97.53" stroke="#69C9AC" stroke-width="2" stroke-miterlimit="10"/>
<path d="M297.28 133.78H307.89" stroke="#1A1C30" stroke-width="2" stroke-miterlimit="10"/>
<path d="M297.28 145.92H307.89" stroke="#1A1C30" stroke-width="2" stroke-miterlimit="10"/>
<path d="M153.99 109.43H119.28C117.73 109.43 116.47 108.17 116.47 106.62V41.8901C116.47 40.3401 117.73 39.0801 119.28 39.0801H153.99C155.54 39.0801 156.8 40.3401 156.8 41.8901V106.61C156.8 108.17 155.54 109.43 153.99 109.43Z" fill="#1A1C30" stroke="#1A1C30" stroke-width="2" stroke-miterlimit="10"/>
<path d="M38.52 159.5H3.81C2.26 159.5 1 158.24 1 156.69V91.96C1 90.41 2.26 89.15 3.81 89.15H38.52C40.07 89.15 41.33 90.41 41.33 91.96V156.68C41.34 158.24 40.08 159.5 38.52 159.5Z" fill="#1A1C30" stroke="#1A1C30" stroke-width="2" stroke-miterlimit="10"/>
<path d="M259.42 159.5H224.71C223.16 159.5 221.9 158.24 221.9 156.69V91.96C221.9 90.41 223.16 89.15 224.71 89.15H259.42C260.97 89.15 262.23 90.41 262.23 91.96V156.68C262.23 158.24 260.97 159.5 259.42 159.5Z" fill="#1A1C30" stroke="#1A1C30" stroke-width="2" stroke-miterlimit="10"/>
<path d="M319.94 183.29H285.23C283.68 183.29 282.42 182.03 282.42 180.48V115.76C282.42 114.21 283.68 112.95 285.23 112.95H319.94C321.49 112.95 322.75 114.21 322.75 115.76V180.48C322.75 182.03 321.49 183.29 319.94 183.29Z" fill="#1A1C30" stroke="#1A1C30" stroke-width="2" stroke-miterlimit="10"/>
<path d="M259.42 248.29H224.71C223.16 248.29 221.9 247.03 221.9 245.48V180.76C221.9 179.21 223.16 177.95 224.71 177.95H259.42C260.97 177.95 262.23 179.21 262.23 180.76V245.48C262.23 247.03 260.97 248.29 259.42 248.29Z" fill="#1A1C30" stroke="#1A1C30" stroke-width="2" stroke-miterlimit="10"/>
<path d="M153.99 106.5H119.28C117.73 106.5 116.47 105.24 116.47 103.69V38.96C116.47 37.41 117.73 36.15 119.28 36.15H153.99C155.54 36.15 156.8 37.41 156.8 38.96V103.68C156.8 105.24 155.54 106.5 153.99 106.5Z" fill="white" stroke="#1A1C30" stroke-width="2" stroke-miterlimit="10"/>
<path d="M105.36 82.05L112.22 88.92L105.36 95.78" stroke="white" stroke-width="2" stroke-miterlimit="10"/>
<path d="M149.04 51.78H124.22V84.47H149.04V51.78Z" fill="#69C9AC"/>
<path d="M124.22 105.54V98.1801H149.04V105.54" fill="#69C9AC"/>
<path d="M122.71 45.71H130.83" stroke="#1A1C30" stroke-width="2" stroke-miterlimit="10"/>
<path d="M122.71 90.97H138.47" stroke="#1A1C30" stroke-width="2" stroke-miterlimit="10"/>
<path d="M38.52 156.57H3.81C2.26 156.57 1 155.31 1 153.76V89.03C1 87.48 2.26 86.22 3.81 86.22H38.52C40.07 86.22 41.33 87.48 41.33 89.03V153.75C41.34 155.31 40.08 156.57 38.52 156.57Z" fill="white" stroke="#1A1C30" stroke-width="2" stroke-miterlimit="10"/>
<path d="M259.42 156.57H224.71C223.16 156.57 221.9 155.31 221.9 153.76V89.03C221.9 87.48 223.16 86.22 224.71 86.22H259.42C260.97 86.22 262.23 87.48 262.23 89.03V153.75C262.23 155.31 260.97 156.57 259.42 156.57Z" fill="white" stroke="#1A1C30" stroke-width="2" stroke-miterlimit="10"/>
<path d="M319.94 180.37H285.23C283.68 180.37 282.42 179.11 282.42 177.56V112.84C282.42 111.29 283.68 110.03 285.23 110.03H319.94C321.49 110.03 322.75 111.29 322.75 112.84V177.56C322.75 179.11 321.49 180.37 319.94 180.37Z" fill="white" stroke="#1A1C30" stroke-width="2" stroke-miterlimit="10"/>
<path d="M41.4 121.39H67.17C70.52 121.39 73.23 118.67 73.23 115.33V94.98C73.23 91.63 75.95 88.92 79.29 88.92H106" stroke="white" stroke-width="2" stroke-miterlimit="10" stroke-dasharray="4 4"/>
<path d="M158.15 88.92H160.15" stroke="white" stroke-width="2" stroke-miterlimit="10"/>
<path d="M164.02 88.92H181.32C184.67 88.92 187.38 91.64 187.38 94.98V115.33C187.38 118.68 190.1 121.39 193.44 121.39H204.6" stroke="white" stroke-width="2" stroke-miterlimit="10" stroke-dasharray="3.88 3.88"/>
<path d="M206.55 121.39H208.55" stroke="white" stroke-width="2" stroke-miterlimit="10"/>
<path d="M41.4 121.39H67.17C70.52 121.39 73.23 124.11 73.23 127.45V147.8C73.23 151.15 75.95 153.86 79.29 153.86H106" stroke="white" stroke-width="2" stroke-miterlimit="10" stroke-dasharray="4 4"/>
<path d="M209.61 114.53L216.47 121.39L209.61 128.26" stroke="white" stroke-width="2" stroke-miterlimit="10"/>
<path d="M259.42 245.36H224.71C223.16 245.36 221.9 244.1 221.9 242.55V177.83C221.9 176.28 223.16 175.02 224.71 175.02H259.42C260.97 175.02 262.23 176.28 262.23 177.83V242.55C262.23 244.1 260.97 245.36 259.42 245.36Z" fill="white" stroke="#1A1C30" stroke-width="2" stroke-miterlimit="10"/>
<path d="M158.15 172.82H160.15" stroke="white" stroke-width="2" stroke-miterlimit="10"/>
<path d="M164.33 172.82H181.32C184.67 172.82 187.38 175.54 187.38 178.88V204.11C187.38 207.46 190.1 210.17 193.44 210.17H205.42" stroke="white" stroke-width="2" stroke-miterlimit="10" stroke-dasharray="4.18 4.18"/>
<path d="M207.52 210.18H209.52" stroke="white" stroke-width="2" stroke-miterlimit="10"/>
<path d="M209.61 203.32L216.47 210.18L209.61 217.05" stroke="white" stroke-width="2" stroke-miterlimit="10"/>
<path d="M105.36 147.01L112.22 153.87L105.36 160.74" stroke="white" stroke-width="2" stroke-miterlimit="10"/>
<path d="M156.8 48.75H296.65C300 48.75 302.71 51.47 302.71 54.81V97.32" stroke="white" stroke-width="2" stroke-miterlimit="10" stroke-dasharray="4 4"/>
<path d="M14.31 110.58H28.03" stroke="#1A1C30" stroke-width="2" stroke-miterlimit="10"/>
<path d="M10.39 116.13H31.95" stroke="#1A1C30" stroke-width="2" stroke-miterlimit="10"/>
<path d="M30.56 137.05H11.78C10.11 137.05 8.76001 135.7 8.76001 134.03C8.76001 132.36 10.11 131.01 11.78 131.01H30.56C32.23 131.01 33.58 132.36 33.58 134.03C33.58 135.7 32.23 137.05 30.56 137.05Z" fill="#69C9AC"/>
<path d="M30.56 148.32H11.78C10.11 148.32 8.76001 146.97 8.76001 145.3C8.76001 143.63 10.11 142.28 11.78 142.28H30.56C32.23 142.28 33.58 143.63 33.58 145.3C33.58 146.97 32.23 148.32 30.56 148.32Z" stroke="#69C9AC" stroke-width="2" stroke-miterlimit="10"/>
<path d="M314.99 124.98H290.17V166.82H314.99V124.98Z" fill="#69C9AC"/>
<path d="M314.99 157.73H290.17" stroke="white" stroke-width="2" stroke-miterlimit="10"/>
<path d="M221.89 112.23H262.23" stroke="#1A1C30" stroke-width="2" stroke-miterlimit="10"/>
<path d="M221.89 127.98H262.23" stroke="#1A1C30" stroke-width="2" stroke-miterlimit="10"/>
<path d="M221.89 186.51H262.23" stroke="#1A1C30" stroke-width="2" stroke-miterlimit="10"/>
<path d="M228.76 195.97H245.43" stroke="#1A1C30" stroke-width="2" stroke-miterlimit="10"/>
<path d="M228.76 211.64H249.99" stroke="#1A1C30" stroke-width="2" stroke-miterlimit="10"/>
<path d="M228.76 203.81H254.54" stroke="#1A1C30" stroke-width="2" stroke-miterlimit="10"/>
<path d="M221.89 144.09H262.23" stroke="#1A1C30" stroke-width="2" stroke-miterlimit="10"/>
<path d="M228.76 136.8H245.43" stroke="#69C9AC" stroke-width="2" stroke-miterlimit="10"/>
<path d="M228.76 120.11H239.36" stroke="#69C9AC" stroke-width="2" stroke-miterlimit="10"/>
<path d="M295.58 139.85H309.58" stroke="#1A1C30" stroke-width="2" stroke-miterlimit="10"/>
<path d="M309.58 96.15L302.72 103.02L295.85 96.15" stroke="white" stroke-width="2" stroke-miterlimit="10"/>
<path d="M157.42 93.36C159.972 93.36 162.04 91.2915 162.04 88.74C162.04 86.1884 159.972 84.12 157.42 84.12C154.868 84.12 152.8 86.1884 152.8 88.74C152.8 91.2915 154.868 93.36 157.42 93.36Z" fill="white" stroke="#1A1C30" stroke-width="2" stroke-miterlimit="10"/>
<path d="M157.42 53.37C159.972 53.37 162.04 51.3016 162.04 48.75C162.04 46.1984 159.972 44.13 157.42 44.13C154.868 44.13 152.8 46.1984 152.8 48.75C152.8 51.3016 154.868 53.37 157.42 53.37Z" fill="white" stroke="#1A1C30" stroke-width="2" stroke-miterlimit="10"/>
<path d="M41.4 126.01C43.9516 126.01 46.02 123.942 46.02 121.39C46.02 118.838 43.9516 116.77 41.4 116.77C38.8484 116.77 36.78 118.838 36.78 121.39C36.78 123.942 38.8484 126.01 41.4 126.01Z" fill="white" stroke="#1A1C30" stroke-width="2" stroke-miterlimit="10"/>
<path d="M33.47 96.75H8.85999V103.72H33.47V96.75Z" fill="#69C9AC"/>
<path d="M221.89 96.99H262.23" stroke="#1A1C30" stroke-width="2" stroke-miterlimit="10"/>
<path d="M228.76 104.93H245.43" stroke="#69C9AC" stroke-width="2" stroke-miterlimit="10"/>
<path d="M154.04 209.51H119.33C117.78 209.51 116.52 208.25 116.52 206.7V141.98C116.52 140.43 117.78 139.17 119.33 139.17H154.04C155.59 139.17 156.85 140.43 156.85 141.98V206.7C156.85 208.25 155.59 209.51 154.04 209.51Z" fill="#1A1C30" stroke="#1A1C30" stroke-width="2" stroke-miterlimit="10"/>
<path d="M154.04 206.58H119.33C117.78 206.58 116.52 205.32 116.52 203.77V139.05C116.52 137.5 117.78 136.24 119.33 136.24H154.04C155.59 136.24 156.85 137.5 156.85 139.05V203.77C156.85 205.32 155.59 206.58 154.04 206.58Z" fill="white"/>
<path d="M116.51 172.29V203.77C116.51 205.32 117.77 206.58 119.32 206.58H154.03C155.58 206.58 156.84 205.32 156.84 203.77V172.29H116.51Z" fill="#69C9AC"/>
<path d="M154.04 206.58H119.33C117.78 206.58 116.52 205.32 116.52 203.77V139.05C116.52 137.5 117.78 136.24 119.33 136.24H154.04C155.59 136.24 156.85 137.5 156.85 139.05V203.77C156.85 205.32 155.59 206.58 154.04 206.58Z" stroke="#1A1C30" stroke-width="2" stroke-miterlimit="10"/>
<path d="M148.99 191.63H124.38V198.6H148.99V191.63Z" fill="white"/>
<path d="M128.8 144.1H144.56" stroke="#1A1C30" stroke-width="2" stroke-miterlimit="10"/>
<path d="M116.53 172.29H156.84" stroke="#1A1C30" stroke-width="2" stroke-miterlimit="10"/>
<path d="M123.08 180.25H150.29" stroke="white" stroke-width="2" stroke-miterlimit="10"/>
<path d="M157.42 177.44C159.972 177.44 162.04 175.372 162.04 172.82C162.04 170.268 159.972 168.2 157.42 168.2C154.868 168.2 152.8 170.268 152.8 172.82C152.8 175.372 154.868 177.44 157.42 177.44Z" fill="white" stroke="#1A1C30" stroke-width="2" stroke-miterlimit="10"/>
<path d="M548.97 193.45L543.83 187.52L548.97 181.58" stroke="white" stroke-width="2" stroke-miterlimit="10"/>
<path d="M602.36 181.58L607.51 187.52L602.36 193.45" stroke="white" stroke-width="2" stroke-miterlimit="10"/>
<path d="M599.16 177.12L589.14 197.91" stroke="white" stroke-width="2" stroke-miterlimit="10"/>
<path d="M582.92 194.59H556.03C555.38 194.59 554.86 194.06 554.86 193.42V181.62C554.86 180.97 555.39 180.45 556.03 180.45H582.92C583.57 180.45 584.09 180.98 584.09 181.62V193.42C584.09 194.06 583.57 194.59 582.92 194.59Z" stroke="white" stroke-width="2" stroke-miterlimit="10"/>
<path d="M470.41 193.45L465.26 187.52L470.41 181.58" stroke="white" stroke-width="2" stroke-miterlimit="10"/>
<path d="M511.21 181.58L516.36 187.52L511.21 193.45" stroke="white" stroke-width="2" stroke-miterlimit="10"/>
<path d="M504.36 194.59H477.47C476.82 194.59 476.3 194.06 476.3 193.42V181.62C476.3 180.97 476.83 180.45 477.47 180.45H504.36C505.01 180.45 505.53 180.98 505.53 181.62V193.42C505.53 194.06 505 194.59 504.36 194.59Z" stroke="white" stroke-width="2" stroke-miterlimit="10"/>
<path d="M523.04 195.38C523.896 195.38 524.59 194.686 524.59 193.83C524.59 192.974 523.896 192.28 523.04 192.28C522.184 192.28 521.49 192.974 521.49 193.83C521.49 194.686 522.184 195.38 523.04 195.38Z" fill="white"/>
<path d="M530.12 195.38C530.976 195.38 531.67 194.686 531.67 193.83C531.67 192.974 530.976 192.28 530.12 192.28C529.264 192.28 528.57 192.974 528.57 193.83C528.57 194.686 529.264 195.38 530.12 195.38Z" fill="white"/>
<path d="M537.2 195.38C538.056 195.38 538.75 194.686 538.75 193.83C538.75 192.974 538.056 192.28 537.2 192.28C536.344 192.28 535.65 192.974 535.65 193.83C535.65 194.686 536.344 195.38 537.2 195.38Z" fill="white"/>
<path d="M596.18 221.77L591.03 215.84L596.18 209.9" stroke="white" stroke-width="2" stroke-miterlimit="10"/>
<path d="M641.69 209.9L646.84 215.84L641.69 221.77" stroke="white" stroke-width="2" stroke-miterlimit="10"/>
<path d="M638.5 205.44L628.48 226.23" stroke="white" stroke-width="2" stroke-miterlimit="10"/>
<path d="M622.25 222.91H603.23C602.58 222.91 602.06 222.38 602.06 221.74V209.94C602.06 209.29 602.59 208.77 603.23 208.77H622.25C622.9 208.77 623.42 209.3 623.42 209.94V221.74C623.43 222.38 622.9 222.91 622.25 222.91Z" stroke="white" stroke-width="2" stroke-miterlimit="10"/>
<path d="M525.48 221.77L520.33 215.84L525.48 209.9" stroke="white" stroke-width="2" stroke-miterlimit="10"/>
<path d="M558.41 209.9L563.56 215.84L558.41 221.77" stroke="white" stroke-width="2" stroke-miterlimit="10"/>
<path d="M551.56 222.91H532.54C531.89 222.91 531.37 222.38 531.37 221.74V209.94C531.37 209.29 531.9 208.77 532.54 208.77H551.56C552.21 208.77 552.73 209.3 552.73 209.94V221.74C552.73 222.38 552.2 222.91 551.56 222.91Z" stroke="white" stroke-width="2" stroke-miterlimit="10"/>
<path d="M570.24 223.7C571.096 223.7 571.79 223.006 571.79 222.15C571.79 221.294 571.096 220.6 570.24 220.6C569.384 220.6 568.69 221.294 568.69 222.15C568.69 223.006 569.384 223.7 570.24 223.7Z" fill="white"/>
<path d="M577.32 223.7C578.176 223.7 578.87 223.006 578.87 222.15C578.87 221.294 578.176 220.6 577.32 220.6C576.464 220.6 575.77 221.294 575.77 222.15C575.77 223.006 576.464 223.7 577.32 223.7Z" fill="white"/>
<path d="M584.4 223.7C585.256 223.7 585.95 223.006 585.95 222.15C585.95 221.294 585.256 220.6 584.4 220.6C583.544 220.6 582.85 221.294 582.85 222.15C582.85 223.006 583.544 223.7 584.4 223.7Z" fill="white"/>
<path d="M766.87 375.02H726.6C724.8 375.02 723.34 373.56 723.34 371.76V296.68C723.34 294.88 724.8 293.42 726.6 293.42H766.86C768.66 293.42 770.12 294.88 770.12 296.68V371.76C770.13 373.56 768.67 375.02 766.87 375.02Z" fill="#1A1C30" stroke="#1A1C30" stroke-width="2" stroke-miterlimit="10"/>
<path d="M766.87 372.27H726.6C724.8 372.27 723.34 370.81 723.34 369.01V293.93C723.34 292.13 724.8 290.67 726.6 290.67H766.86C768.66 290.67 770.12 292.13 770.12 293.93V369C770.13 370.81 768.67 372.27 766.87 372.27Z" fill="white"/>
<path d="M723.34 300.42H770.13V293.92C770.13 292.12 768.67 290.66 766.87 290.66H726.6C724.8 290.66 723.34 292.12 723.34 293.92V300.42Z" fill="#69C9AC"/>
<path d="M770.13 359.3H723.34V368.02C723.34 370.05 724.98 371.69 727.01 371.69H766.46C768.49 371.69 770.13 370.05 770.13 368.02V359.3Z" fill="#69C9AC"/>
<path d="M766.87 372.27H726.6C724.8 372.27 723.34 370.81 723.34 369.01V293.93C723.34 292.13 724.8 290.67 726.6 290.67H766.86C768.66 290.67 770.12 292.13 770.12 293.93V369C770.13 370.81 768.67 372.27 766.87 372.27Z" stroke="#1A1C30" stroke-width="2" stroke-miterlimit="10"/>
<path d="M746.74 368.76C748.38 368.76 749.71 367.43 749.71 365.79C749.71 364.15 748.38 362.82 746.74 362.82C745.1 362.82 743.77 364.15 743.77 365.79C743.77 367.43 745.1 368.76 746.74 368.76Z" fill="#1A1C30"/>
<path d="M770.13 359.3H722.69" stroke="#1A1C30" stroke-width="2" stroke-miterlimit="10"/>
<path d="M770.13 300.72H722.69" stroke="#1A1C30" stroke-width="2" stroke-miterlimit="10"/>
<path d="M750.73 308.01L739.18 319.56" stroke="#69C9AC" stroke-width="2" stroke-miterlimit="10"/>
<path d="M763.43 318.75L751.87 330.3" stroke="#69C9AC" stroke-width="2" stroke-miterlimit="10"/>
<path d="M758.26 309.27L739.18 328.35" stroke="#69C9AC" stroke-width="2" stroke-miterlimit="10"/>
<path d="M833.27 364.99H793.01C791.21 364.99 789.75 363.53 789.75 361.73V286.65C789.75 284.85 791.21 283.39 793.01 283.39H833.27C835.07 283.39 836.53 284.85 836.53 286.65V361.73C836.54 363.52 835.08 364.99 833.27 364.99Z" fill="#1A1C30" stroke="#1A1C30" stroke-width="2" stroke-miterlimit="10"/>
<path d="M833.27 362.23H793.01C791.21 362.23 789.75 360.77 789.75 358.97V283.89C789.75 282.09 791.21 280.63 793.01 280.63H833.27C835.07 280.63 836.53 282.09 836.53 283.89V358.97C836.54 360.77 835.08 362.23 833.27 362.23Z" fill="white"/>
<path d="M789.75 290.39H836.54V283.89C836.54 282.09 835.08 280.63 833.28 280.63H793.01C791.21 280.63 789.75 282.09 789.75 283.89V290.39Z" fill="#69C9AC"/>
<path d="M803.1 356.78H823.18" stroke="#1A1C30" stroke-width="2" stroke-miterlimit="10" stroke-linecap="round"/>
<path d="M833.27 279.65H793.01C790.67 279.65 788.77 281.55 788.77 283.89V358.97C788.77 361.31 790.67 363.21 793.01 363.21H833.27C835.61 363.21 837.51 361.31 837.51 358.97V283.89C837.51 281.55 835.61 279.65 833.27 279.65ZM835.56 358.97C835.56 360.23 834.53 361.26 833.27 361.26H793.01C791.75 361.26 790.72 360.24 790.72 358.97V283.89C790.72 282.63 791.75 281.6 793.01 281.6H802.21C803.26 281.6 804.11 282.45 804.11 283.5C804.11 284.58 804.98 285.45 806.06 285.45H820.21C821.29 285.45 822.16 284.58 822.16 283.5C822.16 282.45 823.01 281.6 824.06 281.6H833.26C834.52 281.6 835.55 282.62 835.55 283.89V358.97H835.56Z" fill="#1A1C30"/>
<path d="M816.15 297.97L804.6 309.53" stroke="#69C9AC" stroke-width="2" stroke-miterlimit="10"/>
<path d="M828.84 308.71L817.29 320.27" stroke="#69C9AC" stroke-width="2" stroke-miterlimit="10"/>
<path d="M823.68 299.24L804.6 318.31" stroke="#69C9AC" stroke-width="2" stroke-miterlimit="10"/>
<path d="M837.13 290.72H789.69" stroke="#1A1C30" stroke-width="2" stroke-miterlimit="10"/>
<path d="M899.53 355H859.27C857.47 355 856.01 353.54 856.01 351.74V276.66C856.01 274.86 857.47 273.4 859.27 273.4H899.53C901.33 273.4 902.79 274.86 902.79 276.66V351.74C902.8 353.54 901.34 355 899.53 355Z" fill="#1A1C30" stroke="#1A1C30" stroke-width="2" stroke-miterlimit="10"/>
<path d="M899.53 352.25H859.27C857.47 352.25 856.01 350.79 856.01 348.99V273.91C856.01 272.11 857.47 270.65 859.27 270.65H899.53C901.33 270.65 902.79 272.11 902.79 273.91V348.99C902.8 350.79 901.34 352.25 899.53 352.25Z" fill="white"/>
<path d="M856.01 280.4H902.8V273.9C902.8 272.1 901.34 270.64 899.54 270.64H859.27C857.47 270.64 856.01 272.1 856.01 273.9V280.4Z" fill="#69C9AC"/>
<path d="M899.53 352.25H859.27C857.47 352.25 856.01 350.79 856.01 348.99V273.91C856.01 272.11 857.47 270.65 859.27 270.65H899.53C901.33 270.65 902.79 272.11 902.79 273.91V348.99C902.8 350.79 901.34 352.25 899.53 352.25Z" stroke="#1A1C30" stroke-width="2" stroke-miterlimit="10"/>
<path d="M903.12 280.7H855.68" stroke="#1A1C30" stroke-width="2" stroke-miterlimit="10"/>
<path d="M883.55 287.99L872 299.54" stroke="#69C9AC" stroke-width="2" stroke-miterlimit="10"/>
<path d="M896.25 298.73L884.69 310.28" stroke="#69C9AC" stroke-width="2" stroke-miterlimit="10"/>
<path d="M891.08 289.25L872 308.33" stroke="#69C9AC" stroke-width="2" stroke-miterlimit="10"/>
<path d="M881.25 346.49H877.79C877.46 346.49 877.2 346.22 877.2 345.9V342.44C877.2 342.11 877.47 341.85 877.79 341.85H881.25C881.58 341.85 881.84 342.12 881.84 342.44V345.9C881.84 346.22 881.58 346.49 881.25 346.49Z" fill="#1A1C30"/>
<path d="M866.91 346.49C865.63 346.49 864.59 345.45 864.59 344.17C864.59 342.89 865.63 341.85 866.91 341.85C868.19 341.85 869.23 342.89 869.23 344.17C869.24 345.45 868.2 346.49 866.91 346.49Z" fill="#1A1C30"/>
<path d="M890.71 341.92L893.99 343.78C894.29 343.95 894.29 344.38 893.99 344.55L890.71 346.41C890.41 346.58 890.05 346.36 890.05 346.02V342.29C890.04 341.96 890.41 341.75 890.71 341.92Z" fill="#1A1C30"/>
<path d="M545.93 58.4H415.44C413.54 58.4 412.01 56.86 412.01 54.97V6.34003C412.01 4.44003 413.55 2.91003 415.44 2.91003H545.93C547.83 2.91003 549.36 4.45003 549.36 6.34003V54.97C549.36 56.86 547.82 58.4 545.93 58.4Z" fill="#1A1C30" stroke="#1A1C30" stroke-width="2" stroke-miterlimit="10"/>
<path d="M545.93 56.5H415.44C413.54 56.5 412.01 54.96 412.01 53.07V4.43C412.01 2.53 413.55 1 415.44 1H545.93C547.83 1 549.36 2.54 549.36 4.43V53.06C549.36 54.96 547.82 56.5 545.93 56.5Z" fill="white" stroke="#1A1C30" stroke-width="2" stroke-miterlimit="10"/>
<path d="M475.53 15.89H532.58" stroke="#69C9AC" stroke-width="2" stroke-miterlimit="10"/>
<path d="M461.79 24.48H532.58" stroke="#69C9AC" stroke-width="2" stroke-miterlimit="10"/>
<path d="M467.61 34.04L469.42 37.69L473.44 38.28L470.53 41.12L471.22 45.13L467.61 43.23L464.01 45.13L464.7 41.12L461.79 38.28L465.81 37.69L467.61 34.04Z" fill="#69C9AC"/>
<path d="M481.8 34.04L483.6 37.69L487.63 38.28L484.71 41.12L485.4 45.13L481.8 43.23L478.2 45.13L478.88 41.12L475.97 38.28L480 37.69L481.8 34.04Z" fill="#69C9AC"/>
<path d="M510.17 34.04L511.97 37.69L515.99 38.28L513.08 41.12L513.77 45.13L510.17 43.23L506.56 45.13L507.25 41.12L504.34 38.28L508.37 37.69L510.17 34.04Z" fill="#69C9AC"/>
<path d="M495.98 34.04L497.78 37.69L501.81 38.28L498.9 41.12L499.58 45.13L495.98 43.23L492.38 45.13L493.07 41.12L490.15 38.28L494.18 37.69L495.98 34.04Z" fill="#69C9AC"/>
<path d="M463.82 18.34C462.58 18.34 461.79 17.33 461.79 16.09C461.79 12.96 463.94 11.9 465.42 11.76V13.19C464.53 13.33 463.55 14.05 463.5 15.13C463.62 15.06 463.78 15.01 463.99 15.01C465.04 15.01 465.65 15.64 465.65 16.62C465.65 17.55 464.92 18.34 463.82 18.34ZM468.43 18.34C467.19 18.34 466.4 17.33 466.4 16.09C466.4 12.96 468.55 11.9 470.02 11.76V13.19C469.13 13.33 468.15 14.05 468.1 15.13C468.22 15.06 468.38 15.01 468.59 15.01C469.64 15.01 470.25 15.64 470.25 16.62C470.25 17.55 469.53 18.34 468.43 18.34Z" fill="#69C9AC"/>
<path d="M436.74 36.32C442.837 36.32 447.78 31.3772 447.78 25.28C447.78 19.1828 442.837 14.24 436.74 14.24C430.643 14.24 425.7 19.1828 425.7 25.28C425.7 31.3772 430.643 36.32 436.74 36.32Z" stroke="#69C9AC" stroke-width="2" stroke-miterlimit="10"/>
<path d="M436.74 27.35C438.966 27.35 440.77 25.5457 440.77 23.32C440.77 21.0943 438.966 19.29 436.74 19.29C434.514 19.29 432.71 21.0943 432.71 23.32C432.71 25.5457 434.514 27.35 436.74 27.35Z" stroke="#69C9AC" stroke-width="2" stroke-miterlimit="10"/>
<path d="M430.92 34.58L434.75 26.75" stroke="#69C9AC" stroke-width="2" stroke-miterlimit="10"/>
<path d="M442.56 34.58L438.74 26.75" stroke="#69C9AC" stroke-width="2" stroke-miterlimit="10"/>
<path d="M635.55 109.88H505.06C503.16 109.88 501.63 108.34 501.63 106.45V57.81C501.63 55.91 503.17 54.38 505.06 54.38H635.55C637.45 54.38 638.98 55.92 638.98 57.81V106.44C638.98 108.34 637.45 109.88 635.55 109.88Z" fill="#1A1C30" stroke="#1A1C30" stroke-width="2" stroke-miterlimit="10"/>
<path d="M635.55 107.97H505.06C503.16 107.97 501.63 106.43 501.63 104.54V55.91C501.63 54.01 503.17 52.48 505.06 52.48H635.55C637.45 52.48 638.98 54.02 638.98 55.91V104.54C638.98 106.44 637.45 107.97 635.55 107.97Z" fill="white" stroke="#1A1C30" stroke-width="2" stroke-miterlimit="10"/>
<path d="M565.15 67.37H622.2" stroke="#69C9AC" stroke-width="2" stroke-miterlimit="10"/>
<path d="M551.41 75.96H622.2" stroke="#69C9AC" stroke-width="2" stroke-miterlimit="10"/>
<path d="M557.24 85.52L559.04 89.17L563.07 89.75L560.15 92.59L560.84 96.6L557.24 94.71L553.64 96.6L554.33 92.59L551.41 89.75L555.44 89.17L557.24 85.52Z" fill="#69C9AC"/>
<path d="M571.42 85.52L573.22 89.17L577.25 89.75L574.34 92.59L575.03 96.6L571.42 94.71L567.82 96.6L568.51 92.59L565.6 89.75L569.62 89.17L571.42 85.52Z" fill="#69C9AC"/>
<path d="M599.79 85.52L601.59 89.17L605.62 89.75L602.7 92.59L603.39 96.6L599.79 94.71L596.19 96.6L596.88 92.59L593.96 89.75L597.99 89.17L599.79 85.52Z" fill="#69C9AC"/>
<path d="M585.61 85.52L587.41 89.17L591.43 89.75L588.52 92.59L589.21 96.6L585.61 94.71L582.01 96.6L582.69 92.59L579.78 89.75L583.81 89.17L585.61 85.52Z" fill="#69C9AC"/>
<path d="M553.45 69.82C552.21 69.82 551.42 68.81 551.42 67.57C551.42 64.44 553.57 63.38 555.05 63.24V64.67C554.16 64.81 553.18 65.53 553.13 66.61C553.25 66.54 553.41 66.49 553.62 66.49C554.67 66.49 555.28 67.12 555.28 68.1C555.27 69.03 554.55 69.82 553.45 69.82ZM558.05 69.82C556.81 69.82 556.02 68.81 556.02 67.57C556.02 64.44 558.17 63.38 559.64 63.24V64.67C558.75 64.81 557.77 65.53 557.72 66.61C557.84 66.54 558 66.49 558.21 66.49C559.26 66.49 559.87 67.12 559.87 68.1C559.88 69.03 559.15 69.82 558.05 69.82Z" fill="#69C9AC"/>
<path d="M526.37 87.79C532.467 87.79 537.41 82.8472 537.41 76.75C537.41 70.6527 532.467 65.71 526.37 65.71C520.273 65.71 515.33 70.6527 515.33 76.75C515.33 82.8472 520.273 87.79 526.37 87.79Z" stroke="#69C9AC" stroke-width="2" stroke-miterlimit="10"/>
<path d="M526.37 78.83C528.596 78.83 530.4 77.0257 530.4 74.8C530.4 72.5743 528.596 70.77 526.37 70.77C524.144 70.77 522.34 72.5743 522.34 74.8C522.34 77.0257 524.144 78.83 526.37 78.83Z" stroke="#69C9AC" stroke-width="2" stroke-miterlimit="10"/>
<path d="M520.55 86.06L524.37 78.23" stroke="#69C9AC" stroke-width="2" stroke-miterlimit="10"/>
<path d="M532.18 86.06L528.36 78.23" stroke="#69C9AC" stroke-width="2" stroke-miterlimit="10"/>
<path d="M837.86 7.77002H682.54V139.34H837.86V7.77002Z" fill="#1A1C30" stroke="#1A1C30" stroke-width="2" stroke-miterlimit="10"/>
<path d="M837.86 5.78003H682.54V137.35H837.86V5.78003Z" fill="white"/>
<path d="M837.86 89.9601H682.54V137.97H837.86V89.9601Z" fill="#69C9AC"/>
<path d="M682.54 19.04H837.87" stroke="#1A1C30" stroke-width="2" stroke-miterlimit="10"/>
<path d="M689.03 14.23C690.091 14.23 690.95 13.3704 690.95 12.31C690.95 11.2496 690.091 10.39 689.03 10.39C687.97 10.39 687.11 11.2496 687.11 12.31C687.11 13.3704 687.97 14.23 689.03 14.23Z" fill="#69C9AC"/>
<path d="M694.51 14.23C695.57 14.23 696.43 13.3704 696.43 12.31C696.43 11.2496 695.57 10.39 694.51 10.39C693.45 10.39 692.59 11.2496 692.59 12.31C692.59 13.3704 693.45 14.23 694.51 14.23Z" fill="#69C9AC"/>
<path d="M726.51 54.13H817.28" stroke="#69C9AC" stroke-width="2" stroke-miterlimit="10"/>
<path d="M695.24 103.64H700.79" stroke="white" stroke-width="2" stroke-miterlimit="10"/>
<path d="M695.24 113.51H700.79" stroke="white" stroke-width="2" stroke-miterlimit="10"/>
<path d="M695.24 123.37H700.79" stroke="white" stroke-width="2" stroke-miterlimit="10"/>
<path d="M705.84 103.64H781.49" stroke="white" stroke-width="2" stroke-miterlimit="10"/>
<path d="M705.84 113.51H770.9" stroke="white" stroke-width="2" stroke-miterlimit="10"/>
<path d="M705.84 123.37H781.49" stroke="white" stroke-width="2" stroke-miterlimit="10"/>
<path d="M695.24 34.4H700.79" stroke="#69C9AC" stroke-width="2" stroke-miterlimit="10"/>
<path d="M695.24 44.27H700.79" stroke="#69C9AC" stroke-width="2" stroke-miterlimit="10"/>
<path d="M695.24 54.13H700.79" stroke="#69C9AC" stroke-width="2" stroke-miterlimit="10"/>
<path d="M695.24 63.99H700.79" stroke="#69C9AC" stroke-width="2" stroke-miterlimit="10"/>
<path d="M695.24 73.86H700.79" stroke="#69C9AC" stroke-width="2" stroke-miterlimit="10"/>
<path d="M705.84 34.4H803.47" stroke="#69C9AC" stroke-width="2" stroke-miterlimit="10"/>
<path d="M715.45 44.27H792.88" stroke="#69C9AC" stroke-width="2" stroke-miterlimit="10"/>
<path d="M715.45 63.99H800.29" stroke="#69C9AC" stroke-width="2" stroke-miterlimit="10"/>
<path d="M705.84 73.86H803.47" stroke="#69C9AC" stroke-width="2" stroke-miterlimit="10"/>
<path d="M682.91 89.61H837.87" stroke="#1A1C30" stroke-width="2" stroke-miterlimit="10"/>
<path d="M837.86 5.78003H682.54V137.35H837.86V5.78003Z" stroke="#1A1C30" stroke-width="2" stroke-miterlimit="10"/>
<path d="M936 197.68V110.07H808.15V197.68H888.81H936Z" fill="#1A1C30" stroke="#1A1C30" stroke-width="2" stroke-miterlimit="10"/>
<path d="M936 195.69V108.08H808.15V195.69H888.81H936Z" fill="white" stroke="#1A1C30" stroke-width="2" stroke-miterlimit="10"/>
<path d="M808.15 121.34H936" stroke="#1A1C30" stroke-width="2" stroke-miterlimit="10"/>
<path d="M814.66 116.53C815.72 116.53 816.58 115.67 816.58 114.61C816.58 113.55 815.72 112.69 814.66 112.69C813.6 112.69 812.74 113.55 812.74 114.61C812.74 115.67 813.6 116.53 814.66 116.53Z" fill="#69C9AC"/>
<path d="M820.13 116.53C821.19 116.53 822.05 115.67 822.05 114.61C822.05 113.55 821.19 112.69 820.13 112.69C819.07 112.69 818.21 113.55 818.21 114.61C818.21 115.67 819.07 116.53 820.13 116.53Z" fill="#69C9AC"/>
<path d="M822.62 136.7H828.17" stroke="#69C9AC" stroke-width="2" stroke-miterlimit="10"/>
<path d="M822.62 146.56H828.17" stroke="#69C9AC" stroke-width="2" stroke-miterlimit="10"/>
<path d="M822.62 156.43H828.17" stroke="#69C9AC" stroke-width="2" stroke-miterlimit="10"/>
<path d="M822.62 166.29H828.17" stroke="#69C9AC" stroke-width="2" stroke-miterlimit="10"/>
<path d="M822.62 176.16H828.17" stroke="#69C9AC" stroke-width="2" stroke-miterlimit="10"/>
<path d="M834.19 136.7H919.46" stroke="#69C9AC" stroke-width="2" stroke-miterlimit="10"/>
<path d="M843.8 146.56H919.46" stroke="#69C9AC" stroke-width="2" stroke-miterlimit="10"/>
<path d="M850.67 156.43H888.81" stroke="#69C9AC" stroke-width="2" stroke-miterlimit="10"/>
<path d="M843.8 166.29H888.81" stroke="#69C9AC" stroke-width="2" stroke-miterlimit="10"/>
<path d="M834.19 176.16H888.81" stroke="#69C9AC" stroke-width="2" stroke-miterlimit="10"/>
<path d="M659.21 352.7C663.67 349.07 663.67 342.34 659.21 338.71H581C580.04 338.71 579.61 339.91 580.36 340.52C583.66 343.21 583.66 348.25 580.36 350.94C579.62 351.55 580.04 352.75 581 352.75L659.21 352.7Z" fill="white"/>
<path d="M626.93 338.67H659.21L661.14 340.61L662.55 345.77L661.77 349.42L659.21 352.74L627.89 352.79L629.3 349.8L630.28 343.72L626.93 338.67Z" fill="#69C9AC"/>
<path d="M626.93 338.69C631.39 342.32 631.39 349.13 626.93 352.76" stroke="#1A1C30" stroke-width="2.0542" stroke-miterlimit="10"/>
<path d="M633.53 338.69C637.99 342.32 637.99 349.13 633.53 352.76" stroke="#1A1C30" stroke-width="2.0542" stroke-miterlimit="10"/>
<path d="M653.5 338.69C657.96 342.32 657.96 349.13 653.5 352.76" stroke="#1A1C30" stroke-width="2.0542" stroke-miterlimit="10"/>
<path d="M625.1 343.35H582.25" stroke="#A1A3BA" stroke-width="2" stroke-miterlimit="10"/>
<path d="M625.1 348.11H582.25" stroke="#A1A3BA" stroke-width="2" stroke-miterlimit="10"/>
<path d="M659.21 352.7C663.67 349.07 663.67 342.34 659.21 338.71H581C580.04 338.71 579.61 339.91 580.36 340.52C583.66 343.21 583.66 348.25 580.36 350.94C579.62 351.55 580.04 352.75 581 352.75L659.21 352.7Z" stroke="#1A1C30" stroke-width="2.0542" stroke-miterlimit="10"/>
<path d="M583.32 338.61C578.86 334.98 578.86 328.25 583.32 324.62H661.53C662.49 324.62 662.92 325.82 662.17 326.43C658.87 329.12 658.87 334.16 662.17 336.85C662.91 337.46 662.49 338.66 661.53 338.66L583.32 338.61Z" fill="white"/>
<path d="M615.6 324.58H583.32L581.39 326.51L579.98 331.68L580.76 335.33L583.32 338.65L614.64 338.69L613.23 335.71L612.25 329.62L615.6 324.58Z" fill="#69C9AC"/>
<path d="M615.6 324.6C611.14 328.23 611.14 335.04 615.6 338.67" stroke="#1A1C30" stroke-width="2.0542" stroke-miterlimit="10"/>
<path d="M609 324.6C604.54 328.23 604.54 335.04 609 338.67" stroke="#1A1C30" stroke-width="2.0542" stroke-miterlimit="10"/>
<path d="M589.03 324.6C584.57 328.23 584.57 335.04 589.03 338.67" stroke="#1A1C30" stroke-width="2.0542" stroke-miterlimit="10"/>
<path d="M617.43 329.26H660.28" stroke="#A1A3BA" stroke-width="2" stroke-miterlimit="10"/>
<path d="M617.43 334.01H660.28" stroke="#A1A3BA" stroke-width="2" stroke-miterlimit="10"/>
<path d="M583.32 338.61C578.86 334.98 578.86 328.25 583.32 324.62H661.53C662.49 324.62 662.92 325.82 662.17 326.43C658.87 329.12 658.87 334.16 662.17 336.85C662.91 337.46 662.49 338.66 661.53 338.66L583.32 338.61Z" stroke="#1A1C30" stroke-width="2.0542" stroke-miterlimit="10"/>
<path d="M619.17 267.87H519.98C517.92 267.87 516.14 269.31 515.71 271.33L499.45 347H443.02C441.43 347 440.13 348.29 440.13 349.89C440.13 351.48 441.42 352.78 443.02 352.78H498.41H502.53H602.98C605.04 352.78 606.82 351.34 607.25 349.32L623.44 273.14C624.01 270.42 621.94 267.87 619.17 267.87Z" fill="white" stroke="#1A1C30" stroke-width="2" stroke-miterlimit="10"/>
<path d="M619.17 267.87H519.98C517.92 267.87 516.14 269.31 515.71 271.33L499.45 347H443.02C441.43 347 440.13 348.29 440.13 349.89C440.13 351.48 441.42 352.78 443.02 352.78H498.41H502.53H602.98C605.04 352.78 606.82 351.34 607.25 349.32L623.44 273.14C624.01 270.42 621.94 267.87 619.17 267.87Z" fill="white" stroke="#1A1C30" stroke-width="2" stroke-miterlimit="10"/>
<path d="M599.55 322.83H513.07C511.85 322.83 510.95 321.7 511.21 320.51L520.93 276.96C521.12 276.09 521.9 275.47 522.79 275.47H609.27C610.49 275.47 611.39 276.6 611.13 277.79L601.41 321.34C601.22 322.21 600.44 322.83 599.55 322.83Z" stroke="#1A1C30" stroke-width="2" stroke-miterlimit="10"/>
<path d="M598.78 328.1H510.56C509.67 328.1 508.9 328.72 508.7 329.59L506.74 338.33C506.47 339.52 507.38 340.65 508.6 340.65H596.82C597.71 340.65 598.48 340.03 598.68 339.16L600.64 330.42C600.9 329.23 599.99 328.1 598.78 328.1Z" fill="#69C9AC"/>
<path d="M545.52 347H601.83L618.09 271.33C618.4 269.88 619.41 268.72 620.72 268.19C621.23 267.98 621.04 268.42 621.62 268.42L621.95 269.43C622.82 269.43 623.87 270.2 623.69 271.04L607 350.41L604.92 352.77H600.8H545.41C543.72 352.77 542.37 351.32 542.54 349.6C542.67 348.1 544.01 347 545.52 347Z" fill="#69C9AC"/>
<path d="M619.17 267.87H519.98C517.92 267.87 516.14 269.31 515.71 271.33L499.45 347H443.02C441.43 347 440.13 348.29 440.13 349.89C440.13 351.48 441.42 352.78 443.02 352.78H498.41H502.53H602.98C605.04 352.78 606.82 351.34 607.25 349.32L623.44 273.14C624.01 270.42 621.94 267.87 619.17 267.87Z" stroke="#1A1C30" stroke-width="2" stroke-miterlimit="10"/>
<path d="M546.02 297.68H520.63L524.69 279.52H550.09L546.02 297.68Z" fill="#69C9AC"/>
<path d="M541.2 318.48H515.81L519.87 300.31H545.27L541.2 318.48Z" fill="#1A1C30"/>
<path d="M574.12 297.68H548.72L552.79 279.52H578.18L574.12 297.68Z" fill="#006658"/>
<path d="M569.3 318.48H543.9L547.97 300.31H573.36L569.3 318.48Z" fill="#69C9AC"/>
<path d="M602.22 297.68H576.82L580.88 279.52H606.28L602.22 297.68Z" fill="#1A1C30"/>
<path d="M597.4 318.48H572L576.06 300.31H601.46L597.4 318.48Z" fill="#006658"/>
<path d="M566.14 273C566.858 273 567.44 272.418 567.44 271.7C567.44 270.982 566.858 270.4 566.14 270.4C565.422 270.4 564.84 270.982 564.84 271.7C564.84 272.418 565.422 273 566.14 273Z" fill="#1A1C30"/>
<path d="M562.42 272.63C562.934 272.63 563.35 272.214 563.35 271.7C563.35 271.186 562.934 270.77 562.42 270.77C561.906 270.77 561.49 271.186 561.49 271.7C561.49 272.214 561.906 272.63 562.42 272.63Z" fill="#69C9AC"/>
<path d="M499.17 347H601.52" stroke="#1A1C30" stroke-width="2" stroke-miterlimit="10" stroke-linecap="round"/>
<path d="M538.01 336.74C536.6 336.74 535.55 335.43 535.86 334.06L535.88 333.95C536.11 332.95 537 332.23 538.03 332.23C539.44 332.23 540.49 333.54 540.18 334.91L540.16 335.02C539.93 336.03 539.04 336.74 538.01 336.74Z" fill="#006658"/>
<path d="M545.93 336.74C544.52 336.74 543.47 335.43 543.78 334.06L543.8 333.95C544.03 332.95 544.92 332.23 545.95 332.23C547.36 332.23 548.41 333.54 548.1 334.91L548.08 335.02C547.85 336.03 546.96 336.74 545.93 336.74Z" fill="#006658"/>
<path d="M553.85 336.74C552.44 336.74 551.39 335.43 551.7 334.06L551.72 333.95C551.95 332.95 552.84 332.23 553.87 332.23C555.28 332.23 556.33 333.54 556.02 334.91L556 335.02C555.77 336.03 554.88 336.74 553.85 336.74Z" fill="#006658"/>
<path d="M561.77 336.74C560.36 336.74 559.31 335.43 559.62 334.06L559.64 333.95C559.87 332.95 560.76 332.23 561.79 332.23C563.2 332.23 564.25 333.54 563.94 334.91L563.92 335.02C563.69 336.03 562.8 336.74 561.77 336.74Z" fill="#006658"/>
<path d="M569.69 336.74C568.28 336.74 567.23 335.43 567.54 334.06L567.56 333.95C567.79 332.95 568.68 332.23 569.71 332.23C571.12 332.23 572.17 333.54 571.86 334.91L571.84 335.02C571.61 336.03 570.72 336.74 569.69 336.74Z" fill="#006658"/>
<path d="M543.18 297.68H523.96C523.96 297.68 528.98 288.93 534.28 288.93C539.59 288.94 543.18 297.68 543.18 297.68Z" fill="#1A1C30"/>
<path d="M599.3 297.68H580.08C580.08 297.68 585.1 288.93 590.4 288.93C595.7 288.93 599.3 297.68 599.3 297.68Z" fill="#006658"/>
<path d="M594.9 287.11C594.43 289.51 592.09 292.1 589.91 291.66C587.73 291.22 586.55 287.91 587.03 285.52C587.51 283.13 589.64 281.53 591.82 281.97C594 282.41 595.37 284.72 594.9 287.11Z" fill="#69C9AC"/>
<path d="M594.08 284.31C594.08 284.31 591.56 287.76 586.95 286.04C586.95 286.04 586.28 282.1 590.45 281.61C590.45 281.61 594.41 281.59 594.08 284.31Z" fill="#006658"/>
<path d="M594.08 289.14C594.886 289.14 595.54 288.486 595.54 287.68C595.54 286.874 594.886 286.22 594.08 286.22C593.274 286.22 592.62 286.874 592.62 287.68C592.62 288.486 593.274 289.14 594.08 289.14Z" fill="#69C9AC"/>
<path d="M593 282.57C593 282.57 592.83 286.4 595.39 287.23C595.39 287.22 596.44 282.53 593 282.57Z" fill="#006658"/>
<path d="M570.96 297.68H551.74C551.74 297.68 556.76 288.93 562.06 288.93C567.37 288.94 570.96 297.68 570.96 297.68Z" fill="#1A1C30"/>
<path d="M566.56 287.11C566.09 289.51 563.75 292.1 561.57 291.66C559.39 291.22 558.21 287.91 558.69 285.52C559.16 283.12 561.3 281.53 563.48 281.97C565.66 282.41 567.03 284.72 566.56 287.11Z" fill="#69C9AC"/>
<path d="M354.76 254.39L364.54 242.24L391.78 251.76L390.56 267.45L354.76 254.39Z" fill="white" stroke="#1A1C30" stroke-width="1.8574" stroke-miterlimit="10"/>
<path d="M628.42 542.75H639.46L647.29 366.74H628.42V542.75Z" fill="white" stroke="#1A1C30" stroke-width="2" stroke-miterlimit="10"/>
<path d="M647.29 371.87L628.83 375.87L628.42 367.03H647.29V371.87Z" fill="#1A1C30"/>
<path d="M628 543H639.116L647 367H628V543Z" stroke="#1A1C30" stroke-width="2" stroke-miterlimit="10"/>
<path d="M672.31 352.77H296V366.53H672.31V352.77Z" fill="white" stroke="#1A1C30" stroke-width="2" stroke-miterlimit="10"/>
<path d="M368 543H356.878L349 367H368V543Z" fill="white" stroke="#1A1C30" stroke-width="1.8574" stroke-miterlimit="10"/>
<path d="M566.67 482.25C566.67 482.25 558.1 461.94 573.36 441.64C584.43 426.91 599.09 425.71 598.37 406.65C598.37 406.65 611.66 416.33 605.76 433.26C601.05 446.76 585.65 449.25 578.83 455.98C568.87 465.81 574.13 481.63 574.13 481.63L566.67 482.25Z" fill="#006658"/>
<path d="M571.28 500.26C571.28 500.26 571.99 479.86 558.42 463.65C546.59 449.52 533.07 458.87 529.56 436.14C529.56 436.14 519.2 446.9 529.91 459.72C536.27 467.33 547.22 464.22 554.63 470.29C564.76 478.59 559.87 501.87 559.87 501.87L571.28 500.26Z" fill="#006658"/>
<path d="M568.9 477.31C568.9 477.31 580.07 457.33 595.08 453.96C605.42 451.64 608.02 456.9 617.83 453.97C617.83 453.97 614.44 469.8 597.57 467.59C575.84 464.75 574.14 481.62 574.14 481.62L568.9 477.31Z" fill="#006658"/>
<path d="M564.27 461.84C564.27 461.84 558.82 431.19 567.23 416.65C573.02 406.64 579.33 408.62 584.21 398.56C584.21 398.56 594.86 413.46 580.44 425.18C561.86 440.28 571.19 457.03 571.19 457.03L564.27 461.84Z" fill="#006658"/>
<path d="M567.12 474.25C567.12 474.25 567.48 448.62 557.03 437.34C549.83 429.57 544.71 432.42 538.29 424.45C538.29 424.45 532.11 439.41 547.25 447.16C566.76 457.14 560.37 474.84 560.37 474.84L567.12 474.25Z" fill="#006658"/>
<path d="M600.33 480.28H535C531.33 480.28 528.35 483.26 528.35 486.93C528.35 490.6 531.33 493.58 535 493.58H535.88L545.12 542.74H590.21L599.45 493.58H600.33C604 493.58 606.98 490.6 606.98 486.93C606.97 483.26 604 480.28 600.33 480.28Z" fill="white"/>
<path d="M537.8 499.65L536.09 492.54L600.5 493.54L537.8 499.65Z" fill="#1A1C30"/>
<path d="M534.56 493.58H599.74" stroke="#1A1C30" stroke-width="2" stroke-miterlimit="10"/>
<path d="M600.33 480.28H535C531.33 480.28 528.35 483.26 528.35 486.93C528.35 490.6 531.33 493.58 535 493.58H535.88L545.12 542.74H590.21L599.45 493.58H600.33C604 493.58 606.98 490.6 606.98 486.93C606.97 483.26 604 480.28 600.33 480.28Z" stroke="#1A1C30" stroke-width="2" stroke-miterlimit="10"/>
<path d="M469.33 520.58L470.16 542.78H530.05C530.05 534.98 525.34 533.23 518.29 530.62L485.98 522.6L469.33 520.58Z" fill="#006658"/>
<path d="M469.99 537.51H528.55L529.29 541.87H469.99V537.51Z" fill="white"/>
<path d="M469.42 523.06L470.16 542.78H530.05C530.05 534.98 525.34 533.23 518.29 530.62L484.67 522.23L471.8 520.65C470.47 520.61 469.37 521.72 469.42 523.06Z" stroke="#1A1C30" stroke-width="2.237" stroke-miterlimit="10"/>
<path d="M501.39 521.96L497.92 529.77" stroke="#1A1C30" stroke-width="2.237" stroke-miterlimit="10"/>
<path d="M506.59 523.24L503.12 531.04" stroke="#1A1C30" stroke-width="2.237" stroke-miterlimit="10"/>
<path d="M469.45 523.31C475.38 526.17 481.69 526.05 487.62 523.19L488.48 505.91L466.48 509.81L469.45 523.31Z" fill="white" stroke="#1A1C30" stroke-width="2.237" stroke-miterlimit="10"/>
<path d="M399.53 520.58L400.36 542.78H460.25C460.25 534.98 455.54 533.23 448.49 530.62L416.18 522.6L399.53 520.58Z" fill="#006658"/>
<path d="M400.18 537.51H458.75L459.49 541.87H400.18V537.51Z" fill="white"/>
<path d="M399.62 523.06L400.36 542.78H460.25C460.25 534.98 455.54 533.23 448.49 530.62L414.87 522.23L402 520.65C400.66 520.61 399.57 521.72 399.62 523.06Z" stroke="#1A1C30" stroke-width="2.237" stroke-miterlimit="10"/>
<path d="M431.58 521.96L428.11 529.77" stroke="#1A1C30" stroke-width="2.237" stroke-miterlimit="10"/>
<path d="M436.79 523.24L433.32 531.04" stroke="#1A1C30" stroke-width="2.237" stroke-miterlimit="10"/>
<path d="M399.64 523.31C405.57 526.17 411.88 526.05 417.81 523.19L418.67 505.91L399.52 510.76L399.64 523.31Z" fill="white" stroke="#1A1C30" stroke-width="2.237" stroke-miterlimit="10"/>
<path fill-rule="evenodd" clip-rule="evenodd" d="M669.4 544H235.1V542H669.4V544Z" fill="#1A1C30"/>
<path d="M471.5 387.26L390.97 377.32L373.55 385.88H369.2L329.77 372.56C329.77 372.56 326.78 425.47 347.26 425.47H395.92L395.34 428.6C393.5 451.5 393 468.24 395.92 488L398.16 514.45H425.59C425.59 514.45 436.09 430.18 436.21 429.36L437.49 429.44C446 462 453 486 466.5 517.5L490.84 515.46L478.09 395.24C477.75 391.46 475.13 388.29 471.5 387.26Z" fill="#1A1C30"/>
<path d="M405.13 321.17C414.75 337.93 407.72 378.85 407.72 378.85C407.72 378.85 371.36 392.99 344.99 389.59C331.91 389.6 343.39 374.77 325.54 369.95C325.54 369.95 320.89 339.53 322.25 321.71C323.92 299.94 342.66 255.65 351.57 254.31C361.47 252.82 371.72 253.42 387.37 260.04C405.58 267.74 406.26 276.78 412.24 294.4C418.21 312.02 430.42 337.66 430.42 337.66L405.13 321.17Z" fill="#69C9AC"/>
<path d="M426.69 301.96C426.69 301.96 433.55 289.68 431.87 274.03L441.6 255.69L450.5 254.27L453.02 251.75L458.44 252.87L449.19 275.51C449.19 275.51 445.14 289.3 448.5 291.91C451.86 294.52 457.95 282.71 457.95 282.71L463.09 282.41L452.86 303.4C452.86 303.4 437.35 307.45 436.56 309.84C435.76 312.23 420.43 317.53 421.3 313.64C422.16 309.75 426.69 301.96 426.69 301.96Z" fill="#006658"/>
<path d="M425.67 327.09L436.56 309.84L426.82 301.46L414.74 310.48L425.67 327.09Z" fill="#69C9AC"/>
<path d="M425.67 327.09L436.56 309.84L426.82 301.46L414.74 310.48L425.67 327.09Z" stroke="#1A1C30" stroke-width="2" stroke-miterlimit="10"/>
<path d="M453.09 251.76L443.89 270.9" stroke="#1A1C30" stroke-width="2" stroke-miterlimit="10"/>
<path d="M445.99 254.51L437.24 271.85" stroke="#1A1C30" stroke-width="2" stroke-miterlimit="10"/>
<path d="M359.05 417.78H346.15V478.31H359.05V417.78Z" fill="white" stroke="#1A1C30" stroke-width="2" stroke-miterlimit="10"/>
<path d="M356.87 463.86L433.38 504.41L439.17 515.99H426.95L424.51 511.38L359.77 489.22C359.77 489.22 355.43 462.41 356.87 463.86Z" fill="white" stroke="#1A1C30" stroke-width="2" stroke-miterlimit="10"/>
<path d="M429.663 526.857L434.273 526.857L434.273 516.067L429.663 516.067L429.663 526.857Z" fill="white" stroke="#1A1C30" stroke-width="2" stroke-miterlimit="10"/>
<path d="M348.86 463.86L272.35 504.41L266.56 515.99H278.78L281.22 511.38L345.96 489.22C345.96 489.22 350.31 462.41 348.86 463.86Z" fill="white" stroke="#1A1C30" stroke-width="2" stroke-miterlimit="10"/>
<path d="M276.06 516.07H271.45V526.86H276.06V516.07Z" fill="white" stroke="#1A1C30" stroke-width="2" stroke-miterlimit="10"/>
<path d="M276.74 542.89H271.95C266.57 542.89 262.21 538.53 262.21 533.15C262.21 527.77 266.57 523.41 271.95 523.41H276.74C282.12 523.41 286.48 527.77 286.48 533.15C286.47 538.53 282.11 542.89 276.74 542.89Z" fill="white" stroke="#1A1C30" stroke-width="2" stroke-miterlimit="10"/>
<path d="M276.96 542.89C271.58 542.89 267.22 538.53 267.22 533.15C267.22 527.77 271.58 523.41 276.96 523.41" stroke="#1A1C30" stroke-width="2" stroke-miterlimit="10"/>
<path d="M362.61 457.21H342.58V501.65H362.61V457.21Z" fill="white" stroke="#1A1C30" stroke-width="2" stroke-miterlimit="10"/>
<path d="M350.82 466.08L320.98 501.56L316.14 515.99H328.36L329.85 508.53L352.57 489.44C352.76 489.22 352.87 488.95 352.87 488.66V466.89C352.87 465.81 351.55 465.29 350.82 466.08Z" fill="white" stroke="#1A1C30" stroke-width="2" stroke-miterlimit="10"/>
<path d="M325.65 516.07H321.04V526.86H325.65V516.07Z" fill="white" stroke="#1A1C30" stroke-width="2" stroke-miterlimit="10"/>
<path d="M276.96 523.42C271.58 523.42 267.22 527.78 267.22 533.16H258.66C258.66 527.78 263.02 523.42 268.4 523.42H276.96Z" fill="white" stroke="#1A1C30" stroke-width="2" stroke-miterlimit="10"/>
<path d="M326.19 542.89H321.4C316.02 542.89 311.66 538.53 311.66 533.15C311.66 527.77 316.02 523.41 321.4 523.41H326.19C331.57 523.41 335.93 527.77 335.93 533.15C335.93 538.53 331.57 542.89 326.19 542.89Z" fill="white" stroke="#1A1C30" stroke-width="2" stroke-miterlimit="10"/>
<path d="M326.42 542.89C321.04 542.89 316.68 538.53 316.68 533.15C316.68 527.77 321.04 523.41 326.42 523.41" stroke="#1A1C30" stroke-width="2" stroke-miterlimit="10"/>
<path d="M326.42 523.42C321.04 523.42 316.68 527.78 316.68 533.16H308.12C308.12 527.78 312.48 523.42 317.86 523.42H326.42Z" fill="white" stroke="#1A1C30" stroke-width="2" stroke-miterlimit="10"/>
<path d="M429.13 542.89H433.92C439.3 542.89 443.66 538.53 443.66 533.15C443.66 527.77 439.3 523.41 433.92 523.41H429.13C423.75 523.41 419.39 527.77 419.39 533.15C419.4 538.53 423.76 542.89 429.13 542.89Z" fill="white" stroke="#1A1C30" stroke-width="2" stroke-miterlimit="10"/>
<path d="M428.91 542.89C434.29 542.89 438.65 538.53 438.65 533.15C438.65 527.77 434.29 523.41 428.91 523.41" fill="white"/>
<path d="M428.91 542.89C434.29 542.89 438.65 538.53 438.65 533.15C438.65 527.77 434.29 523.41 428.91 523.41" stroke="#1A1C30" stroke-width="2" stroke-miterlimit="10"/>
<path d="M428.91 523.42C434.29 523.42 438.65 527.78 438.65 533.16H447.21C447.21 527.78 442.85 523.42 437.47 523.42H428.91Z" fill="white" stroke="#1A1C30" stroke-width="2" stroke-miterlimit="10"/>
<path d="M277.01 539.3H277C273.61 539.3 270.86 536.55 270.86 533.16C270.86 529.77 273.61 527.02 277 527.02H277.01C280.4 527.02 283.15 529.77 283.15 533.16C283.15 536.55 280.4 539.3 277.01 539.3Z" fill="white" stroke="#1A1C30" stroke-width="2" stroke-miterlimit="10"/>
<path d="M326.46 539.3H326.45C323.06 539.3 320.31 536.55 320.31 533.16C320.31 529.77 323.06 527.02 326.45 527.02H326.46C329.85 527.02 332.6 529.77 332.6 533.16C332.61 536.55 329.86 539.3 326.46 539.3Z" fill="white" stroke="#1A1C30" stroke-width="2" stroke-miterlimit="10"/>
<path d="M428.92 539.3H428.91C425.52 539.3 422.77 536.55 422.77 533.16C422.77 529.77 425.52 527.02 428.91 527.02H428.92C432.31 527.02 435.06 529.77 435.06 533.16C435.06 536.55 432.31 539.3 428.92 539.3Z" fill="white" stroke="#1A1C30" stroke-width="2" stroke-miterlimit="10"/>
<path d="M521.11 346.05L504.03 326.13C502.41 324.24 499.83 323.51 497.46 324.27C488.67 327.1 467.77 333.98 463.62 336.88L453.02 339.41L458.43 344.91L474.63 346.05H489.34H521.11Z" fill="#006658"/>
<path d="M402.52 270.72C411.34 282.35 425.23 308.88 436.02 329.59L467.78 335.58L476.18 347.17L423.72 361.66L401.94 331.12L381.07 307.76L402.52 270.72Z" fill="#69C9AC"/>
<path d="M476.19 347.18L467.79 335.59L436.03 329.6C425.24 308.89 411.35 282.35 402.53 270.73C399.38 266.61 394.86 263.21 387.37 260.05C371.71 253.43 361.47 252.84 351.57 254.32C342.67 255.66 323.92 299.94 322.25 321.72C320.89 339.54 325.54 369.96 325.54 369.96C343.39 374.78 331.91 389.61 344.99 389.6C371.37 393 407.72 378.86 407.72 378.86C407.72 378.86 410.98 359.85 410.02 342.44L423.73 361.67L476.19 347.18Z" stroke="#1A1C30" stroke-width="2" stroke-miterlimit="10"/>
<path d="M423.73 361.66L386.75 307.9" stroke="#1A1C30" stroke-width="2" stroke-miterlimit="10"/>
<path d="M290.74 398.83C290.74 379.76 298.73 305.14 312.11 283.48C314.89 278.98 331.91 278.32 343.73 284.35C360.66 292.99 374.21 318.25 381.84 389.98C383.64 406.91 393.29 410.07 399.1 411.64C410.41 414.69 426.1 413.18 434.99 414.14C437.95 414.46 438.12 420.47 434.42 423.02C427.31 427.92 404.4 431.12 391.95 432.92C378.6 434.84 328.14 438.13 307.23 429.63C294.86 424.6 290.74 417.9 290.74 398.83Z" fill="white" stroke="#1A1C30" stroke-width="1.8574" stroke-miterlimit="10"/>
<path d="M307.46 293C310.02 288.76 325.67 288.13 336.54 293.82C352.11 301.97 364.57 325.79 371.59 393.46C371.59 393.46 372.69 424.91 410.17 423.95C410.17 423.95 423.2 423.72 424.31 427.03" stroke="#1A1C30" stroke-width="1.73" stroke-miterlimit="10"/>
<path d="M411.06 229.67C412.91 229.67 414.41 228.17 414.41 226.32C414.41 224.47 412.91 222.97 411.06 222.97C409.21 222.97 407.71 224.47 407.71 226.32C407.71 228.17 409.21 229.67 411.06 229.67Z" fill="#3BA193"/>
<path d="M502.36 338.91L513.25 347H490.83L502.36 338.91Z" fill="#1A1C30"/>
<path d="M528.09 289.88L534.25 292.6L541.15 289.88L539.38 281.35H531.31L528.09 289.88Z" fill="#1A1C30"/>
<path d="M531.27 286.86C531.59 284.44 533.48 281.66 535.32 281.91C537.17 282.16 538.27 285.35 537.96 287.77C537.65 290.19 535.89 291.95 534.04 291.7C532.2 291.45 530.96 289.28 531.27 286.86Z" fill="#006658"/>
<path d="M533.57 281.62C533.57 281.62 533.83 287.06 539.76 287.32L538.62 281.62H533.57Z" fill="#1A1C30"/>
<path d="M530.54 286.97C530.54 286.97 534.31 284.61 535.33 281.86L532.13 281.84L530.54 286.97Z" fill="#1A1C30"/>
<path d="M558.59 286.81C558.93 285.38 560.02 284.09 560.02 284.09C560.02 284.09 561.17 284.81 563.87 284.5C564.06 286.91 565.41 287.32 566.65 287.5C566.65 287.5 567.98 282.42 563.45 281.81C560.09 281.35 558.19 283.64 558.59 286.81Z" fill="#1A1C30"/>
<path d="M566.21 318.48H546.99C546.99 318.48 552.01 309.73 557.31 309.73C562.62 309.74 566.21 318.48 566.21 318.48Z" fill="#1A1C30"/>
<path d="M561.81 307.91C561.34 310.31 559 312.9 556.82 312.46C554.65 312.02 553.46 308.71 553.94 306.32C554.41 303.92 556.55 302.33 558.73 302.77C560.9 303.22 562.28 305.52 561.81 307.91Z" fill="#006658"/>
<path d="M556.77 302.91C556.94 302.47 557.28 306.46 561.8 307.91C561.8 307.91 563.22 304.35 560.48 303.21C558.2 302.26 556.77 302.91 556.77 302.91Z" fill="#1A1C30"/>
<path d="M594.54 318.48H575.32C575.32 318.48 580.34 309.73 585.64 309.73C590.94 309.73 594.54 318.48 594.54 318.48Z" fill="#1A1C30"/>
<path d="M590.14 307.91C589.67 310.31 587.33 312.9 585.15 312.46C582.97 312.02 581.79 308.71 582.27 306.32C582.74 303.92 584.88 302.33 587.06 302.77C589.24 303.21 590.61 305.52 590.14 307.91Z" fill="#006658"/>
<path d="M584.29 303.79C584.29 303.79 585.44 307.01 589.35 306.61L587.9 303.52L586.2 302.71L584.29 303.79Z" fill="#69C9AC"/>
<path d="M586.2 302.71C581.14 303.15 581.14 307.38 581.76 310.77L583.11 310.88C582.96 310.41 582.53 307.65 583.41 306.21C584.29 304.77 585.11 305.23 585.37 304.84C586.11 303.74 586.2 302.71 586.2 302.71Z" fill="#69C9AC"/>
<path d="M586.2 302.71C592.86 302.61 591.18 308.17 590.88 311.31L588.15 311.39C588.33 310.83 589.7 307.37 588.12 304.99C587.38 303.88 586.2 302.71 586.2 302.71Z" fill="#69C9AC"/>
<path d="M538.43 318.48H519.21C519.21 318.48 524.23 309.73 529.53 309.73C534.84 309.74 538.43 318.48 538.43 318.48Z" fill="#006658"/>
<path d="M534.03 307.91C533.56 310.31 531.22 312.9 529.04 312.46C526.87 312.02 525.68 308.71 526.16 306.32C526.63 303.92 528.77 302.33 530.95 302.77C533.12 303.22 534.5 305.52 534.03 307.91Z" fill="#69C9AC"/>
<path d="M530.38 302.69C530.38 302.69 529.47 307.35 526.06 307.96C526.05 307.96 525.38 302.47 530.38 302.69Z" fill="#006658"/>
<path d="M529.76 302.69C529.21 302.78 529.6 307.53 534.08 307.96C534.38 307.97 535.1 302.48 529.76 302.69Z" fill="#006658"/>
<path d="M359.43 438.84L346.15 442.65V435.55H359.43V438.84Z" fill="#1A1C30"/>
<path d="M786 242.6C784.04 239.81 782.33 236.24 782.33 231.56C782.33 226.88 784.04 223.31 786 220.52L787.38 221.35C785.22 224.34 784.11 227.34 784.11 231.56C784.11 235.78 785.22 238.78 787.38 241.77L786 242.6Z" fill="white"/>
<path d="M767.87 212.81C767.87 208.61 767.49 206.92 765.61 206.8L765.48 205.22C767.82 205.02 767.84 203.01 767.84 199.36C767.84 195.89 769.58 195.21 772.32 195.21V196.82C770.21 196.82 769.53 197.07 769.53 199.94C769.53 203.59 769.15 205.47 767.44 206.03C769.18 206.58 769.53 208.54 769.53 212.19C769.53 214.98 770.21 215.26 772.32 215.26V216.87C769.91 216.86 767.87 216.33 767.87 212.81Z" fill="white"/>
<path d="M685.66 265.51C687.77 265.51 688.45 265.23 688.45 262.44C688.45 258.79 688.8 256.83 690.54 256.28C688.83 255.73 688.45 253.84 688.45 250.19C688.45 247.32 687.77 247.07 685.66 247.07V245.46C688.4 245.46 690.14 246.14 690.14 249.61C690.14 253.26 690.17 255.27 692.5 255.47L692.37 257.05C690.48 257.18 690.11 258.86 690.11 263.06C690.11 266.58 688.07 267.11 685.66 267.11V265.51Z" fill="white"/>
<path d="M705.04 213.1H680.6C680.13 213.1 679.75 212.72 679.75 212.25V199.81C679.75 199.34 680.13 198.96 680.6 198.96H705.04C705.51 198.96 705.89 199.34 705.89 199.81V212.25C705.89 212.72 705.51 213.1 705.04 213.1Z" stroke="white" stroke-width="2" stroke-miterlimit="10"/>
<path d="M757.12 213.1H719.22C718.57 213.1 718.05 212.57 718.05 211.93V200.13C718.05 199.48 718.58 198.96 719.22 198.96H757.12C757.77 198.96 758.29 199.49 758.29 200.13V211.93C758.29 212.58 757.77 213.1 757.12 213.1Z" stroke="white" stroke-width="2" stroke-miterlimit="10"/>
<path d="M734.65 238.63H698.49C697.85 238.63 697.34 238.11 697.34 237.48V225.64C697.34 225 697.86 224.49 698.49 224.49H734.65C735.29 224.49 735.8 225.01 735.8 225.64V237.48C735.81 238.11 735.29 238.63 734.65 238.63Z" stroke="white" stroke-width="2" stroke-miterlimit="10"/>
<path d="M774.61 238.63H749.03C748.55 238.63 748.16 238.24 748.16 237.76V225.35C748.16 224.87 748.55 224.48 749.03 224.48H774.61C775.09 224.48 775.48 224.87 775.48 225.35V237.76C775.48 238.24 775.09 238.63 774.61 238.63Z" stroke="white" stroke-width="2" stroke-miterlimit="10"/>
<path d="M792.11 241.77C794.27 238.78 795.38 235.78 795.38 231.56C795.38 227.33 794.27 224.34 792.11 221.35L793.49 220.52C795.45 223.31 797.16 226.88 797.16 231.56C797.16 236.24 795.45 239.81 793.49 242.6L792.11 241.77Z" fill="white"/>
<path d="M712.09 213.84C712.946 213.84 713.64 213.146 713.64 212.29C713.64 211.434 712.946 210.74 712.09 210.74C711.234 210.74 710.54 211.434 710.54 212.29C710.54 213.146 711.234 213.84 712.09 213.84Z" fill="white"/>
<path d="M742.13 239.39C742.986 239.39 743.68 238.696 743.68 237.84C743.68 236.984 742.986 236.29 742.13 236.29C741.274 236.29 740.58 236.984 740.58 237.84C740.58 238.696 741.274 239.39 742.13 239.39Z" fill="white"/>
<path d="M644.81 324.6H636.18C631.23 324.6 627.21 320.59 627.21 315.63V311.05C627.21 310.5 627.66 310.05 628.21 310.05H652.78C653.33 310.05 653.78 310.5 653.78 311.05V315.63C653.77 320.59 649.76 324.6 644.81 324.6Z" fill="white" stroke="#1A1C30" stroke-width="2" stroke-miterlimit="10"/>
<path d="M640.43 304.66C640.5 302.66 641.11 300 643.3 297.32" stroke="#1A1C30" stroke-width="2" stroke-miterlimit="10"/>
<path d="M643.31 297.56C643.31 297.56 646.41 289.76 654.24 295.25C653.73 296.4 649.87 300.76 643.31 297.56Z" stroke="#1A1C30" stroke-width="2" stroke-miterlimit="10"/>
<path d="M642.65 297.62C642.65 297.62 643.53 289.27 634.04 290.5C633.96 291.76 635.35 297.4 642.65 297.62Z" stroke="#1A1C30" stroke-width="2" stroke-miterlimit="10"/>
<path d="M632.74 310.06C632.74 306.89 636.21 304.32 640.49 304.32C644.77 304.32 648.24 306.89 648.24 310.06H632.74Z" stroke="#1A1C30" stroke-width="2" stroke-miterlimit="10"/>
<path d="M403.01 221.03C403.01 218.56 400.73 216.63 398.16 217.21C396.74 217.54 395.59 218.69 395.27 220.12C394.76 222.39 396.22 224.42 398.27 224.86L397.99 231.12C397.95 231.9 398.72 232.48 399.46 232.23C399.81 232.11 400.83 231.89 400.94 231.54L402.9 221.97C402.96 221.66 403.01 221.35 403.01 221.03Z" fill="#91EBD0" stroke="#1A1C30" stroke-width="1.8574" stroke-miterlimit="10"/>
</svg>
