<?xml version="1.0" encoding="UTF-8"?>
<svg width="417px" height="392px" viewBox="0 0 417 392" version="1.1" xmlns="http://www.w3.org/2000/svg" xmlns:xlink="http://www.w3.org/1999/xlink">
    <!-- Generator: Sketch 52.4 (67378) - http://www.bohemiancoding.com/sketch -->
    <title>Illustration/Services/Design</title>
    <desc>Created with Sketch.</desc>
    <defs>
        <polygon id="path-1" points="0.4443 0.496 32.3103 0.496 32.3103 54.5837 0.4443 54.5837"></polygon>
        <polygon id="path-3" points="0 391.504 416.183 391.504 416.183 1 0 1"></polygon>
    </defs>
    <g id="Illustration/Services/Design" stroke="none" stroke-width="1" fill="none" fill-rule="evenodd">
        <g>
            <g id="Group-3" transform="translate(261.000000, 0.504000)">
                <mask id="mask-2" fill="white">
                    <use xlink:href="#path-1"></use>
                </mask>
                <g id="Clip-2"></g>
                <path d="M3.5273,2.4957 C2.9293,2.4957 2.4443,2.9807 2.4443,3.5787 L2.4443,51.4997 C2.4443,52.0977 2.9293,52.5837 3.5273,52.5837 L29.2263,52.5837 C29.8243,52.5837 30.3103,52.0977 30.3103,51.4997 L30.3103,3.5787 C30.3103,2.9807 29.8243,2.4957 29.2263,2.4957 L3.5273,2.4957 Z M29.2263,54.5837 L3.5273,54.5837 C1.8273,54.5837 0.4443,53.1997 0.4443,51.4997 L0.4443,3.5787 C0.4443,1.8787 1.8273,0.4957 3.5273,0.4957 L29.2263,0.4957 C30.9263,0.4957 32.3103,1.8787 32.3103,3.5787 L32.3103,51.4997 C32.3103,53.1997 30.9263,54.5837 29.2263,54.5837 Z" id="Fill-1" fill="#EDC36F" mask="url(#mask-2)"></path>
            </g>
            <polygon id="Fill-4" fill="#EDC36F" points="257.0967 46.862 255.6827 45.448 260.0597 41.071 255.6827 36.694 257.0967 35.28 262.8877 41.071"></polygon>
            <mask id="mask-4" fill="white">
                <use xlink:href="#path-3"></use>
            </mask>
            <g id="Clip-7"></g>
            <path d="M188.836,51.039 L205.06,51.039 L205.06,47.874 L188.836,47.874 L188.836,51.039 Z M186.836,53.039 L207.06,53.039 L207.06,45.874 L186.836,45.874 L186.836,53.039 Z" id="Fill-6" fill="#EDC36F" mask="url(#mask-4)"></path>
            <path d="M269.304,121.284 L285.528,121.284 L285.528,118.12 L269.304,118.12 L269.304,121.284 Z M267.303,123.284 L287.527,123.284 L287.527,116.12 L267.303,116.12 L267.303,123.284 Z" id="Fill-8" fill="#EDC36F" mask="url(#mask-4)"></path>
            <path d="M269.188,36.78 L285.565,36.78 L285.565,14.575 L269.188,14.575 L269.188,36.78 Z M267.188,38.78 L287.565,38.78 L287.565,12.575 L267.188,12.575 L267.188,38.78 Z" id="Fill-9" fill="#EDC36F" mask="url(#mask-4)"></path>
            <polygon id="Fill-10" fill="#EDC36F" mask="url(#mask-4)" points="287.5654 54.1618 285.5654 54.1618 285.5654 48.9318 269.1884 48.9318 269.1884 54.1618 267.1884 54.1618 267.1884 46.9318 287.5654 46.9318"></polygon>
            <polygon id="Fill-11" fill="#EDC36F" mask="url(#mask-4)" points="267.066 10.081 273.085 10.081 273.085 8.081 267.066 8.081"></polygon>
            <polygon id="Fill-12" fill="#EDC36F" mask="url(#mask-4)" points="267.066 43.593 278.738 43.593 278.738 41.593 267.066 41.593"></polygon>
            <polygon id="Fill-13" fill="#EDC36F" mask="url(#mask-4)" points="338.338 48.049 368.204 48.049 368.204 46.049 338.338 46.049"></polygon>
            <polygon id="Fill-14" fill="#EDC36F" mask="url(#mask-4)" points="343.419 53.93 355.767 53.93 355.767 51.93 343.419 51.93"></polygon>
            <path d="M184.0977,40.0739 C183.4997,40.0739 183.0147,40.5589 183.0147,41.1569 L183.0147,89.0779 C183.0147,89.6759 183.4997,90.1619 184.0977,90.1619 L209.7967,90.1619 C210.3947,90.1619 210.8807,89.6759 210.8807,89.0779 L210.8807,41.1569 C210.8807,40.5589 210.3947,40.0739 209.7967,40.0739 L184.0977,40.0739 Z M209.7967,92.1619 L184.0977,92.1619 C182.3977,92.1619 181.0147,90.7779 181.0147,89.0779 L181.0147,41.1569 C181.0147,39.4569 182.3977,38.0739 184.0977,38.0739 L209.7967,38.0739 C211.4967,38.0739 212.8807,39.4569 212.8807,41.1569 L212.8807,89.0779 C212.8807,90.7779 211.4967,92.1619 209.7967,92.1619 Z" id="Fill-15" fill="#EDC36F" mask="url(#mask-4)"></path>
            <path d="M264.5664,77.1052 C263.9684,77.1052 263.4824,77.5912 263.4824,78.1892 L263.4824,126.1102 C263.4824,126.7082 263.9684,127.1932 264.5664,127.1932 L290.2644,127.1932 C290.8624,127.1932 291.3484,126.7082 291.3484,126.1102 L291.3484,78.1892 C291.3484,77.5912 290.8624,77.1052 290.2644,77.1052 L264.5664,77.1052 Z M290.2644,129.1932 L264.5664,129.1932 C262.8664,129.1932 261.4824,127.8102 261.4824,126.1102 L261.4824,78.1892 C261.4824,76.4892 262.8664,75.1052 264.5664,75.1052 L290.2644,75.1052 C291.9644,75.1052 293.3484,76.4892 293.3484,78.1892 L293.3484,126.1102 C293.3484,127.8102 291.9644,129.1932 290.2644,129.1932 Z" id="Fill-16" fill="#EDC36F" mask="url(#mask-4)"></path>
            <path d="M340.4219,40.0739 C339.8239,40.0739 339.3379,40.5589 339.3379,41.1569 L339.3379,89.0779 C339.3379,89.6759 339.8239,90.1619 340.4219,90.1619 L366.1199,90.1619 C366.7179,90.1619 367.2039,89.6759 367.2039,89.0779 L367.2039,41.1569 C367.2039,40.5589 366.7179,40.0739 366.1199,40.0739 L340.4219,40.0739 Z M366.1199,92.1619 L340.4219,92.1619 C338.7219,92.1619 337.3379,90.7779 337.3379,89.0779 L337.3379,41.1569 C337.3379,39.4569 338.7219,38.0739 340.4219,38.0739 L366.1199,38.0739 C367.8199,38.0739 369.2039,39.4569 369.2039,41.1569 L369.2039,89.0779 C369.2039,90.7779 367.8199,92.1619 366.1199,92.1619 Z" id="Fill-17" fill="#EDC36F" mask="url(#mask-4)"></path>
            <path d="M387.4004,72.8738 C386.8024,72.8738 386.3174,73.3588 386.3174,73.9568 L386.3174,121.8778 C386.3174,122.4758 386.8024,122.9618 387.4004,122.9618 L413.0994,122.9618 C413.6974,122.9618 414.1824,122.4758 414.1824,121.8778 L414.1824,73.9568 C414.1824,73.3588 413.6974,72.8738 413.0994,72.8738 L387.4004,72.8738 Z M413.0994,124.9618 L387.4004,124.9618 C385.7004,124.9618 384.3174,123.5778 384.3174,121.8778 L384.3174,73.9568 C384.3174,72.2568 385.7004,70.8738 387.4004,70.8738 L413.0994,70.8738 C414.7994,70.8738 416.1824,72.2568 416.1824,73.9568 L416.1824,121.8778 C416.1824,123.5778 414.7994,124.9618 413.0994,124.9618 Z" id="Fill-18" fill="#EDC36F" mask="url(#mask-4)"></path>
            <path d="M215.3418,65.1179 C215.3418,67.0059 213.8128,68.5349 211.9248,68.5349 C210.0368,68.5349 208.5078,67.0059 208.5078,65.1179 C208.5078,63.2299 210.0368,61.7009 211.9248,61.7009 C213.8128,61.7009 215.3418,63.2299 215.3418,65.1179" id="Fill-19" fill="#EDC36F" mask="url(#mask-4)"></path>
            <path d="M296.1885,40.9382 C296.1885,42.8262 294.6585,44.3552 292.7705,44.3552 C290.8835,44.3552 289.3535,42.8262 289.3535,40.9382 C289.3535,39.0502 290.8835,37.5212 292.7705,37.5212 C294.6585,37.5212 296.1885,39.0502 296.1885,40.9382" id="Fill-20" fill="#EDC36F" mask="url(#mask-4)"></path>
            <path d="M296.1885,11.3279 C296.1885,13.2159 294.6585,14.7449 292.7705,14.7449 C290.8835,14.7449 289.3535,13.2159 289.3535,11.3279 C289.3535,9.4399 290.8835,7.9109 292.7705,7.9109 C294.6585,7.9109 296.1885,9.4399 296.1885,11.3279" id="Fill-21" fill="#EDC36F" mask="url(#mask-4)"></path>
            <path d="M296.1885,106.8113 C296.1885,108.6983 294.6585,110.2283 292.7705,110.2283 C290.8835,110.2283 289.3535,108.6983 289.3535,106.8113 C289.3535,104.9233 290.8835,103.3933 292.7705,103.3933 C294.6585,103.3933 296.1885,104.9233 296.1885,106.8113" id="Fill-22" fill="#EDC36F" mask="url(#mask-4)"></path>
            <polygon id="Fill-23" fill="#EDC36F" mask="url(#mask-4)" points="211.925 66.118 213.925 66.118 213.925 64.118 211.925 64.118"></polygon>
            <path d="M244.337,42.071 L248.231,42.071 L248.231,40.071 L244.337,40.071 L244.337,42.071 Z M252.124,42.071 L256.018,42.071 L256.018,40.071 L252.124,40.071 L252.124,42.071 Z M237.572,43.043 L236.186,41.601 C237.213,40.614 238.562,40.071 239.984,40.071 L239.989,40.071 L240.445,40.071 L240.445,42.071 L239.988,42.071 L239.985,42.071 C239.081,42.071 238.224,42.416 237.572,43.043 Z M234.498,49.728 L236.498,49.728 L236.498,45.835 L234.498,45.835 L234.498,49.728 Z M234.498,57.514 L236.498,57.514 L236.498,53.621 L234.498,53.621 L234.498,57.514 Z M233.787,65.364 L232.773,63.639 C233.661,63.118 234.271,62.24 234.446,61.232 L236.417,61.576 C236.14,63.164 235.182,64.544 233.787,65.364 Z M217.817,66.118 L221.711,66.118 L221.711,64.118 L217.817,64.118 L217.817,66.118 Z M225.603,66.118 L229.497,66.118 L229.497,64.118 L225.603,64.118 L225.603,66.118 Z" id="Fill-24" fill="#EDC36F" mask="url(#mask-4)"></path>
            <polygon id="Fill-25" fill="#EDC36F" mask="url(#mask-4)" points="259.937 42.071 261.937 42.071 261.937 40.071 259.937 40.071"></polygon>
            <polygon id="Fill-26" fill="#EDC36F" mask="url(#mask-4)" points="293.307 42.071 295.307 42.071 295.307 40.071 293.307 40.071"></polygon>
            <path d="M299.259,42.071 L303.21,42.071 L303.21,40.071 L299.259,40.071 L299.259,42.071 Z M310.97,42.107 C310.805,42.083 310.637,42.071 310.466,42.071 L307.162,42.071 L307.162,40.071 L310.466,40.071 C310.732,40.071 310.996,40.091 311.253,40.127 L310.97,42.107 Z M315.956,47.055 L313.956,47.055 L313.956,45.561 C313.956,44.919 313.78,44.291 313.448,43.746 L315.155,42.705 C315.68,43.563 315.956,44.551 315.956,45.561 L315.956,47.055 Z M313.956,54.959 L315.956,54.959 L315.956,51.008 L313.956,51.008 L313.956,54.959 Z M314.621,63.248 C314.187,62.447 313.956,61.541 313.956,60.628 L313.956,58.91 L315.956,58.91 L315.956,60.628 C315.956,61.217 316.099,61.777 316.379,62.293 L314.621,63.248 Z M322.527,66.118 L319.446,66.118 C319.087,66.117 318.732,66.082 318.39,66.015 L318.772,64.052 C318.991,64.095 319.219,64.117 319.449,64.118 L322.527,64.118 L322.527,66.118 Z M326.479,66.118 L330.431,66.118 L330.431,64.118 L326.479,64.118 L326.479,66.118 Z" id="Fill-27" fill="#EDC36F" mask="url(#mask-4)"></path>
            <polygon id="Fill-28" fill="#EDC36F" mask="url(#mask-4)" points="334.408 66.118 336.408 66.118 336.408 64.118 334.408 64.118"></polygon>
            <polygon id="Fill-29" fill="#EDC36F" mask="url(#mask-4)" points="211.925 66.118 213.925 66.118 213.925 64.118 211.925 64.118"></polygon>
            <path d="M217.817,66.118 L221.711,66.118 L221.711,64.118 L217.817,64.118 L217.817,66.118 Z M225.603,66.118 L229.497,66.118 L229.497,64.118 L225.603,64.118 L225.603,66.118 Z M234.445,69.005 C234.27,67.996 233.66,67.118 232.772,66.596 L233.786,64.872 C235.181,65.692 236.139,67.073 236.416,68.661 L234.445,69.005 Z M234.498,76.614 L236.498,76.614 L236.498,72.72 L234.498,72.72 L234.498,76.614 Z M234.498,84.4 L236.498,84.4 L236.498,80.507 L234.498,80.507 L234.498,84.4 Z M240.445,90.164 L239.988,90.164 C238.563,90.164 237.213,89.621 236.186,88.634 L237.57,87.191 C238.224,87.818 239.082,88.164 239.988,88.164 L240.445,88.164 L240.445,90.164 Z M244.338,90.164 L248.231,90.164 L248.231,88.164 L244.338,88.164 L244.338,90.164 Z M252.125,90.164 L256.019,90.164 L256.019,88.164 L252.125,88.164 L252.125,90.164 Z" id="Fill-30" fill="#EDC36F" mask="url(#mask-4)"></path>
            <polygon id="Fill-31" fill="#EDC36F" mask="url(#mask-4)" points="259.937 90.164 261.937 90.164 261.937 88.164 259.937 88.164"></polygon>
            <polygon id="Fill-32" fill="#EDC36F" mask="url(#mask-4)" points="332.8379 70.9079 331.4239 69.4939 335.8009 65.1179 331.4239 60.7409 332.8379 59.3269 338.6289 65.1179"></polygon>
            <polygon id="Fill-33" fill="#EDC36F" mask="url(#mask-4)" points="400.3486 72.4441 394.5576 66.6531 395.9716 65.2391 400.3486 69.6161 404.7246 65.2391 406.1386 66.6531"></polygon>
            <path d="M340.4219,105.8132 C339.8239,105.8132 339.3379,106.2992 339.3379,106.8972 L339.3379,154.8172 C339.3379,155.4152 339.8239,155.9012 340.4219,155.9012 L366.1199,155.9012 C366.7179,155.9012 367.2039,155.4152 367.2039,154.8172 L367.2039,106.8972 C367.2039,106.2992 366.7179,105.8132 366.1199,105.8132 L340.4219,105.8132 Z M366.1199,157.9012 L340.4219,157.9012 C338.7219,157.9012 337.3379,156.5172 337.3379,154.8172 L337.3379,106.8972 C337.3379,105.1972 338.7219,103.8132 340.4219,103.8132 L366.1199,103.8132 C367.8199,103.8132 369.2039,105.1972 369.2039,106.8972 L369.2039,154.8172 C369.2039,156.5172 367.8199,157.9012 366.1199,157.9012 Z" id="Fill-34" fill="#EDC36F" mask="url(#mask-4)"></path>
            <polygon id="Fill-35" fill="#EDC36F" mask="url(#mask-4)" points="293.307 107.81 295.307 107.81 295.307 105.81 293.307 105.81"></polygon>
            <path d="M299.259,107.81 L303.21,107.81 L303.21,105.81 L299.259,105.81 L299.259,107.81 Z M310.97,107.846 C310.805,107.822 310.637,107.81 310.466,107.81 L307.162,107.81 L307.162,105.81 L310.466,105.81 C310.732,105.81 310.996,105.83 311.253,105.866 L310.97,107.846 Z M315.956,112.795 L313.956,112.795 L313.956,111.301 C313.956,110.658 313.78,110.03 313.448,109.485 L315.155,108.444 C315.68,109.302 315.956,110.291 315.956,111.301 L315.956,112.795 Z M313.956,120.698 L315.956,120.698 L315.956,116.747 L313.956,116.747 L313.956,120.698 Z M314.621,128.987 C314.187,128.186 313.956,127.28 313.956,126.367 L313.956,124.649 L315.956,124.649 L315.956,126.367 C315.956,126.956 316.099,127.516 316.379,128.032 L314.621,128.987 Z M322.527,131.857 L319.446,131.857 C319.087,131.856 318.732,131.821 318.39,131.755 L318.772,129.792 C318.991,129.835 319.219,129.856 319.449,129.857 L322.527,129.857 L322.527,131.857 Z M326.479,131.857 L330.431,131.857 L330.431,129.857 L326.479,129.857 L326.479,131.857 Z" id="Fill-36" fill="#EDC36F" mask="url(#mask-4)"></path>
            <polygon id="Fill-37" fill="#EDC36F" mask="url(#mask-4)" points="334.408 131.857 336.408 131.857 336.408 129.857 334.408 129.857"></polygon>
            <polygon id="Fill-38" fill="#EDC36F" mask="url(#mask-4)" points="332.8379 136.6481 331.4239 135.2341 335.8009 130.8571 331.4239 126.4801 332.8379 125.0661 338.6289 130.8571"></polygon>
            <polygon id="Fill-39" fill="#EDC36F" mask="url(#mask-4)" points="257.0967 94.9548 255.6827 93.5408 260.0597 89.1638 255.6827 84.7878 257.0967 83.3738 262.8877 89.1638"></polygon>
            <polygon id="Fill-40" fill="#EDC36F" mask="url(#mask-4)" points="292.311 12.328 294.311 12.328 294.311 10.328 292.311 10.328"></polygon>
            <path d="M298.277,12.328 L302.244,12.328 L302.244,10.328 L298.277,10.328 L298.277,12.328 Z M306.211,12.328 L310.179,12.328 L310.179,10.328 L306.211,10.328 L306.211,12.328 Z M314.145,12.328 L318.112,12.328 L318.112,10.328 L314.145,10.328 L314.145,12.328 Z M322.079,12.328 L326.046,12.328 L326.046,10.328 L322.079,10.328 L322.079,12.328 Z M330.013,12.328 L333.98,12.328 L333.98,10.328 L330.013,10.328 L330.013,12.328 Z M337.947,12.328 L341.914,12.328 L341.914,10.328 L337.947,10.328 L337.947,12.328 Z M345.881,12.328 L349.849,12.328 L349.849,10.328 L345.881,10.328 L345.881,12.328 Z M353.815,12.328 L357.782,12.328 L357.782,10.328 L353.815,10.328 L353.815,12.328 Z M361.749,12.328 L365.716,12.328 L365.716,10.328 L361.749,10.328 L361.749,12.328 Z M369.683,12.328 L373.65,12.328 L373.65,10.328 L369.683,10.328 L369.683,12.328 Z M377.617,12.328 L381.584,12.328 L381.584,10.328 L377.617,10.328 L377.617,12.328 Z M385.551,12.328 L389.519,12.328 L389.519,10.328 L385.551,10.328 L385.551,12.328 Z M397.072,12.545 C396.684,12.401 396.275,12.328 395.858,12.328 L393.485,12.328 L393.485,10.328 L395.858,10.328 C396.513,10.328 397.154,10.442 397.766,10.668 L397.072,12.545 Z M401.349,18.291 L399.349,18.291 L399.349,15.818 C399.349,15.426 399.284,15.042 399.158,14.677 L401.049,14.023 C401.248,14.598 401.349,15.203 401.349,15.818 L401.349,18.291 Z M399.349,26.224 L401.349,26.224 L401.349,22.257 L399.349,22.257 L399.349,26.224 Z M399.349,34.158 L401.349,34.158 L401.349,30.191 L399.349,30.191 L399.349,34.158 Z M399.349,42.093 L401.349,42.093 L401.349,38.125 L399.349,38.125 L399.349,42.093 Z M399.349,50.026 L401.349,50.026 L401.349,46.059 L399.349,46.059 L399.349,50.026 Z M399.349,57.96 L401.349,57.96 L401.349,53.993 L399.349,53.993 L399.349,57.96 Z M399.349,65.894 L401.349,65.894 L401.349,61.927 L399.349,61.927 L399.349,65.894 Z" id="Fill-41" fill="#EDC36F" mask="url(#mask-4)"></path>
            <polygon id="Fill-42" fill="#EDC36F" mask="url(#mask-4)" points="399.349 71.874 401.349 71.874 401.349 69.874 399.349 69.874"></polygon>
            <polygon id="Fill-43" fill="#EDC36F" mask="url(#mask-4)" points="191.87 58.11 202.025 58.11 202.025 56.11 191.87 56.11"></polygon>
            <polygon id="Fill-44" fill="#EDC36F" mask="url(#mask-4)" points="188.967 62.218 204.928 62.218 204.928 60.218 188.967 60.218"></polygon>
            <path d="M189.9951,73.239 C189.3131,73.239 188.7591,73.794 188.7591,74.475 C188.7591,75.157 189.3131,75.712 189.9951,75.712 L203.8991,75.712 C204.5811,75.712 205.1361,75.157 205.1361,74.475 C205.1361,73.794 204.5811,73.239 203.8991,73.239 L189.9951,73.239 Z M203.8991,77.712 L189.9951,77.712 C188.2111,77.712 186.7591,76.26 186.7591,74.475 C186.7591,72.691 188.2111,71.239 189.9951,71.239 L203.8991,71.239 C205.6831,71.239 207.1361,72.691 207.1361,74.475 C207.1361,76.26 205.6831,77.712 203.8991,77.712 Z" id="Fill-45" fill="#EDC36F" mask="url(#mask-4)"></path>
            <path d="M189.9951,81.5798 C189.3131,81.5798 188.7591,82.1348 188.7591,82.8168 C188.7591,83.4988 189.3131,84.0538 189.9951,84.0538 L203.8991,84.0538 C204.5811,84.0538 205.1361,83.4988 205.1361,82.8168 C205.1361,82.1348 204.5811,81.5798 203.8991,81.5798 L189.9951,81.5798 Z M203.8991,86.0538 L189.9951,86.0538 C188.2111,86.0538 186.7591,84.6008 186.7591,82.8168 C186.7591,81.0318 188.2111,79.5798 189.9951,79.5798 L203.8991,79.5798 C205.6831,79.5798 207.1361,81.0318 207.1361,82.8168 C207.1361,84.6008 205.6831,86.0538 203.8991,86.0538 Z" id="Fill-46" fill="#EDC36F" mask="url(#mask-4)"></path>
            <path d="M392.062,112.939 L408.439,112.939 L408.439,83.957 L392.062,83.957 L392.062,112.939 Z M390.061,114.939 L410.438,114.939 L410.438,81.957 L390.061,81.957 L390.061,114.939 Z" id="Fill-47" fill="#EDC36F" mask="url(#mask-4)"></path>
            <polygon id="Fill-48" fill="#EDC36F" mask="url(#mask-4)" points="391.061 108.199 409.438 108.199 409.438 106.199 391.061 106.199"></polygon>
            <polygon id="Fill-49" fill="#EDC36F" mask="url(#mask-4)" points="271.579 82.927 283.251 82.927 283.251 80.927 271.579 80.927"></polygon>
            <polygon id="Fill-50" fill="#EDC36F" mask="url(#mask-4)" points="262.492 103.8 292.339 103.8 292.339 101.8 262.492 101.8"></polygon>
            <polygon id="Fill-51" fill="#EDC36F" mask="url(#mask-4)" points="267.342 109.698 287.488 109.698 287.488 107.698 267.342 107.698"></polygon>
            <polygon id="Fill-52" fill="#EDC36F" mask="url(#mask-4)" points="338.338 59.33 368.204 59.33 368.204 57.33 338.338 57.33"></polygon>
            <polygon id="Fill-53" fill="#EDC36F" mask="url(#mask-4)" points="338.338 70.992 368.204 70.992 368.204 68.992 338.338 68.992"></polygon>
            <polygon id="Fill-54" fill="#EDC36F" mask="url(#mask-4)" points="338.338 114.332 368.204 114.332 368.204 112.332 338.338 112.332"></polygon>
            <polygon id="Fill-55" fill="#EDC36F" mask="url(#mask-4)" points="343.419 121.338 355.767 121.338 355.767 119.338 343.419 119.338"></polygon>
            <polygon id="Fill-56" fill="#EDC36F" mask="url(#mask-4)" points="343.419 132.935 359.138 132.935 359.138 130.935 343.419 130.935"></polygon>
            <polygon id="Fill-57" fill="#EDC36F" mask="url(#mask-4)" points="343.419 127.136 362.508 127.136 362.508 125.136 343.419 125.136"></polygon>
            <polygon id="Fill-58" fill="#EDC36F" mask="url(#mask-4)" points="348.719 127.074 367.808 127.074 367.808 125.074 348.719 125.074"></polygon>
            <polygon id="Fill-59" fill="#EDC36F" mask="url(#mask-4)" points="338.338 82.923 368.204 82.923 368.204 80.923 338.338 80.923"></polygon>
            <polygon id="Fill-60" fill="#EDC36F" mask="url(#mask-4)" points="343.419 77.523 355.767 77.523 355.767 75.523 343.419 75.523"></polygon>
            <polygon id="Fill-61" fill="#EDC36F" mask="url(#mask-4)" points="343.419 65.165 351.273 65.165 351.273 63.165 343.419 63.165"></polygon>
            <polygon id="Fill-62" fill="#EDC36F" mask="url(#mask-4)" points="396.322 90.471 404.179 90.471 404.179 88.471 396.322 88.471"></polygon>
            <polygon id="Fill-63" fill="#EDC36F" mask="url(#mask-4)" points="395.069 94.966 405.432 94.966 405.432 92.966 395.069 92.966"></polygon>
            <polygon id="Fill-64" fill="#EDC36F" mask="url(#mask-4)" points="396.322 99.459 404.179 99.459 404.179 97.459 396.322 97.459"></polygon>
            <polygon id="Fill-65" fill="#1A1C32" mask="url(#mask-4)" points="114.0537 17.3503 81.1037 34.7753 68.6327 74.7573 76.6767 78.7803 80.7907 70.8833 79.6857 80.2843 96.3897 88.6363 124.9077 88.2073 143.8997 89.3813 145.7507 79.3163 147.6377 89.6133 152.2577 89.8983 153.4007 45.5573"></polygon>
            <path d="M183.9189,389.1901 L192.2829,389.1901 L192.2829,354.3461 L172.7499,354.3461 L183.9189,389.1901 Z M194.2829,391.1901 L182.4599,391.1901 L170.0079,352.3461 L194.2829,352.3461 L194.2829,391.1901 Z" id="Fill-66" fill="#A2A4BD" mask="url(#mask-4)"></path>
            <path d="M70.8008,389.1901 L79.1658,389.1901 L90.3348,354.3461 L70.8008,354.3461 L70.8008,389.1901 Z M80.6248,391.1901 L68.8008,391.1901 L68.8008,352.3461 L93.0768,352.3461 L80.6248,391.1901 Z" id="Fill-67" fill="#A2A4BD" mask="url(#mask-4)"></path>
            <path d="M223.9512,389.1901 L232.3152,389.1901 L232.3152,354.3461 L212.7812,354.3461 L223.9512,389.1901 Z M234.3152,391.1901 L222.4922,391.1901 L210.0392,352.3461 L234.3152,352.3461 L234.3152,391.1901 Z" id="Fill-68" fill="#A2A4BD" mask="url(#mask-4)"></path>
            <path d="M31.3828,293.1228 C23.4928,293.1228 17.0748,299.5408 17.0748,307.4308 C17.0748,315.3198 23.4928,321.7378 31.3828,321.7378 L234.7548,321.7378 C242.6448,321.7378 249.0628,315.3198 249.0628,307.4308 C249.0628,299.5408 242.6448,293.1228 234.7548,293.1228 L31.3828,293.1228 Z M234.7548,323.7378 L31.3828,323.7378 C22.3908,323.7378 15.0748,316.4228 15.0748,307.4308 C15.0748,298.4378 22.3908,291.1228 31.3828,291.1228 L234.7548,291.1228 C243.7468,291.1228 251.0628,298.4378 251.0628,307.4308 C251.0628,316.4228 243.7468,323.7378 234.7548,323.7378 Z" id="Fill-69" fill="#A2A4BD" mask="url(#mask-4)"></path>
            <path d="M31.3828,323.7321 C23.4928,323.7321 17.0748,330.1501 17.0748,338.0391 C17.0748,345.9281 23.4928,352.3461 31.3828,352.3461 L234.7548,352.3461 C242.6448,352.3461 249.0628,345.9281 249.0628,338.0391 C249.0628,330.1501 242.6448,323.7321 234.7548,323.7321 L31.3828,323.7321 Z M234.7548,354.3461 L31.3828,354.3461 C22.3908,354.3461 15.0748,347.0311 15.0748,338.0391 C15.0748,329.0471 22.3908,321.7321 31.3828,321.7321 L234.7548,321.7321 C243.7468,321.7321 251.0628,329.0471 251.0628,338.0391 C251.0628,347.0311 243.7468,354.3461 234.7548,354.3461 Z" id="Fill-70" fill="#A2A4BD" mask="url(#mask-4)"></path>
            <path d="M153.3994,45.5573 C153.3994,65.9383 136.8784,82.4603 116.4964,82.4603 C96.1154,82.4603 77.5654,46.1183 77.5654,46.1183 L85.0544,20.8763 C85.0544,20.8763 104.0804,16.0123 117.3404,16.0413 C139.6734,16.0903 153.3994,25.1763 153.3994,45.5573" id="Fill-71" fill="#1A1C32" mask="url(#mask-4)"></path>
            <path d="M259.8486,232.2468 C254.2136,220.2748 240.4676,219.4958 228.2446,221.6538 L107.9066,221.6478 L86.9936,266.1888 L126.9816,276.1778 L120.5296,280.0658 L149.4306,291.2578 C149.4306,291.2578 156.7166,294.2508 201.7486,286.7068 C244.6216,279.5238 269.3386,252.4128 259.8486,232.2468" id="Fill-72" fill="#EDC36F" mask="url(#mask-4)"></path>
            <polygon id="Fill-73" fill="#FFDB8C" mask="url(#mask-4)" points="159.7363 274.3317 180.3113 260.2157 195.5463 286.7907 172.4823 291.4397"></polygon>
            <path d="M89.0723,101.3698 L102.4423,31.5988 L146.1923,42.1258 C146.1923,42.1258 145.2263,71.4318 137.7623,82.6268 C130.3003,93.8218 118.9513,92.7568 118.9513,92.7568 L118.9263,113.3118 C118.9263,113.3118 95.7133,108.9588 89.0723,101.3698" id="Fill-74" fill="#FFDB8C" mask="url(#mask-4)"></path>
            <path d="M90.1494,101.0642 C95.9924,107.1502 113.2444,111.1072 117.9274,112.0892 L117.9524,91.6572 L119.0454,91.7592 C119.4864,91.7972 129.9054,92.6102 136.9304,82.0722 C143.4654,72.2682 144.9314,47.6922 145.1584,42.9052 L103.2274,32.8152 L90.1494,101.0642 Z M119.9254,114.5162 L118.7424,114.2932 C117.7804,114.1142 95.1104,109.7892 88.3194,102.0282 L87.9984,101.6612 L101.6574,30.3792 L147.2184,41.3442 L147.1914,42.1592 C147.1524,43.3672 146.1294,71.8772 138.5944,83.1812 C132.1704,92.8182 123.0794,93.7652 119.9504,93.7872 L119.9254,114.5162 Z" id="Fill-75" fill="#1A1C32" mask="url(#mask-4)"></path>
            <path d="M106.2686,60.4792 C106.2686,66.0442 101.9546,70.5552 96.6306,70.5552 C91.3086,70.5552 86.9936,66.0442 86.9936,60.4792 C86.9936,54.9152 91.3086,50.4042 96.6306,50.4042 C101.9546,50.4042 106.2686,54.9152 106.2686,60.4792" id="Fill-76" fill="#FFDB8C" mask="url(#mask-4)"></path>
            <polygon id="Fill-77" fill="#1A1C32" mask="url(#mask-4)" points="160.124 175.4851 221.212 210.1491 218.878 219.9501 171.276 220.4171"></polygon>
            <path d="M160.124,175.4851 C151.959,135.4761 139.264,101.3461 121.397,104.2621 C121.046,104.3101 120.694,104.3691 120.342,104.4471 C120.342,104.4471 120.326,104.4631 120.303,104.4851 C120.299,104.4881 120.293,104.4931 120.29,104.4971 C120.263,104.5211 120.225,104.5561 120.176,104.5981 C120.169,104.6051 120.16,104.6121 120.152,104.6191 C120.097,104.6671 120.028,104.7231 119.947,104.7891 C119.943,104.7921 119.94,104.7951 119.936,104.7981 C119.671,105.0091 119.272,105.3001 118.741,105.6221 C118.728,105.6311 118.714,105.6381 118.7,105.6461 C118.538,105.7441 118.363,105.8441 118.177,105.9451 C118.154,105.9581 118.132,105.9691 118.109,105.9821 C117.905,106.0911 117.689,106.2021 117.458,106.3121 C113.096,108.3861 103.698,110.3431 88.705,101.1171 C88.705,101.1171 88.641,101.1001 88.536,101.0741 C88.499,101.0641 88.455,101.0531 88.406,101.0421 C88.368,101.0321 88.332,101.0231 88.287,101.0121 C88.248,101.0031 88.205,100.9931 88.162,100.9831 C88.097,100.9671 88.029,100.9521 87.952,100.9341 C87.908,100.9241 87.861,100.9141 87.813,100.9041 C87.726,100.8831 87.635,100.8641 87.534,100.8421 C87.485,100.8321 87.435,100.8221 87.382,100.8101 C87.27,100.7871 87.152,100.7631 87.027,100.7381 C86.977,100.7281 86.926,100.7171 86.873,100.7081 C86.736,100.6811 86.595,100.6541 86.445,100.6271 C86.392,100.6171 86.338,100.6071 86.282,100.5961 C86.124,100.5681 85.96,100.5401 85.789,100.5101 C85.733,100.5021 85.68,100.4921 85.624,100.4831 C85.442,100.4531 85.253,100.4231 85.059,100.3931 C85.004,100.3851 84.952,100.3771 84.897,100.3691 C84.692,100.3391 84.48,100.3081 84.262,100.2791 C84.211,100.2721 84.161,100.2651 84.109,100.2581 C83.877,100.2271 83.637,100.1981 83.391,100.1701 C83.349,100.1651 83.309,100.1601 83.266,100.1551 C82.996,100.1251 82.718,100.0951 82.434,100.0691 C82.413,100.0671 82.393,100.0641 82.372,100.0621 C80.818,99.9171 79.065,99.8331 77.209,99.8831 C77.172,99.8841 77.134,99.8861 77.096,99.8871 C76.77,99.8971 76.442,99.9111 76.11,99.9291 C76.031,99.9341 75.951,99.9401 75.872,99.9461 C75.581,99.9641 75.289,99.9841 74.994,100.0101 C74.89,100.0191 74.785,100.0311 74.68,100.0411 C74.408,100.0671 74.136,100.0951 73.862,100.1291 C73.741,100.1431 73.62,100.1611 73.499,100.1761 C73.24,100.2121 72.981,100.2481 72.722,100.2891 C72.589,100.3091 72.455,100.3331 72.322,100.3561 C72.073,100.3981 71.824,100.4441 71.575,100.4931 C71.434,100.5211 71.291,100.5511 71.149,100.5821 C70.909,100.6321 70.669,100.6871 70.429,100.7451 C70.28,100.7811 70.133,100.8181 69.984,100.8561 C69.751,100.9181 69.518,100.9811 69.284,101.0481 C69.132,101.0921 68.98,101.1371 68.828,101.1851 C68.601,101.2561 68.375,101.3301 68.148,101.4071 C67.994,101.4601 67.84,101.5131 67.686,101.5691 C67.464,101.6501 67.244,101.7361 67.024,101.8241 C66.869,101.8861 66.714,101.9481 66.561,102.0131 C66.344,102.1061 66.129,102.2051 65.915,102.3041 C65.762,102.3761 65.608,102.4451 65.456,102.5201 C65.244,102.6251 65.034,102.7381 64.824,102.8501 C64.675,102.9311 64.524,103.0081 64.377,103.0931 C64.167,103.2131 63.962,103.3411 63.756,103.4691 C63.612,103.5581 63.469,103.6431 63.327,103.7361 C63.116,103.8741 62.911,104.0231 62.705,104.1711 C62.573,104.2641 62.44,104.3531 62.311,104.4511 C62.088,104.6201 61.871,104.8001 61.654,104.9801 C61.548,105.0691 61.438,105.1511 61.333,105.2421 C61.015,105.5191 60.702,105.8081 60.397,106.1131 C50.407,116.1031 43.746,169.3871 37.086,194.3641 C30.426,219.3401 55.725,232.2171 76.539,258.0271 L179.21,225.0831 L160.124,175.4851 Z" id="Fill-78" fill="#1A1C32" mask="url(#mask-4)"></path>
            <path d="M88.7266,54.5661 C88.7266,54.5661 95.4036,47.4311 100.2906,58.3091 L103.4136,47.9031 L93.8566,47.8331 L88.7266,54.5661 Z" id="Fill-79" fill="#1A1C32" mask="url(#mask-4)"></path>
            <path d="M123.8369,54.5671 C118.5339,50.7821 110.7139,53.8211 110.6339,53.8501 L109.8929,51.9931 C110.2529,51.8491 118.7959,48.5091 124.9989,52.9401 L123.8369,54.5671 Z" id="Fill-80" fill="#1A1C32" mask="url(#mask-4)"></path>
            <path d="M151.0078,44.1794 L150.3148,36.7684 L145.3018,36.3674 C145.3218,35.6244 145.2778,34.8654 145.1528,34.0874 C145.3468,33.9054 145.5398,33.7274 145.7358,33.5404 L144.9968,33.3524 C144.8728,32.7894 141.2528,34.0184 141.0428,33.4394 C138.1388,25.4344 135.3078,32.1854 134.2698,35.2544 L99.8088,28.2964 L94.7408,46.9054 C100.6728,49.2834 109.8018,49.7914 134.0628,41.4554 L130.1628,52.5454 C130.1628,52.5454 139.6418,50.4174 143.6698,43.4984 L151.0078,44.1794 Z" id="Fill-81" fill="#1A1C32" mask="url(#mask-4)"></path>
            <path d="M118.9512,91.445 C118.9512,91.445 111.3242,91.611 106.1752,83.984 C106.1752,83.984 104.8662,97.082 118.9412,98.788 L118.9512,91.445 Z" id="Fill-82" fill="#1A1C32" mask="url(#mask-4)"></path>
            <path d="M128.9453,81.5798 C128.8083,81.5798 125.5303,81.5368 119.7973,77.8108 L120.8863,76.1338 C126.0453,79.4858 128.9183,79.5798 128.9453,79.5798 L128.9453,81.5798 Z" id="Fill-83" fill="#1A1C32" mask="url(#mask-4)"></path>
            <path d="M91.3057,61.7839 L89.4337,61.0809 C89.4617,61.0059 90.1377,59.2289 91.5607,57.8069 C92.7657,56.6019 94.1387,55.9909 95.6427,55.9909 L95.6427,57.9909 C94.6887,57.9909 93.7907,58.4049 92.9747,59.2209 C91.8677,60.3289 91.3117,61.7699 91.3057,61.7839" id="Fill-84" fill="#1A1C32" mask="url(#mask-4)"></path>
            <path d="M97.1162,66.3474 L95.1162,66.3294 L96.1162,66.3384 L95.1162,66.3314 C95.1162,66.2844 95.0992,61.5374 91.7242,59.3544 L92.8102,57.6744 C97.1202,60.4624 97.1182,66.1094 97.1162,66.3474" id="Fill-85" fill="#1A1C32" mask="url(#mask-4)"></path>
            <path d="M111.6582,65.2243 C111.6582,67.5233 109.7942,69.3873 107.4952,69.3873 C105.1962,69.3873 103.3322,67.5233 103.3322,65.2243 C103.3322,62.9253 105.1962,61.0613 107.4952,61.0613 C109.7942,61.0613 111.6582,62.9253 111.6582,65.2243" id="Fill-86" fill="#EDC36F" mask="url(#mask-4)"></path>
            <path d="M89.6826,229.1989 C79.4656,222.3309 45.3296,203.2909 30.3276,223.5869 C26.4806,228.7899 25.0096,239.6409 28.0866,250.8089 L28.0846,250.8079 C28.0846,250.8079 28.0906,250.8239 28.0916,250.8269 C28.9106,253.7929 30.0516,256.7789 31.5526,259.6879 C31.8846,260.4469 32.3186,261.3059 32.8336,262.2459 C43.1576,281.0529 63.0746,292.5799 84.5286,292.5799 L101.3996,292.5799 C102.3446,292.3289 103.3756,292.1769 104.3046,291.9199 C126.8626,296.3069 146.2746,297.6099 146.2746,297.6099 L158.3576,296.1499 L165.3516,280.0659 L89.6826,229.1989 Z" id="Fill-87" fill="#EDC36F" mask="url(#mask-4)"></path>
            <polygon id="Fill-88" fill="#1A1C32" mask="url(#mask-4)" points="158.1211 276.6521 156.9901 275.0041 215.6191 234.7791 216.7501 236.4271"></polygon>
            <path d="M144.1582,297.6101 C144.1582,297.6101 155.2032,293.2991 153.5662,273.2551 L183.3892,291.4401 C183.3892,291.4401 187.2962,297.0721 184.1082,299.2161 C180.9202,301.3611 144.1582,297.6101 144.1582,297.6101" id="Fill-89" fill="#FFDB8C" mask="url(#mask-4)"></path>
            <path d="M177.5615,288.2341 C177.5615,288.2341 184.8165,293.6871 178.2645,300.3721 L213.2155,300.5621 C218.3325,300.5621 222.7955,299.2671 227.5005,297.2561 C231.4935,295.5511 235.1955,293.1441 234.9875,290.1261 C234.4685,282.6171 221.9335,279.0521 212.6535,279.0521 C203.3735,279.0521 194.8775,286.4581 194.8775,286.4581 L177.5615,288.2341 Z" id="Fill-90" fill="#1A1C32" mask="url(#mask-4)"></path>
            <path d="M123.6992,295.5808 L78.8052,282.9958 C69.1292,284.2978 67.3882,296.4438 76.4212,301.2598 C85.4542,306.0738 105.9922,300.6758 123.6992,295.5808" id="Fill-91" fill="#1A1C32" mask="url(#mask-4)"></path>
            <polygon id="Fill-92" fill="#EDC36F" mask="url(#mask-4)" points="132.4736 56.5476 133.1926 72.9266 126.6866 72.7756"></polygon>
            <path d="M129.4102,74.3562 C129.3372,74.3562 129.2642,74.3542 129.1892,74.3512 L126.5572,74.2382 L126.6432,72.2402 L129.2752,72.3532 C130.0972,72.3962 130.8692,72.0962 131.4592,71.5292 C132.0502,70.9622 132.3742,70.1992 132.3722,69.3802 L132.3422,56.4982 L132.8142,56.2042 C135.3922,54.5962 141.3762,52.7872 145.5552,57.4342 L144.0662,58.7722 C140.5952,54.9082 135.8542,56.8642 134.3442,57.6392 L134.3722,69.3772 C134.3752,70.7472 133.8322,72.0232 132.8442,72.9722 C131.9092,73.8692 130.6972,74.3562 129.4102,74.3562" id="Fill-93" fill="#1A1C32" mask="url(#mask-4)"></path>
            <polygon id="Fill-94" fill="#FFFFFF" mask="url(#mask-4)" points="81.6455 194.9792 79.7655 96.7172 81.7655 96.6782 83.6455 194.9402"></polygon>
            <polygon id="Fill-95" fill="#FFDB8C" mask="url(#mask-4)" points="102.1934 101.1345 109.7904 122.0255 113.9044 103.8245"></polygon>
            <path d="M152.0342,50.5066 L143.7412,56.1936 C144.5012,48.7846 143.7312,43.8016 142.3882,39.7266 L152.0342,42.1096 L152.0342,50.5066 Z" id="Fill-96" fill="#1A1C32" mask="url(#mask-4)"></path>
            <path d="M90.1045,68.3386 C90.1045,68.3386 94.2525,72.2856 100.7515,69.5086 C100.7515,69.5086 100.2675,75.6436 92.6255,77.3576 C82.2605,79.6826 90.1045,68.3386 90.1045,68.3386" id="Fill-97" fill="#1A1C32" mask="url(#mask-4)"></path>
            <polygon id="Fill-98" fill="#FFFFFF" mask="url(#mask-4)" points="148.2734 213.4929 124.9204 103.2459 126.8774 102.8319 150.2304 213.0789"></polygon>
            <path d="M188.5791,219.0231 C188.5791,219.0231 179.7101,199.3031 166.0031,199.7071 C160.3461,199.8731 147.8661,207.1861 142.2791,210.6361 L129.5371,207.2801 L130.2001,218.7361 L144.2731,218.7361 L188.5791,219.0231 Z" id="Fill-99" fill="#FFDB8C" mask="url(#mask-4)"></path>
            <path d="M181.7998,220.7595 C181.7448,220.6745 176.2898,212.2255 171.8068,208.1175 L173.1578,206.6435 C177.8338,210.9265 183.2528,219.3225 183.4818,219.6775 L181.7998,220.7595 Z" id="Fill-100" fill="#1A1C32" mask="url(#mask-4)"></path>
            <path d="M174.084,220.8269 C174.038,220.7659 169.476,214.8139 166.476,211.3809 L167.981,210.0639 C171.024,213.5479 175.626,219.5509 175.672,219.6099 L174.084,220.8269 Z" id="Fill-101" fill="#1A1C32" mask="url(#mask-4)"></path>
            <path d="M165.5557,220.8269 C165.5337,220.7979 163.2867,217.8659 160.9257,214.9489 L162.4807,213.6909 C164.8587,216.6299 167.1207,219.5809 167.1437,219.6099 L165.5557,220.8269 Z" id="Fill-102" fill="#1A1C32" mask="url(#mask-4)"></path>
            <path d="M302.2012,329.5876 C302.2012,329.5876 317.4142,320.9426 305.8182,311.6506 C282.2172,292.7376 284.5742,265.6966 293.5052,261.4006 C306.8142,254.9996 302.4332,284.9876 313.5542,301.4976 C322.6602,315.0206 316.6462,251.6406 317.2002,232.4416 C317.8742,209.0806 335.6482,211.1066 339.5742,233.9686 C346.8952,276.6046 322.8272,298.3566 329.6612,306.0816 C332.3162,309.0836 344.4182,298.8146 345.2802,281.0716 C346.3922,258.1956 364.1852,268.8416 360.1422,286.0256 C357.4052,297.6606 348.0802,300.3896 341.8632,313.0176 C336.3972,324.1216 356.5982,330.4166 341.6352,331.4806 C322.3242,332.8526 302.2012,329.5876 302.2012,329.5876" id="Fill-103" fill="#EDC36F" mask="url(#mask-4)"></path>
            <path d="M299.543,343.694 C299.543,343.694 313.462,339.458 317.094,318.074 C320.725,296.69 346.547,340.668 346.547,340.668 L299.543,343.694 Z" id="Fill-104" fill="#1A1C32" mask="url(#mask-4)"></path>
            <path d="M358.4834,327.9519 L293.0574,327.9519 C289.3804,327.9519 286.4004,330.9319 286.4004,334.6089 C286.4004,338.2859 289.3804,341.2659 293.0574,341.2659 L293.9384,341.2659 L303.1914,390.5039 L348.3494,390.5039 L357.6024,341.2659 L358.4834,341.2659 C362.1604,341.2659 365.1404,338.2859 365.1404,334.6089 C365.1404,330.9319 362.1604,327.9519 358.4834,327.9519" id="Fill-105" fill="#FFFFFF" mask="url(#mask-4)"></path>
            <polygon id="Fill-106" fill="#A2A4BD" mask="url(#mask-4)" points="295.8652 347.3513 294.1522 340.2293 358.6582 341.2303"></polygon>
            <polygon id="Fill-107" fill="#A2A4BD" mask="url(#mask-4)" points="292.62 342.269 357.894 342.269 357.894 340.269 292.62 340.269"></polygon>
            <path d="M304.0205,389.5036 L347.5205,389.5036 L356.7735,340.2656 L358.4835,340.2656 C361.6025,340.2656 364.1405,337.7286 364.1405,334.6086 C364.1405,331.4896 361.6025,328.9516 358.4835,328.9516 L293.0575,328.9516 C289.9385,328.9516 287.4005,331.4896 287.4005,334.6086 C287.4005,337.7286 289.9385,340.2656 293.0575,340.2656 L294.7675,340.2656 L304.0205,389.5036 Z M349.1785,391.5036 L302.3625,391.5036 L293.1095,342.2656 L293.0575,342.2656 C288.8345,342.2656 285.4005,338.8306 285.4005,334.6086 C285.4005,330.3866 288.8345,326.9516 293.0575,326.9516 L358.4835,326.9516 C362.7065,326.9516 366.1405,330.3866 366.1405,334.6086 C366.1405,338.8306 362.7065,342.2656 358.4835,342.2656 L358.4315,342.2656 L349.1785,391.5036 Z" id="Fill-108" fill="#A2A4BD" mask="url(#mask-4)"></path>
            <path d="M180.1074,300.198 C164.2474,300.198 95.1394,298.658 54.0694,272.886 L55.1314,271.193 C100.9994,299.973 182.5454,298.199 183.3634,298.17 L183.4164,300.17 C183.3214,300.172 182.1584,300.198 180.1074,300.198" id="Fill-109" fill="#1A1C32" mask="url(#mask-4)"></path>
            <polygon id="Fill-110" fill="#1A1C32" mask="url(#mask-4)" points="192.6123 299.5554 108.8483 242.1054 109.9793 240.4564 193.7433 297.9074"></polygon>
            <path d="M120.4063,60.8894 C119.8813,62.5914 118.7653,63.7574 117.9153,63.4944 C117.0643,63.2334 116.8003,61.6404 117.3253,59.9394 C117.8503,58.2374 118.9663,57.0714 119.8163,57.3334 C120.6673,57.5954 120.9313,59.1884 120.4063,60.8894" id="Fill-111" fill="#1A1C32" mask="url(#mask-4)"></path>
            <path d="M139.4502,64.9148 C138.9262,66.6168 137.8102,67.7828 136.9592,67.5208 C136.1082,67.2588 135.8452,65.6658 136.3692,63.9648 C136.8942,62.2628 138.0102,61.0968 138.8602,61.3588 C139.7122,61.6218 139.9752,63.2138 139.4502,64.9148" id="Fill-112" fill="#1A1C32" mask="url(#mask-4)"></path>
            <polygon id="Fill-113" fill="#A2A4BD" mask="url(#mask-4)" points="214.4531 363.196 211.4101 353.917 233.3151 353.917"></polygon>
            <polygon id="Fill-114" fill="#A2A4BD" mask="url(#mask-4)" points="174.4209 363.196 171.3789 353.917 193.2829 353.917"></polygon>
            <polygon id="Fill-115" fill="#A2A4BD" mask="url(#mask-4)" points="69.8008 363.196 69.8008 353.917 91.7058 353.917"></polygon>
            <path d="M30.7695,389.1901 L39.1335,389.1901 L50.3035,354.3461 L30.7695,354.3461 L30.7695,389.1901 Z M40.5925,391.1901 L28.7695,391.1901 L28.7695,352.3461 L53.0455,352.3461 L40.5925,391.1901 Z" id="Fill-116" fill="#A2A4BD" mask="url(#mask-4)"></path>
            <polygon id="Fill-117" fill="#A2A4BD" mask="url(#mask-4)" points="29.7695 363.196 29.7695 353.917 51.6745 353.917"></polygon>
            <path d="M31.3828,323.6677 C26.5358,323.6677 22.2268,325.9277 19.4228,329.4437 L217.9228,323.6677 L31.3828,323.6677 Z" id="Fill-118" fill="#A2A4BD" mask="url(#mask-4)"></path>
            <path d="M131.2002,218.6667 L77.6142,218.6667 L77.6142,216.6667 L129.2002,216.6667 L129.2002,209.3697 C78.3402,192.3377 64.5142,194.4277 64.3772,194.4507 L64.0192,192.4827 C64.5762,192.3807 78.3042,190.1557 130.5182,207.7017 L131.2002,207.9317 L131.2002,218.6667 Z" id="Fill-119" fill="#FFFFFF" mask="url(#mask-4)"></path>
            <polygon id="Fill-120" fill="#1A1C32" mask="url(#mask-4)" points="0 391.504 385.717 391.504 385.717 389.504 0 389.504"></polygon>
            <path d="M283.9717,160.5905 L207.4657,160.5905 C205.8747,160.5905 204.5017,161.7035 204.1737,163.2605 L192.0907,219.7965 L148.5637,219.7965 C147.3327,219.7965 146.3357,220.7935 146.3357,222.0235 C146.3357,223.2525 147.3327,224.2495 148.5637,224.2495 L191.2877,224.2505 L194.4677,224.2505 L271.9447,224.2505 C273.5347,224.2505 274.9087,223.1375 275.2367,221.5805 L287.2647,164.6515 C287.7057,162.5595 286.1107,160.5905 283.9717,160.5905" id="Fill-121" fill="#FFFFFF" mask="url(#mask-4)"></path>
            <path d="M148.7402,219.7966 L192.2682,219.7966 L204.3502,163.2606 C204.6792,161.7036 206.0532,160.5906 207.6432,160.5906 L208.9402,160.5906 L195.3362,224.2506 L194.6452,224.2506 L191.4662,224.2506 L148.7402,224.2496 C147.5112,224.2496 146.5132,223.2536 146.5132,222.0236 C146.5132,220.7936 147.5112,219.7966 148.7402,219.7966" id="Fill-122" fill="#FFDB8C" mask="url(#mask-4)"></path>
            <path d="M148.5635,220.7956 C147.8865,220.7956 147.3355,221.3466 147.3355,222.0236 C147.3355,222.6996 147.8865,223.2496 148.5635,223.2496 L271.9445,223.2496 C273.0555,223.2496 274.0285,222.4606 274.2575,221.3746 L286.2865,164.4436 C286.4345,163.7436 286.2595,163.0226 285.8085,162.4656 C285.3575,161.9096 284.6875,161.5906 283.9715,161.5906 L207.4655,161.5906 C206.3545,161.5906 205.3815,162.3796 205.1525,163.4656 L192.8995,220.7956 L148.5635,220.7956 Z M271.9445,225.2496 L148.5635,225.2496 C146.7845,225.2496 145.3355,223.8026 145.3355,222.0236 C145.3355,220.2436 146.7845,218.7956 148.5635,218.7956 L191.2825,218.7956 L203.1965,163.0506 C203.6185,161.0466 205.4145,159.5906 207.4655,159.5906 L283.9715,159.5906 C285.2935,159.5906 286.5295,160.1796 287.3625,161.2056 C288.1955,162.2326 288.5155,163.5646 288.2435,164.8576 L276.2145,221.7876 C275.7925,223.7936 273.9965,225.2496 271.9445,225.2496 Z" id="Fill-123" fill="#1A1C32" mask="url(#mask-4)"></path>
            <path d="M251.79,193.07 C250.897,198.134 246.068,202.24 241.004,202.24 C235.939,202.24 232.558,198.134 233.45,193.07 C234.344,188.006 239.173,183.9 244.237,183.9 C249.302,183.9 252.684,188.006 251.79,193.07 M256.427,191.643 C256.065,191.585 255.66,191.527 255.248,191.467 C254.753,191.396 254.416,191.014 254.392,190.514 C254.377,190.213 254.35,189.915 254.311,189.622 C254.245,189.132 254.497,188.6 254.957,188.285 C255.34,188.023 255.716,187.764 256.05,187.529 C256.59,187.146 256.485,186.674 256.354,186.347 L256.041,185.564 C255.91,185.238 255.665,184.839 255.059,185.056 C254.683,185.192 254.265,185.35 253.84,185.511 C253.331,185.703 252.813,185.575 252.532,185.199 C252.363,184.972 252.185,184.755 251.995,184.546 C251.68,184.199 251.646,183.658 251.923,183.183 C252.153,182.787 252.38,182.396 252.578,182.045 C252.896,181.477 252.553,181.162 252.26,180.973 L251.557,180.521 C251.264,180.333 250.823,180.145 250.357,180.618 C250.07,180.91 249.754,181.241 249.432,181.578 C249.046,181.981 248.485,182.14 248.022,181.988 C247.746,181.897 247.462,181.817 247.172,181.75 C246.691,181.637 246.381,181.233 246.399,180.725 C246.415,180.302 246.431,179.887 246.437,179.515 C246.449,178.915 245.958,178.841 245.581,178.841 L244.678,178.841 C244.301,178.841 243.784,178.915 243.583,179.515 C243.46,179.887 243.328,180.302 243.194,180.725 C243.034,181.233 242.581,181.637 242.061,181.75 C241.747,181.817 241.436,181.897 241.127,181.988 C240.61,182.14 240.106,181.981 239.862,181.578 C239.659,181.241 239.459,180.91 239.275,180.618 C238.976,180.145 238.47,180.333 238.11,180.521 L237.247,180.973 C236.888,181.162 236.433,181.477 236.551,182.045 C236.625,182.396 236.714,182.787 236.805,183.183 C236.913,183.658 236.689,184.199 236.252,184.546 C235.989,184.755 235.733,184.972 235.484,185.199 C235.07,185.575 234.508,185.703 234.066,185.511 C233.698,185.35 233.336,185.192 233.009,185.056 C232.479,184.839 232.093,185.238 231.847,185.564 L231.257,186.347 C231.011,186.674 230.74,187.146 231.145,187.529 C231.396,187.764 231.682,188.023 231.972,188.285 C232.32,188.6 232.385,189.132 232.146,189.622 C232.004,189.915 231.872,190.213 231.751,190.514 C231.55,191.014 231.079,191.396 230.559,191.467 C230.125,191.527 229.699,191.585 229.317,191.643 C228.7,191.738 228.537,192.241 228.471,192.618 L228.311,193.522 C228.245,193.899 228.23,194.402 228.814,194.498 C229.176,194.555 229.581,194.614 229.993,194.673 C230.488,194.744 230.825,195.126 230.85,195.626 C230.864,195.927 230.891,196.225 230.931,196.518 C230.996,197.008 230.744,197.54 230.284,197.855 C229.901,198.118 229.525,198.376 229.191,198.611 C228.651,198.994 228.755,199.466 228.886,199.794 L229.2,200.576 C229.331,200.903 229.576,201.301 230.183,201.084 C230.558,200.948 230.976,200.79 231.401,200.63 C231.909,200.437 232.427,200.565 232.708,200.942 C232.877,201.168 233.057,201.385 233.246,201.594 C233.561,201.942 233.594,202.482 233.318,202.957 C233.088,203.353 232.861,203.744 232.663,204.095 C232.345,204.663 232.688,204.978 232.981,205.167 L233.685,205.619 C233.978,205.807 234.418,205.995 234.884,205.522 C235.171,205.23 235.487,204.899 235.809,204.563 C236.195,204.159 236.756,204.001 237.219,204.152 C237.495,204.243 237.778,204.323 238.069,204.39 C238.549,204.503 238.859,204.907 238.841,205.415 C238.826,205.838 238.811,206.254 238.803,206.625 C238.792,207.225 239.282,207.299 239.659,207.299 L240.563,207.299 C240.94,207.299 241.457,207.225 241.658,206.625 C241.781,206.254 241.913,205.838 242.047,205.415 C242.207,204.907 242.66,204.503 243.18,204.39 C243.494,204.323 243.806,204.243 244.114,204.152 C244.631,204.001 245.135,204.159 245.379,204.563 C245.582,204.899 245.782,205.23 245.966,205.522 C246.266,205.995 246.771,205.807 247.131,205.619 L247.993,205.167 C248.353,204.978 248.808,204.663 248.689,204.095 C248.616,203.744 248.527,203.353 248.436,202.957 C248.328,202.482 248.552,201.942 248.989,201.594 C249.252,201.385 249.508,201.168 249.757,200.942 C250.171,200.565 250.733,200.437 251.175,200.63 C251.543,200.79 251.905,200.948 252.232,201.084 C252.762,201.301 253.147,200.903 253.394,200.576 L253.984,199.794 C254.229,199.466 254.501,198.994 254.096,198.611 C253.845,198.376 253.56,198.118 253.269,197.855 C252.921,197.54 252.856,197.008 253.095,196.518 C253.237,196.225 253.369,195.927 253.49,195.626 C253.691,195.126 254.162,194.744 254.683,194.673 C255.116,194.614 255.542,194.555 255.924,194.498 C256.541,194.402 256.704,193.899 256.77,193.522 L256.93,192.618 C256.996,192.241 257.011,191.738 256.427,191.643" id="Fill-124" fill="#EDC36F" mask="url(#mask-4)"></path>
            <path d="M247.834,191.0358 C247.813,190.9548 247.742,190.9018 247.654,190.9018 C247.633,190.9018 247.611,190.9048 247.589,190.9118 L243.18,192.1128 C243.124,192.1298 243.068,192.1178 243.031,192.0818 L239.044,188.2208 C239.011,188.1868 238.964,188.1688 238.912,188.1688 C238.853,188.1688 238.793,188.1918 238.744,188.2338 L237.978,188.8858 C237.884,188.9658 237.855,189.0928 237.909,189.1808 L241.337,194.6838 C241.625,195.0318 242.102,195.1718 242.628,195.0438 C242.698,195.0258 242.768,195.0008 242.837,194.9728 L242.843,194.9698 L242.846,194.9698 L242.849,194.9678 L242.854,194.9658 C242.958,194.9218 243.059,194.8668 243.153,194.8028 L243.159,194.7998 L243.164,194.7968 L247.917,192.1708 C248.022,192.1128 248.081,191.9938 248.055,191.8918 L247.834,191.0358 Z" id="Fill-125" fill="#EDC36F" mask="url(#mask-4)"></path>
        </g>
    </g>
</svg>